{"glyphs":{"0":{"ha":1010,"x_min":83,"x_max":926,"o":"m 399 -285 q 458 -251 433 -285 q 496 -178 483 -217 q 519 -99 508 -139 q 560 144 549 21 q 574 403 571 267 q 578 510 578 457 q 553 795 578 654 q 489 1078 529 936 q 473 1124 482 1101 q 447 1167 464 1147 q 397 1196 424 1196 q 347 1163 368 1196 q 331 1131 338 1147 q 319 1097 325 1114 q 242 791 267 946 q 210 476 217 636 l 208 426 q 242 93 208 253 q 325 -222 275 -67 l 333 -243 q 362 -274 344 -264 q 399 -285 379 -285 m 550 -424 q 396 -415 472 -424 q 197 -249 247 -401 q 112 94 140 -78 q 83 447 83 265 q 96 681 83 565 q 136 914 108 796 q 169 1049 151 982 q 213 1181 188 1115 q 297 1292 242 1256 q 431 1329 351 1328 q 528 1330 479 1329 q 625 1332 576 1331 l 631 1332 q 736 1290 688 1332 q 826 1146 800 1232 q 867 993 849 1068 q 899 838 886 918 q 919 671 913 758 q 926 482 926 583 l 924 368 q 911 137 924 269 q 864 -135 899 4 q 822 -256 849 -199 q 754 -362 796 -312 q 711 -401 735 -386 q 656 -418 688 -415 q 603 -422 629 -421 q 550 -424 576 -424 z "},"1":{"ha":817,"x_min":83,"x_max":733,"o":"m 175 -422 q 152 -421 164 -422 q 129 -414 140 -419 q 83 -354 83 -394 l 83 -346 q 102 -309 86 -324 q 144 -292 118 -294 q 183 -289 164 -289 q 222 -289 203 -289 q 253 -258 251 -287 q 265 -90 256 -179 q 274 94 274 0 l 274 161 q 278 353 274 257 q 283 546 283 450 l 282 604 q 276 779 279 692 q 263 961 274 867 q 237 942 247 950 q 215 926 226 933 q 171 913 193 913 q 121 938 139 913 q 107 978 107 956 q 115 1010 107 994 q 138 1035 122 1025 q 213 1097 181 1061 q 281 1167 246 1132 q 381 1249 326 1214 q 490 1319 435 1285 q 536 1332 511 1332 q 601 1307 572 1332 q 631 1242 631 1282 q 632 1204 631 1222 q 633 1167 633 1186 l 632 1142 q 628 1033 628 1088 q 633 888 628 960 q 640 742 638 815 q 644 628 643 685 q 646 515 646 572 q 638 271 646 393 q 635 232 636 251 q 635 193 635 213 l 636 101 q 631 -64 636 18 q 617 -229 625 -146 l 614 -268 q 635 -290 614 -290 l 661 -290 q 683 -292 676 -290 q 720 -313 707 -297 q 733 -350 733 -329 l 733 -354 q 693 -410 733 -394 q 672 -416 682 -414 q 650 -419 661 -418 q 522 -422 601 -422 q 365 -422 443 -422 l 175 -422 l 175 -422 z "},"2":{"ha":985,"x_min":83,"x_max":901,"o":"m 350 -428 q 192 -419 271 -428 q 131 -395 151 -415 q 110 -347 110 -375 q 131 -289 110 -321 q 213 -150 179 -226 q 272 10 246 -74 l 415 461 q 465 646 444 553 q 501 835 486 739 q 506 892 506 864 q 472 1043 506 974 q 392 1179 439 1113 q 351 1200 376 1200 q 308 1182 328 1200 q 269 1133 285 1160 q 242 1075 253 1107 q 219 984 225 1031 q 213 890 213 938 l 213 713 q 194 653 210 674 q 150 632 178 632 l 147 632 q 103 652 121 633 q 86 706 86 671 l 86 710 q 85 787 86 749 q 83 864 83 825 q 89 976 83 921 q 110 1085 94 1031 q 150 1185 125 1138 q 215 1271 175 1232 q 354 1331 275 1331 l 383 1331 q 440 1331 411 1331 q 496 1332 468 1332 q 593 1328 544 1332 q 744 1238 693 1319 q 828 1091 790 1165 q 872 928 865 1017 l 874 896 q 865 792 874 843 q 847 690 857 742 q 792 467 826 576 q 725 247 758 358 q 697 161 711 206 q 669 74 683 117 q 642 -10 656 31 q 619 -83 629 -50 q 599 -138 610 -111 q 575 -192 588 -165 l 532 -293 q 552 -297 543 -296 q 571 -297 561 -297 q 617 -293 596 -297 q 655 -289 636 -290 q 693 -287 674 -287 l 792 -290 l 835 -289 q 880 -304 863 -289 q 901 -343 897 -319 l 901 -351 q 886 -391 901 -374 q 840 -415 871 -408 q 790 -421 818 -421 l 708 -418 q 617 -421 663 -418 q 526 -424 572 -424 q 497 -424 519 -424 q 447 -426 475 -425 q 392 -427 419 -426 q 350 -428 365 -428 z "},"3":{"ha":1040,"x_min":83,"x_max":957,"o":"m 453 -422 q 401 -422 426 -422 q 347 -419 375 -422 q 286 -398 314 -417 q 235 -356 258 -379 q 140 -210 174 -287 q 93 -44 107 -132 q 88 6 90 -19 q 86 56 86 31 q 91 152 86 104 q 103 249 96 200 q 164 308 114 308 l 169 308 q 213 289 196 307 q 229 242 229 271 l 229 231 q 227 192 229 211 q 222 153 225 172 q 217 107 219 129 q 215 61 215 85 q 282 -201 215 -76 q 347 -269 306 -246 q 433 -293 389 -293 q 488 -285 461 -293 q 538 -257 514 -276 q 563 -227 553 -244 q 579 -192 572 -210 q 597 -121 592 -156 q 603 -50 603 -86 q 595 38 603 -6 q 575 125 588 81 q 567 142 572 135 q 556 158 561 150 q 521 183 540 183 q 496 175 510 183 q 484 169 490 171 q 471 164 478 167 q 450 161 457 161 q 397 189 414 161 q 386 225 386 207 q 404 271 386 249 q 426 289 414 281 q 499 361 471 319 q 543 453 526 403 q 565 547 556 489 q 575 663 574 606 l 576 783 q 575 876 576 829 q 569 969 574 922 q 558 1051 567 1011 q 536 1132 549 1092 q 472 1194 515 1194 q 421 1182 451 1194 q 318 1100 358 1154 q 247 968 272 1038 q 214 822 222 899 l 213 799 q 216 758 213 779 q 225 718 219 738 q 229 693 229 706 q 189 638 229 651 q 167 633 178 633 q 106 675 125 633 q 83 790 83 729 q 83 809 83 800 q 85 828 83 818 q 119 993 93 914 q 193 1146 146 1072 q 319 1277 246 1229 q 493 1331 393 1325 l 596 1331 l 699 1329 q 807 1294 765 1326 q 874 1204 849 1261 q 922 1011 914 1111 q 931 912 928 961 q 935 821 935 863 l 935 792 q 928 601 932 688 q 904 449 925 515 q 881 381 893 414 q 850 317 869 347 q 844 305 847 310 q 842 294 842 300 q 850 278 842 286 q 908 203 886 242 q 940 121 929 164 q 954 33 951 78 q 957 -57 957 -11 l 957 -90 q 899 -299 957 -199 q 758 -403 851 -379 q 655 -419 706 -417 q 551 -422 604 -422 l 453 -422 z "},"4":{"ha":1058,"x_min":83,"x_max":975,"o":"m 522 319 q 562 320 549 319 q 581 326 575 321 q 588 345 588 332 q 590 385 589 358 q 592 401 592 390 l 607 976 l 607 1029 q 604 1039 607 1039 q 600 1038 601 1039 q 594 1032 599 1038 q 419 693 507 868 q 256 331 332 518 q 379 324 318 328 q 503 319 440 319 l 522 319 m 725 -422 q 692 -422 708 -422 q 658 -421 675 -422 q 599 -401 617 -418 q 576 -343 582 -383 q 575 -322 575 -332 q 575 -301 575 -312 q 576 -256 575 -278 q 578 -210 576 -233 l 582 133 l 585 165 q 560 190 585 190 l 528 190 q 411 194 469 190 q 293 197 353 197 q 235 196 264 197 q 178 190 207 194 l 158 189 q 103 208 122 189 q 83 258 83 226 q 89 294 83 278 q 97 317 92 306 q 110 340 103 329 q 182 490 149 414 q 251 642 215 565 q 359 867 304 757 q 469 1072 414 976 q 513 1159 492 1117 q 556 1246 535 1201 q 685 1331 597 1331 l 772 1331 q 821 1331 796 1331 q 869 1329 846 1331 q 947 1301 922 1326 q 974 1225 971 1276 l 975 1176 q 972 1076 975 1126 q 968 976 969 1026 q 962 716 965 857 q 953 392 958 575 q 944 116 951 269 q 936 -201 936 -37 l 936 -271 l 938 -343 q 919 -394 935 -378 q 868 -415 903 -411 q 797 -420 832 -418 q 725 -422 761 -422 z "},"5":{"ha":1049,"x_min":83,"x_max":965,"o":"m 503 -422 q 367 -418 435 -422 q 153 -299 229 -410 q 116 -233 131 -267 q 88 -164 101 -199 q 83 -135 83 -151 l 83 -125 q 98 -86 85 -101 q 132 -67 111 -71 q 147 -65 138 -65 q 200 -101 183 -65 q 219 -144 211 -122 q 238 -187 228 -165 q 388 -289 281 -289 l 404 -289 q 490 -254 451 -287 q 558 -164 538 -215 q 585 -54 579 -112 q 589 29 589 -12 q 585 107 589 68 q 575 183 582 146 q 553 244 569 217 q 517 296 538 271 q 447 328 489 328 q 432 326 440 328 q 415 322 424 325 q 324 288 368 308 q 247 229 281 267 q 240 221 242 224 q 190 196 217 196 q 177 197 183 196 q 164 201 171 199 q 121 265 124 217 q 106 529 114 399 q 99 794 99 660 q 101 917 99 857 q 108 1039 103 976 q 115 1141 113 1090 q 121 1243 118 1192 q 146 1313 125 1294 q 217 1331 167 1331 q 450 1331 335 1331 q 683 1332 565 1331 q 781 1332 732 1332 q 878 1331 829 1332 q 938 1313 921 1331 q 954 1254 954 1294 l 953 1061 q 955 893 953 976 q 964 726 957 810 l 965 682 q 947 640 963 656 q 903 622 931 624 l 775 621 l 647 622 q 588 690 594 625 q 575 896 578 792 q 574 1029 575 963 q 572 1163 572 1096 q 564 1192 572 1183 q 533 1201 556 1201 q 492 1200 513 1200 q 450 1200 471 1200 q 367 1201 408 1200 q 283 1201 325 1201 l 279 1201 q 251 1192 258 1201 q 243 1163 244 1182 q 233 950 238 1056 q 228 738 228 844 q 230 608 228 671 q 239 479 232 544 q 242 440 242 460 q 244 400 242 421 l 257 400 q 401 449 328 438 q 550 461 475 461 q 624 460 586 461 q 697 457 661 458 q 779 434 742 454 q 846 381 817 414 q 903 302 879 344 q 935 210 926 260 q 947 117 942 164 q 951 25 951 71 q 947 -62 951 -19 q 932 -149 943 -104 q 873 -280 914 -224 q 771 -379 832 -336 q 708 -409 740 -400 q 639 -419 675 -418 l 503 -422 l 503 -422 z "},"6":{"ha":961,"x_min":83,"x_max":878,"o":"m 382 -292 q 421 -276 403 -286 q 452 -253 436 -268 q 476 -214 468 -237 q 510 -92 496 -158 q 524 49 524 -26 l 525 107 l 522 144 q 488 221 515 197 q 408 244 461 244 l 364 243 l 343 243 q 306 239 324 243 q 278 217 289 235 q 241 161 260 189 q 222 97 222 133 l 222 89 q 228 3 225 46 q 233 -83 232 -39 q 246 -151 236 -119 q 269 -215 256 -183 q 314 -271 285 -254 q 382 -292 343 -287 m 460 -422 q 377 -419 418 -422 q 296 -406 336 -417 q 225 -369 254 -394 q 174 -307 196 -343 q 104 -87 110 -206 q 93 118 100 17 q 83 322 86 219 l 83 382 q 93 633 83 506 q 113 874 103 761 q 131 983 117 922 q 164 1107 144 1044 q 178 1147 169 1128 q 196 1183 186 1165 q 287 1292 232 1254 q 421 1331 342 1331 l 564 1331 q 613 1330 589 1331 q 663 1326 638 1329 q 781 1283 738 1319 q 842 1174 824 1246 q 861 1066 856 1119 q 867 968 867 1013 l 867 908 q 864 800 864 854 q 857 692 864 746 q 832 628 850 643 q 767 613 814 613 q 678 614 722 614 q 589 617 633 614 q 525 637 543 619 q 507 697 507 654 l 507 708 q 513 830 510 769 q 517 951 517 890 l 517 981 q 510 1056 514 1018 q 499 1129 506 1093 q 485 1174 494 1153 q 447 1200 476 1194 q 431 1203 439 1203 q 415 1203 424 1203 q 375 1196 394 1203 q 340 1169 356 1189 q 304 1115 318 1144 q 281 1053 290 1085 q 258 967 268 1007 q 242 890 249 928 q 231 811 235 851 q 226 724 228 771 q 218 601 224 661 q 210 479 213 542 l 210 467 q 211 407 210 438 q 215 344 213 376 q 342 373 279 365 q 468 381 406 381 q 565 378 517 381 q 661 372 613 375 q 794 317 740 368 q 867 183 847 265 q 878 101 878 142 q 863 -90 878 3 q 819 -267 847 -183 q 787 -334 807 -307 q 740 -379 767 -361 q 680 -406 713 -397 q 610 -418 647 -415 q 525 -422 568 -422 l 460 -422 z "},"7":{"ha":1053,"x_min":83,"x_max":969,"o":"m 269 -422 q 167 -418 218 -422 q 83 -350 83 -410 q 94 -304 83 -331 q 224 53 165 -131 q 347 419 282 236 q 441 719 400 568 q 532 1019 482 869 q 556 1097 544 1058 q 581 1172 568 1135 q 583 1188 583 1183 q 564 1203 583 1203 q 519 1200 540 1200 q 475 1200 497 1200 q 401 1201 440 1200 q 294 1201 363 1201 l 251 1201 q 223 1192 231 1200 q 215 1165 215 1183 l 215 1035 q 220 909 215 972 q 225 781 225 846 q 225 752 225 765 q 224 725 225 739 q 223 699 222 713 q 221 675 224 686 q 201 638 217 651 q 164 622 186 624 l 161 622 q 100 674 114 622 q 97 692 97 683 q 97 711 97 701 q 95 824 97 768 q 91 931 93 881 q 87 1025 89 982 q 85 1099 85 1068 l 86 1181 q 89 1224 88 1203 q 100 1267 90 1246 q 137 1313 115 1297 q 192 1329 158 1329 l 332 1331 q 407 1331 385 1331 q 447 1329 429 1331 l 558 1329 q 652 1330 604 1329 q 732 1331 700 1331 q 792 1331 763 1331 q 851 1329 821 1331 q 942 1313 914 1326 q 969 1261 969 1299 q 954 1189 969 1238 q 781 623 864 907 q 596 61 699 339 q 537 -108 564 -24 q 483 -271 510 -192 q 462 -324 475 -299 q 439 -378 449 -350 q 383 -418 425 -414 q 269 -422 326 -422 z "},"8":{"ha":1026,"x_min":83,"x_max":943,"o":"m 386 -283 q 425 -268 408 -283 q 526 -151 488 -215 q 564 -1 564 -86 l 564 14 q 560 31 564 25 q 543 38 557 38 l 532 38 q 458 90 458 38 q 469 133 458 107 q 476 156 476 147 q 456 183 476 171 q 401 215 429 200 q 349 250 374 231 q 318 269 325 269 q 306 262 311 269 q 292 239 301 254 q 237 92 250 168 q 214 -64 224 15 l 213 -82 q 247 -188 213 -146 q 332 -264 282 -231 q 357 -278 343 -272 q 386 -283 371 -283 m 532 383 q 551 390 546 383 q 561 411 557 397 q 579 504 572 458 q 586 599 586 550 l 586 914 q 578 1074 586 994 q 547 1169 565 1125 q 510 1197 536 1197 l 506 1197 q 453 1194 478 1197 q 400 1188 428 1192 q 332 1139 356 1182 q 278 1018 300 1081 q 249 889 257 956 q 247 866 247 878 q 247 842 247 854 q 249 792 247 818 q 252 744 250 767 q 256 703 254 721 q 260 675 258 685 q 266 634 263 656 q 272 585 269 613 q 282 553 275 568 q 297 524 289 539 q 393 426 336 460 q 524 383 450 393 l 532 383 m 518 -422 q 401 -418 460 -422 q 286 -386 343 -414 q 184 -312 229 -358 q 111 -205 139 -265 q 83 -75 83 -144 l 86 -36 q 101 64 93 14 q 122 162 108 114 q 155 256 135 210 q 207 344 175 301 q 214 367 214 354 q 208 386 214 376 q 155 517 171 450 q 129 661 139 583 q 120 753 122 701 q 118 840 118 804 q 118 871 118 858 q 119 889 118 883 q 156 1057 128 976 q 228 1217 183 1138 q 347 1308 268 1285 q 413 1325 381 1318 q 481 1332 446 1332 l 614 1332 q 693 1330 654 1332 q 772 1321 732 1328 q 842 1291 814 1314 q 888 1229 869 1268 q 927 1110 915 1171 q 940 986 939 1049 q 942 927 942 957 q 942 867 942 897 l 943 599 q 940 515 943 557 q 926 433 936 474 q 903 330 915 381 q 876 228 890 279 q 872 201 872 213 q 885 154 872 179 q 924 -7 924 75 q 913 -95 924 -51 q 883 -183 903 -139 q 820 -287 858 -242 q 733 -374 782 -333 q 613 -421 682 -418 l 518 -422 z "},"9":{"ha":1003,"x_min":83,"x_max":919,"o":"m 297 335 q 366 351 333 340 q 421 397 399 363 q 494 575 476 479 q 511 659 504 617 q 525 744 518 701 q 535 813 531 782 q 542 872 539 843 q 547 933 546 901 q 549 1001 549 964 q 544 1125 549 1063 q 532 1169 542 1157 q 490 1190 522 1182 q 452 1196 471 1194 q 414 1199 433 1197 l 400 1199 q 316 1174 351 1199 q 264 1101 281 1149 q 251 1053 256 1079 q 233 953 240 1000 q 222 861 226 907 q 216 768 218 815 q 213 667 214 721 q 215 632 214 649 q 215 597 215 615 l 213 496 q 223 428 213 460 q 253 365 233 396 q 269 344 260 354 q 293 335 279 335 l 297 335 m 501 -424 q 446 -423 474 -422 q 390 -421 418 -424 q 118 -262 214 -408 q 97 -211 103 -239 l 96 -199 q 108 -159 96 -176 q 139 -135 119 -142 q 149 -132 144 -132 q 158 -132 154 -132 q 190 -140 175 -132 q 214 -167 204 -149 q 240 -210 225 -190 q 274 -246 254 -229 q 379 -283 321 -283 l 386 -283 q 458 -256 432 -282 q 503 -194 483 -229 q 517 -155 514 -175 q 524 -114 521 -135 q 534 -16 531 -68 q 538 121 538 36 l 536 160 q 528 198 535 189 q 497 207 522 207 l 488 207 q 421 206 454 207 q 354 203 388 204 l 328 201 q 201 235 249 201 q 118 346 153 268 q 92 420 101 382 q 83 499 83 458 l 83 507 q 87 749 85 632 q 106 956 89 865 q 119 1047 113 1001 q 140 1136 126 1092 q 238 1277 168 1225 q 401 1329 308 1329 q 487 1331 444 1329 q 574 1332 529 1332 q 651 1330 613 1332 q 729 1322 690 1328 q 828 1288 783 1314 q 917 1138 913 1239 q 919 1082 918 1110 q 919 1026 919 1054 q 917 913 919 967 q 913 805 915 860 q 908 690 910 750 q 906 560 906 631 q 901 472 903 518 q 900 374 900 425 l 904 39 q 899 -59 904 -10 q 886 -158 893 -108 q 842 -280 876 -228 q 754 -376 807 -332 q 706 -404 736 -392 q 620 -422 669 -419 q 525 -424 571 -424 l 501 -424 z "}," ":{"ha":694,"x_min":0,"x_max":0,"o":""},"!":{"ha":586,"x_min":83,"x_max":503,"o":"m 346 151 q 263 153 304 153 q 179 156 221 153 q 106 181 126 158 q 85 257 86 204 l 83 328 q 90 559 83 444 q 100 789 97 674 l 106 1217 q 106 1236 106 1226 q 107 1256 106 1246 q 126 1302 111 1286 q 171 1322 140 1318 q 250 1330 211 1328 q 329 1332 289 1332 q 436 1328 382 1332 q 500 1251 500 1324 l 500 1242 q 496 1141 497 1192 q 494 1035 494 1090 l 496 869 q 488 592 496 735 q 479 303 479 450 l 479 243 q 466 192 479 207 q 417 164 453 176 q 346 151 383 151 m 290 -422 q 230 -422 260 -422 q 169 -419 200 -421 q 99 -354 110 -418 q 95 -319 96 -337 q 94 -283 94 -301 l 89 -106 q 108 -40 89 -60 q 176 -17 128 -19 l 215 -15 l 371 -12 l 410 -14 q 486 -90 482 -18 q 488 -162 488 -126 q 488 -235 488 -199 q 490 -276 489 -256 q 499 -317 492 -296 q 503 -342 503 -329 q 485 -389 503 -369 q 435 -412 467 -408 q 363 -420 399 -418 q 290 -422 326 -422 z "},"\"":{"ha":740,"x_min":83,"x_max":657,"o":"m 219 681 q 190 681 204 681 q 161 683 176 682 q 102 703 121 688 q 83 756 83 719 l 85 774 q 94 901 90 838 q 100 1028 99 964 l 100 1076 q 96 1222 100 1151 l 96 1240 q 114 1301 96 1285 q 181 1325 132 1318 q 289 1331 235 1332 q 397 1332 343 1331 l 401 1332 q 447 1315 432 1332 q 465 1263 461 1299 q 473 1183 471 1222 q 475 1104 475 1144 q 471 979 475 1042 q 466 874 468 926 q 461 769 464 822 q 393 694 457 701 q 306 685 349 690 q 219 681 264 681 m 568 696 q 514 743 526 701 q 511 754 511 749 q 511 765 511 760 l 513 793 q 525 943 519 868 q 531 1094 531 1018 q 522 1242 531 1167 l 521 1253 l 522 1264 q 542 1311 525 1293 q 583 1332 558 1329 l 586 1332 q 627 1316 610 1332 q 649 1269 644 1300 q 655 1196 653 1233 q 657 1114 657 1158 l 656 1032 q 651 919 656 983 q 640 788 647 856 q 638 763 639 776 q 632 739 636 750 q 575 696 618 696 l 568 696 z "},"#":{"ha":1561,"x_min":83,"x_max":1478,"o":"m 913 153 q 936 153 928 153 q 950 158 944 154 q 958 171 956 163 q 963 194 960 179 q 1013 416 982 307 q 1078 633 1044 525 q 1099 703 1089 668 q 1113 778 1110 738 l 826 788 q 803 776 808 788 q 796 751 799 765 q 778 680 790 725 q 751 581 765 635 q 720 470 736 528 q 690 361 704 413 q 665 270 675 310 q 651 211 654 231 l 646 178 q 656 162 646 164 q 690 158 665 160 q 801 155 746 156 q 913 153 856 154 m 881 -419 q 871 -419 875 -419 q 861 -417 867 -418 q 830 -394 842 -411 q 817 -354 818 -378 l 817 -349 q 821 -319 817 -333 q 832 -289 825 -304 q 847 -243 839 -272 q 867 -182 854 -214 q 890 -108 881 -146 q 910 -35 899 -71 q 915 -16 913 -25 q 918 4 918 -7 q 917 13 918 8 q 915 22 917 17 q 778 27 846 25 q 639 32 710 29 l 636 32 q 615 24 621 32 q 606 4 608 17 q 577 -112 590 -54 q 551 -231 564 -171 q 530 -313 542 -275 q 506 -387 518 -351 q 458 -421 492 -421 l 449 -421 q 399 -419 424 -419 q 350 -418 375 -418 l 265 -419 l 210 -418 q 136 -353 139 -415 q 143 -319 136 -337 q 169 -236 158 -281 q 190 -144 179 -192 q 205 -71 199 -108 q 222 3 211 -33 l 225 17 q 200 33 225 33 q 169 36 185 35 q 139 40 154 38 q 98 63 113 47 q 83 100 83 79 l 83 106 q 103 145 86 129 q 147 164 119 161 l 167 164 q 194 163 181 164 q 219 161 207 163 l 231 161 q 255 167 246 161 q 267 193 264 174 q 335 456 304 329 q 404 714 365 583 q 409 733 407 724 q 414 751 411 742 l 417 768 q 386 790 417 790 q 332 797 363 790 q 279 856 279 810 l 279 858 q 295 899 279 882 q 339 919 311 917 l 367 921 q 417 917 392 921 l 428 915 q 467 953 458 915 q 506 1108 486 1032 q 543 1254 525 1183 q 555 1293 549 1278 q 571 1317 561 1308 q 595 1328 581 1325 q 633 1331 610 1331 l 743 1331 q 793 1330 768 1331 q 843 1326 818 1329 q 904 1307 885 1321 q 924 1263 924 1293 q 922 1242 924 1253 q 917 1218 919 1232 q 886 1099 903 1161 q 853 971 869 1036 q 847 948 850 957 q 844 932 844 939 q 856 917 844 919 q 894 913 867 914 l 1106 908 q 1132 909 1122 908 q 1147 914 1142 910 q 1155 926 1151 918 q 1163 951 1158 935 q 1201 1101 1182 1026 q 1240 1253 1221 1176 q 1253 1296 1244 1275 q 1276 1323 1261 1314 q 1310 1332 1292 1332 l 1322 1331 q 1356 1310 1343 1325 q 1371 1271 1369 1294 l 1371 1265 q 1369 1247 1371 1256 q 1365 1228 1368 1238 l 1300 974 q 1295 957 1297 965 q 1293 940 1293 949 q 1296 925 1293 931 q 1318 921 1306 921 q 1334 922 1326 921 q 1350 924 1342 922 q 1381 925 1365 924 q 1411 926 1396 926 q 1478 871 1471 924 l 1478 865 q 1463 824 1478 842 q 1419 801 1447 807 q 1404 799 1413 799 q 1388 799 1396 799 q 1334 793 1360 796 q 1282 789 1308 790 q 1243 758 1251 789 q 1208 626 1228 692 q 1169 494 1189 560 q 1131 362 1150 428 q 1100 228 1113 296 l 1094 200 l 1093 181 q 1097 168 1093 171 q 1114 165 1101 165 l 1125 165 q 1165 169 1144 167 q 1207 171 1186 171 q 1283 114 1279 171 l 1283 108 q 1264 65 1283 82 q 1213 43 1244 47 q 1152 38 1182 40 q 1092 33 1122 36 q 1066 26 1076 32 q 1051 4 1056 21 q 1021 -111 1038 -54 q 990 -229 1004 -168 q 963 -315 979 -275 q 935 -383 946 -354 q 913 -410 928 -401 q 881 -419 899 -419 z "},"$":{"ha":1001,"x_min":83,"x_max":918,"o":"m 421 -421 q 363 -405 381 -421 q 343 -349 346 -389 q 338 -267 340 -308 q 336 -190 336 -226 l 336 -156 q 327 -115 336 -131 q 294 -93 318 -100 q 263 -82 279 -87 q 232 -69 247 -76 q 116 24 149 -33 q 83 169 83 82 l 83 194 q 104 240 85 224 q 149 257 124 257 q 190 241 172 257 q 208 197 208 225 l 208 176 q 238 86 208 118 q 326 29 268 54 q 393 14 361 14 q 456 30 426 14 q 521 74 485 46 q 539 98 533 83 q 547 128 544 113 q 551 168 551 146 q 543 228 551 197 q 518 286 535 258 q 475 336 501 314 q 411 371 449 358 q 337 396 374 383 q 261 415 300 408 q 144 508 181 432 q 101 694 101 600 q 168 922 101 810 q 272 1011 204 983 q 309 1038 299 1021 q 319 1079 319 1054 l 319 1090 q 317 1139 318 1115 q 315 1178 315 1163 q 316 1206 315 1192 q 318 1233 317 1219 q 326 1276 321 1260 q 341 1303 331 1293 q 369 1319 351 1314 q 411 1328 386 1325 q 489 1332 450 1332 q 550 1331 519 1332 q 611 1326 581 1329 q 667 1307 651 1324 q 685 1250 683 1290 l 686 1169 l 685 1101 q 692 1069 685 1081 q 722 1051 700 1058 q 795 1012 763 1040 q 851 947 828 983 q 886 871 874 910 q 899 803 899 832 l 899 799 q 881 747 897 767 q 839 725 865 726 l 836 725 q 794 741 811 725 q 772 786 776 757 q 735 890 767 842 q 667 932 708 932 l 650 931 q 553 894 596 919 q 490 811 510 869 q 469 692 469 750 q 485 599 469 643 q 508 561 493 575 q 551 540 524 547 q 671 506 613 525 q 782 450 729 488 q 882 329 846 406 q 918 171 918 253 q 913 108 918 139 q 893 49 907 76 q 831 -31 871 -1 q 747 -82 792 -60 q 700 -149 700 -106 l 701 -164 q 705 -236 704 -199 q 707 -312 706 -274 l 707 -326 q 687 -399 707 -379 q 610 -419 667 -418 l 515 -419 l 515 -421 l 421 -421 z "},"%":{"ha":1517,"x_min":83,"x_max":1433,"o":"m 781 -418 q 725 -417 753 -417 q 669 -417 697 -417 l 588 -415 l 547 -414 q 496 -394 515 -411 q 476 -351 476 -378 q 482 -322 476 -335 q 508 -241 499 -282 q 526 -159 518 -200 q 543 -77 535 -118 q 564 6 551 -36 q 604 169 590 86 q 638 336 618 253 q 688 518 658 431 q 790 881 743 700 q 883 1236 836 1063 q 889 1261 886 1249 q 896 1285 892 1274 q 958 1332 911 1332 l 1082 1332 q 1143 1332 1113 1332 q 1204 1329 1174 1332 q 1253 1308 1236 1326 q 1269 1261 1269 1290 q 1269 1250 1269 1256 q 1267 1238 1268 1244 q 1251 1165 1260 1201 q 1231 1093 1242 1129 q 1140 758 1185 929 q 1042 413 1096 586 q 992 208 1010 311 q 947 1 975 104 q 918 -116 932 -58 q 893 -232 904 -174 q 874 -308 886 -272 q 847 -379 861 -343 q 822 -410 840 -401 q 781 -418 804 -418 m 532 839 q 565 850 551 839 q 588 878 579 861 q 624 966 610 921 q 638 1060 638 1011 q 638 1075 638 1067 q 636 1092 638 1083 q 586 1181 629 1149 q 536 1200 560 1200 q 501 1188 517 1200 q 478 1150 486 1175 q 461 1077 465 1114 q 457 1001 457 1040 q 460 947 458 974 q 469 893 461 919 q 489 856 476 872 q 526 839 501 840 l 532 839 m 519 706 q 478 704 501 704 q 433 704 456 704 q 381 703 408 704 l 282 703 q 114 821 161 711 q 97 873 103 846 q 88 928 92 900 q 83 997 83 963 q 107 1169 83 1082 q 150 1260 119 1218 q 206 1309 175 1292 q 282 1326 238 1326 q 372 1329 326 1326 q 465 1332 418 1332 l 531 1329 q 667 1281 607 1324 q 750 1164 726 1238 q 767 1060 767 1114 q 766 1038 767 1049 q 764 1017 765 1028 q 744 924 757 969 q 711 836 732 879 q 635 742 682 776 q 519 706 589 708 m 1199 -290 q 1234 -276 1221 -290 q 1258 -244 1247 -262 q 1291 -161 1279 -203 q 1304 -87 1303 -119 q 1292 1 1304 -35 q 1243 60 1279 38 q 1201 72 1222 72 q 1169 62 1183 72 q 1149 31 1156 51 q 1122 -118 1122 -40 q 1126 -174 1122 -146 q 1136 -231 1129 -203 q 1153 -269 1142 -253 q 1189 -289 1165 -286 l 1199 -290 m 1194 -419 q 1097 -391 1142 -419 q 1026 -306 1051 -362 q 1002 -215 1007 -261 q 994 -124 997 -169 q 1015 38 997 -39 q 1027 75 1019 57 q 1043 110 1035 93 q 1109 183 1068 161 q 1194 204 1150 204 q 1304 174 1254 204 q 1403 70 1374 132 q 1433 -69 1433 8 l 1433 -86 q 1416 -192 1431 -140 q 1378 -293 1401 -244 q 1356 -329 1368 -312 q 1329 -361 1344 -346 q 1265 -406 1299 -392 q 1194 -419 1231 -419 z "},"&":{"ha":1067,"x_min":83,"x_max":983,"o":"m 311 -339 q 375 -304 347 -339 q 403 -269 390 -287 q 428 -233 415 -251 q 444 -210 439 -218 q 449 -194 449 -201 q 444 -179 449 -187 q 428 -157 439 -171 q 383 -84 401 -122 q 350 -6 365 -46 q 328 47 340 22 q 304 97 315 72 q 290 90 293 94 q 283 82 286 86 q 228 -47 244 19 q 211 -185 211 -112 l 211 -210 q 249 -306 213 -264 q 311 -339 275 -339 m 533 514 q 549 519 544 514 q 560 531 554 525 q 685 694 635 606 q 767 881 736 782 q 779 963 779 922 q 763 1057 779 1011 q 714 1143 746 1103 q 676 1176 699 1163 q 631 1189 654 1189 q 585 1174 607 1189 q 547 1124 563 1160 q 538 1101 542 1113 q 529 1076 533 1089 q 502 953 510 1014 q 494 829 494 892 q 496 772 494 801 q 500 715 497 743 q 511 613 506 664 q 531 514 517 563 l 533 514 m 311 -468 q 217 -445 263 -468 q 139 -375 172 -422 q 99 -299 114 -339 q 83 -215 85 -260 l 83 -186 q 115 24 83 -75 q 217 210 146 122 q 231 233 226 222 q 236 257 236 244 q 229 289 236 268 q 161 556 182 421 q 140 831 140 692 l 142 900 q 157 1026 144 964 q 192 1150 169 1088 q 411 1326 246 1307 q 456 1331 433 1329 q 500 1332 478 1332 q 675 1310 590 1332 q 790 1253 744 1293 q 861 1150 835 1213 q 894 1049 882 1100 q 906 947 906 999 q 898 866 906 907 q 871 785 890 825 q 760 576 822 675 q 607 397 697 478 q 578 342 578 368 q 589 300 578 325 q 627 211 610 257 q 667 113 644 165 q 731 205 700 161 q 790 293 761 249 q 803 312 797 303 q 815 329 808 321 q 861 349 835 349 q 892 340 876 349 q 915 317 907 332 q 924 285 924 301 q 921 264 924 271 q 910 242 917 253 q 896 221 903 232 q 824 115 860 168 q 751 11 789 63 q 736 -26 736 -11 q 747 -60 736 -42 q 835 -185 792 -129 q 938 -281 878 -240 q 949 -289 943 -285 q 958 -299 954 -293 q 983 -346 983 -319 l 981 -362 q 960 -399 974 -383 q 926 -417 947 -414 q 897 -418 911 -418 q 867 -418 882 -418 l 806 -418 q 771 -419 790 -418 q 733 -419 751 -419 q 699 -418 714 -419 q 676 -414 685 -417 q 633 -386 651 -404 q 593 -354 614 -368 q 562 -326 572 -339 q 533 -308 551 -314 l 478 -382 q 401 -447 444 -426 q 311 -468 357 -468 z "},"'":{"ha":558,"x_min":83,"x_max":475,"o":"m 224 681 q 195 681 208 681 q 167 683 182 682 q 103 703 122 686 q 83 758 83 719 l 85 785 q 95 903 92 844 q 101 1022 99 963 l 103 1093 q 101 1155 103 1125 q 96 1217 100 1185 l 94 1244 q 115 1302 94 1285 q 186 1325 136 1319 q 253 1331 219 1329 q 319 1332 286 1332 l 401 1331 q 467 1263 458 1331 q 473 1188 471 1225 q 475 1107 475 1150 l 474 1022 q 468 901 474 965 q 460 769 463 836 q 393 694 460 703 q 309 685 351 690 q 224 681 267 681 z "},"(":{"ha":717,"x_min":83,"x_max":633,"o":"m 433 -422 q 374 -422 404 -422 q 315 -419 344 -422 q 278 -401 292 -417 q 256 -367 265 -386 q 169 -144 207 -257 q 113 86 132 -32 q 90 281 94 188 q 83 431 86 374 l 83 490 q 86 640 83 569 q 96 774 89 710 q 115 899 103 839 q 144 1018 126 960 q 190 1147 164 1085 q 251 1267 217 1208 q 290 1311 268 1294 q 349 1331 313 1328 q 377 1332 364 1332 q 406 1332 390 1332 q 491 1329 449 1332 q 576 1321 533 1326 q 619 1302 604 1318 q 633 1263 633 1286 q 625 1226 633 1244 q 601 1185 614 1206 q 578 1144 589 1165 q 498 929 525 1040 q 463 701 471 818 q 454 483 454 593 q 460 310 454 396 q 478 136 465 224 q 530 -94 494 18 q 614 -314 565 -206 q 624 -333 618 -319 q 629 -365 629 -349 q 610 -406 629 -393 q 558 -421 592 -419 l 513 -422 l 433 -422 z "},")":{"ha":465,"x_min":83,"x_max":382,"o":"m 135 -417 q 97 -393 111 -411 q 83 -351 83 -375 l 83 -342 q 91 -310 85 -325 q 104 -279 97 -294 q 175 -86 143 -183 q 226 113 207 11 q 246 257 240 183 q 251 414 251 331 q 249 502 251 458 q 244 590 247 546 q 215 849 235 721 q 153 1103 196 976 q 134 1155 143 1129 q 111 1206 125 1181 q 93 1251 97 1229 l 93 1263 q 105 1304 93 1286 q 140 1329 117 1322 l 158 1332 q 192 1321 176 1332 q 217 1290 208 1310 q 246 1224 232 1257 q 271 1156 260 1190 q 321 975 300 1067 q 354 784 342 883 q 373 575 367 685 q 381 342 379 465 l 382 297 q 371 165 382 236 q 340 16 360 93 q 292 -142 319 -61 q 233 -303 265 -222 q 221 -336 226 -319 q 210 -369 215 -353 q 153 -419 194 -419 l 135 -417 z "},"*":{"ha":689,"x_min":83,"x_max":606,"o":"m 339 706 q 299 722 315 707 q 279 761 283 736 q 276 798 276 779 q 272 844 275 817 l 215 764 q 144 715 181 715 q 110 726 125 715 q 85 776 85 743 q 90 808 85 792 q 108 839 96 824 q 164 915 138 875 q 218 993 190 954 q 228 1018 228 1007 q 218 1042 228 1031 q 164 1118 190 1079 q 110 1196 138 1157 q 99 1210 104 1203 q 92 1224 94 1217 q 83 1258 83 1240 q 90 1287 83 1274 q 108 1308 96 1300 q 144 1319 126 1319 q 194 1297 172 1319 q 210 1277 203 1288 q 224 1257 217 1267 l 260 1211 q 266 1251 264 1233 q 274 1283 268 1268 q 299 1319 281 1307 q 336 1332 317 1332 q 375 1318 360 1332 q 397 1268 397 1297 l 396 1240 q 401 1208 396 1225 q 435 1239 421 1222 q 465 1271 450 1256 q 485 1291 476 1281 q 506 1308 494 1301 q 544 1321 524 1321 q 588 1303 569 1321 q 606 1261 606 1285 q 592 1222 606 1242 q 566 1190 581 1206 q 538 1160 551 1175 q 483 1099 510 1129 q 429 1040 457 1069 q 417 1017 417 1028 q 429 993 417 1006 q 494 925 463 960 q 557 854 525 890 q 576 833 567 843 q 593 813 585 824 q 606 774 606 792 q 586 731 606 750 q 546 714 569 714 q 506 726 526 714 q 477 753 489 738 q 450 781 465 768 q 433 799 440 789 q 413 811 426 808 q 404 786 403 800 q 401 758 406 772 q 339 706 383 706 z "},"+":{"ha":999,"x_min":83,"x_max":915,"o":"m 574 32 q 476 37 525 32 q 379 46 428 42 q 337 65 351 49 q 318 108 322 82 q 310 185 311 147 q 307 263 308 224 l 306 315 l 307 374 q 274 408 307 408 l 169 410 q 144 412 157 411 q 121 419 132 413 q 83 472 83 438 l 85 482 q 129 533 89 522 q 179 539 151 539 l 265 536 q 292 540 282 536 q 306 552 301 543 q 313 578 311 561 q 315 621 314 594 q 318 717 318 669 q 321 814 318 765 q 339 872 322 853 q 393 894 356 892 q 501 899 447 899 q 575 895 539 899 q 647 881 611 892 q 693 856 679 871 q 708 808 707 842 q 710 776 710 793 q 710 744 710 760 l 703 569 q 707 533 704 542 q 729 525 710 525 l 751 526 q 793 531 772 529 q 835 533 814 532 l 839 533 q 893 518 874 533 q 915 476 913 503 l 915 471 q 850 408 915 419 q 792 401 821 404 q 733 399 763 399 q 703 388 711 397 q 694 358 694 378 q 696 250 694 304 q 703 142 697 196 l 704 119 q 613 33 704 39 l 574 32 l 574 32 z "},",":{"ha":594,"x_min":83,"x_max":511,"o":"m 182 -660 q 171 -660 176 -660 q 160 -658 165 -660 q 115 -637 132 -654 q 97 -596 97 -619 l 97 -593 q 114 -553 97 -569 q 158 -533 131 -536 q 214 -529 186 -529 q 269 -528 242 -529 q 283 -526 276 -526 q 297 -526 290 -526 q 336 -524 321 -526 q 360 -512 351 -521 q 372 -490 368 -504 q 378 -451 375 -475 l 378 -443 q 353 -419 378 -419 l 243 -418 l 179 -419 q 110 -395 128 -419 q 89 -322 92 -371 q 85 -208 86 -264 q 83 -94 83 -153 q 154 -18 83 -22 q 244 -13 199 -15 q 335 -11 290 -11 q 388 -12 363 -11 q 442 -17 414 -14 q 492 -36 475 -19 q 510 -89 508 -53 l 511 -151 l 506 -454 q 496 -520 504 -487 q 471 -582 488 -553 q 426 -633 453 -614 q 360 -653 399 -651 q 271 -656 315 -654 q 182 -660 226 -657 z "},"-":{"ha":999,"x_min":83,"x_max":915,"o":"m 676 397 q 478 410 578 397 l 178 410 q 150 410 164 410 q 124 418 136 411 q 83 474 83 436 l 83 478 q 129 533 83 521 q 176 539 150 539 l 218 538 q 406 532 313 532 q 594 525 500 532 l 663 522 q 737 525 700 522 q 811 532 774 528 l 835 533 l 867 531 q 900 511 888 526 q 915 476 913 496 l 915 472 q 906 438 915 453 q 876 415 896 422 q 838 406 857 408 q 800 401 819 403 q 676 397 738 397 z "},".":{"ha":581,"x_min":83,"x_max":497,"o":"m 285 -418 q 223 -417 253 -418 q 161 -415 193 -417 q 93 -353 104 -414 q 90 -318 90 -336 q 89 -282 89 -300 q 86 -196 86 -239 q 83 -110 86 -153 l 83 -100 q 103 -36 83 -56 q 168 -12 122 -17 l 229 -10 l 290 -10 l 368 -8 l 407 -10 q 479 -83 475 -14 q 482 -153 482 -118 q 482 -222 482 -187 q 485 -269 483 -246 q 493 -315 486 -292 q 497 -339 497 -328 q 479 -385 497 -365 q 432 -408 461 -404 q 359 -416 396 -414 q 285 -418 322 -418 z "},"/":{"ha":947,"x_min":83,"x_max":864,"o":"m 197 -418 l 157 -417 q 103 -399 122 -414 q 83 -356 83 -383 q 90 -324 83 -342 q 114 -242 106 -283 q 128 -158 122 -200 q 142 -75 135 -117 q 161 7 149 -33 q 201 168 186 86 q 235 332 215 250 q 285 519 256 425 q 388 885 342 704 q 479 1240 435 1067 q 483 1257 482 1249 q 488 1274 485 1265 q 513 1319 497 1306 q 563 1332 529 1332 q 676 1331 619 1332 q 789 1328 732 1331 q 864 1264 864 1324 q 860 1232 864 1250 q 821 1078 840 1154 q 782 925 801 1001 q 725 710 754 822 q 658 483 696 597 q 618 339 635 411 q 586 193 601 267 q 547 17 568 104 q 510 -160 525 -71 q 492 -257 500 -208 q 465 -354 483 -306 q 438 -405 451 -392 q 389 -418 424 -418 l 197 -418 z "},":":{"ha":581,"x_min":83,"x_max":497,"o":"m 163 647 q 115 665 131 649 q 93 714 100 682 q 88 789 86 751 q 83 864 89 826 l 83 968 q 100 1025 85 1006 q 151 1047 115 1044 q 311 1056 231 1056 q 361 1056 336 1056 q 411 1053 386 1056 q 482 975 478 1046 q 483 940 483 957 q 483 906 483 922 l 483 836 q 485 792 483 814 q 493 749 486 771 q 497 724 497 736 q 478 677 497 696 q 428 654 460 658 q 358 647 392 649 q 289 644 324 644 l 163 647 m 282 -124 l 165 -124 q 117 -108 133 -122 q 93 -61 100 -93 q 90 -37 90 -50 q 88 -12 89 -25 q 85 91 86 40 q 85 193 85 142 l 85 197 q 158 276 85 272 q 242 281 200 278 q 325 283 283 283 q 403 279 363 283 q 461 258 443 276 q 482 200 479 240 q 483 168 483 185 q 483 136 483 151 l 483 72 q 485 23 483 47 q 494 -26 488 -1 q 497 -38 497 -33 q 497 -49 497 -43 q 478 -96 497 -76 q 425 -119 458 -115 q 353 -124 389 -124 q 282 -128 318 -125 l 282 -124 z "},";":{"ha":594,"x_min":83,"x_max":511,"o":"m 179 -369 q 165 -369 172 -369 q 151 -367 158 -369 q 113 -345 126 -361 q 99 -306 99 -329 q 113 -265 99 -282 q 153 -246 126 -249 q 222 -240 188 -242 q 292 -236 256 -239 l 331 -236 q 369 -206 358 -236 q 381 -160 381 -175 q 366 -137 381 -143 q 318 -132 351 -132 q 246 -132 282 -132 q 174 -131 210 -132 q 114 -111 133 -129 q 92 -53 94 -93 q 86 72 88 10 q 83 196 85 133 q 151 269 83 264 q 315 278 232 278 q 381 276 347 278 q 446 272 414 275 q 511 197 508 268 l 511 -49 q 510 -122 511 -85 q 503 -196 508 -160 q 496 -231 500 -214 q 485 -265 492 -249 q 432 -340 465 -314 q 346 -365 399 -365 l 179 -369 m 169 647 q 122 665 138 649 q 99 713 106 681 q 93 789 92 750 q 89 867 94 828 q 89 919 89 893 q 90 972 89 946 q 106 1025 92 1007 q 154 1047 121 1043 q 310 1056 231 1056 q 421 1051 364 1056 q 488 971 483 1047 q 489 937 489 954 q 489 901 489 919 l 489 832 q 490 792 489 813 q 499 750 492 771 q 503 724 503 735 q 483 677 503 696 q 431 653 464 658 q 300 644 365 644 l 169 647 z "},"<":{"ha":1143,"x_min":83,"x_max":1060,"o":"m 919 35 q 873 44 896 39 q 831 61 850 50 q 748 99 790 82 q 665 142 706 117 q 567 194 618 172 q 464 232 517 215 q 356 271 408 250 q 250 313 303 292 q 214 325 232 319 q 176 336 196 331 q 156 343 165 340 q 135 350 146 346 q 83 419 83 375 q 92 453 83 436 q 119 483 100 469 q 176 524 147 504 q 233 563 206 543 q 440 699 338 632 q 642 840 542 767 q 678 862 660 854 q 717 875 697 869 q 879 894 801 894 q 935 892 907 894 q 993 883 964 889 q 1034 869 1017 879 q 1058 833 1051 858 l 1060 819 q 1048 785 1060 800 q 1021 758 1036 769 q 804 608 914 679 q 585 461 694 536 l 453 371 q 521 348 492 360 q 579 325 550 336 q 712 263 649 300 q 843 197 775 225 q 881 181 863 189 q 921 168 900 172 q 967 150 947 164 q 996 96 996 131 q 992 72 996 85 q 970 43 985 54 q 936 32 956 32 l 919 35 z "},"=":{"ha":1003,"x_min":83,"x_max":919,"o":"m 657 217 q 579 218 618 217 q 501 222 540 219 q 343 228 422 228 q 185 231 264 228 q 157 232 171 231 q 131 236 143 233 q 96 259 108 243 q 83 294 83 275 l 83 297 q 97 334 83 318 q 133 356 110 350 q 152 358 143 358 q 172 358 161 358 l 472 358 q 671 346 572 346 q 826 354 749 346 l 842 356 q 871 350 858 356 q 915 293 915 335 q 878 236 915 254 q 851 228 864 229 q 824 225 838 226 q 657 217 740 217 m 658 539 q 581 540 619 539 q 504 544 543 542 q 346 550 425 550 q 188 553 267 550 q 160 554 174 553 q 133 560 146 556 q 89 617 89 574 l 89 622 q 103 657 90 642 q 136 678 115 672 q 156 681 146 681 q 175 681 165 681 l 481 681 q 679 668 581 668 q 835 676 757 668 l 846 676 q 865 675 856 676 q 885 669 875 674 q 919 618 917 656 l 919 614 q 890 561 919 578 q 858 551 875 553 q 825 547 842 549 q 658 539 742 539 z "},">":{"ha":1142,"x_min":83,"x_max":1058,"o":"m 210 15 q 174 26 190 15 q 150 57 157 38 q 146 79 146 67 q 182 138 146 117 q 195 143 189 140 q 208 147 201 146 q 322 190 268 163 q 431 246 376 217 q 553 305 490 278 q 692 356 617 332 l 425 533 q 280 631 351 582 q 138 732 208 679 q 121 743 129 738 q 106 756 113 749 q 83 804 83 778 q 133 863 83 847 q 197 875 165 872 q 260 878 228 878 l 282 878 q 334 874 308 876 q 386 867 360 871 q 522 810 458 857 q 704 683 611 743 q 889 560 797 622 l 1018 471 q 1047 444 1036 460 q 1058 406 1058 428 l 1057 392 q 1038 351 1053 367 q 1000 331 1022 336 q 921 306 960 321 q 843 276 882 292 q 766 244 804 260 q 688 217 728 229 q 574 175 629 200 q 465 118 518 150 q 231 18 354 53 q 210 15 217 15 z "},"?":{"ha":1003,"x_min":83,"x_max":919,"o":"m 538 96 q 452 101 494 96 q 368 114 410 107 q 332 133 344 117 q 319 175 319 150 l 321 190 q 337 294 326 243 q 371 393 347 344 q 458 598 418 489 q 514 828 499 707 q 526 907 519 868 q 538 986 532 946 q 540 1031 540 1008 q 542 1075 540 1053 l 542 1078 q 531 1120 542 1099 q 502 1158 519 1142 q 462 1186 485 1175 q 417 1197 439 1197 l 403 1196 q 333 1177 365 1190 q 278 1132 301 1164 q 229 1047 247 1090 q 211 957 211 1003 q 244 838 211 900 q 256 799 256 815 q 224 747 256 764 q 190 739 207 739 q 153 750 171 739 q 125 782 136 761 q 83 949 83 863 q 87 1000 83 975 q 97 1051 90 1025 q 213 1250 129 1179 q 428 1329 297 1321 l 468 1331 l 561 1331 q 635 1329 599 1331 q 689 1326 671 1328 q 777 1299 736 1321 q 849 1245 818 1278 q 898 1170 879 1213 q 919 1081 917 1128 l 919 1056 q 919 1022 919 1039 q 917 986 918 1004 q 855 649 899 813 q 738 340 811 485 q 713 267 719 304 q 700 190 706 229 q 692 155 697 169 q 678 131 688 140 q 656 115 669 121 q 621 104 642 108 q 538 96 579 96 m 401 -419 q 344 -401 363 -418 q 321 -346 326 -385 q 318 -324 318 -335 q 318 -301 318 -312 q 317 -205 318 -253 q 314 -108 317 -157 l 314 -96 q 388 -19 314 -21 q 472 -15 429 -17 q 556 -12 514 -12 q 593 -12 575 -12 q 631 -15 611 -12 q 690 -35 672 -18 q 710 -94 707 -53 q 712 -172 713 -133 q 713 -250 711 -210 q 714 -280 713 -265 q 721 -310 715 -294 q 725 -326 724 -318 q 726 -342 726 -335 q 650 -415 726 -404 q 637 -417 643 -417 q 624 -417 631 -417 l 401 -419 z "},"@":{"ha":1508,"x_min":83,"x_max":1425,"o":"m 871 339 q 929 341 900 339 q 988 350 958 343 q 1022 364 1015 357 q 1028 390 1028 371 l 1028 789 q 1019 867 1026 829 q 994 940 1013 904 q 972 972 985 958 q 938 988 960 985 l 908 989 q 822 975 863 989 q 792 958 806 969 q 771 928 778 947 q 758 897 764 913 q 750 865 753 881 q 730 722 735 793 q 725 576 725 650 l 729 374 q 738 351 729 356 q 761 344 747 346 q 816 340 789 342 q 871 339 843 339 m 492 -421 q 347 -397 415 -421 q 213 -331 278 -372 q 140 -258 165 -300 q 104 -164 114 -217 q 100 -125 101 -144 q 97 -86 99 -106 l 96 150 l 96 301 q 95 340 96 314 q 94 402 94 367 q 91 480 93 438 q 86 567 89 522 l 83 658 q 91 809 83 735 q 115 958 99 883 q 170 1092 132 1032 q 260 1206 208 1153 q 338 1257 293 1242 q 428 1286 383 1272 q 537 1314 482 1303 q 649 1328 592 1325 q 728 1331 689 1329 q 808 1332 768 1332 q 855 1331 832 1332 q 901 1329 878 1331 q 977 1328 940 1329 q 1057 1328 1014 1328 q 1081 1326 1068 1328 q 1106 1324 1093 1325 q 1208 1297 1164 1318 q 1286 1241 1253 1275 q 1343 1163 1319 1207 q 1383 1067 1367 1118 q 1398 1010 1393 1039 q 1406 953 1403 982 q 1419 823 1414 888 q 1425 692 1425 758 q 1421 588 1425 639 q 1415 417 1413 503 q 1407 249 1417 332 q 1382 78 1397 165 q 1340 -99 1367 -10 q 1278 -174 1325 -153 q 1175 -199 1231 -196 l 1164 -199 q 1126 -196 1149 -199 q 1083 -183 1104 -193 q 1047 -153 1063 -172 q 1029 -100 1031 -133 q 1027 -65 1028 -82 q 1026 -29 1026 -47 l 1025 190 q 1001 224 1025 224 q 988 222 993 224 q 933 213 960 215 q 878 210 906 210 q 822 211 850 210 q 767 215 794 213 l 749 217 q 731 210 733 217 q 728 181 728 203 l 728 -111 q 728 -131 728 -122 q 726 -150 728 -140 q 708 -206 724 -186 q 656 -228 692 -225 q 581 -235 618 -232 q 506 -237 543 -237 q 462 -236 483 -237 q 418 -232 440 -235 q 356 -164 356 -224 l 356 -160 q 361 1 360 -79 q 363 163 363 81 q 361 344 363 250 q 358 536 360 439 l 358 568 q 363 722 358 646 q 383 874 368 799 q 422 992 396 938 q 511 1078 449 1046 q 539 1091 525 1085 q 568 1100 553 1097 q 693 1119 631 1113 q 819 1126 756 1126 q 873 1125 847 1126 q 926 1121 899 1124 q 1110 996 1053 1110 q 1150 853 1144 925 q 1159 747 1157 800 q 1161 642 1161 694 l 1158 519 q 1154 347 1156 432 q 1153 174 1153 261 l 1154 -29 l 1154 -60 q 1160 -78 1154 -74 q 1172 -82 1165 -82 q 1192 -80 1179 -82 q 1207 -75 1204 -78 q 1224 -54 1218 -68 q 1233 -31 1231 -40 q 1249 69 1240 21 q 1267 167 1258 118 q 1281 265 1275 215 q 1286 368 1286 314 q 1291 535 1286 451 q 1296 701 1296 618 q 1296 740 1296 721 q 1294 778 1296 758 q 1286 878 1292 828 q 1274 976 1281 928 q 1200 1142 1258 1071 q 1160 1176 1181 1164 q 1113 1192 1140 1189 q 1064 1198 1094 1194 q 1003 1204 1033 1201 q 950 1209 974 1207 q 921 1211 926 1211 l 890 1211 q 856 1210 878 1211 q 811 1210 833 1210 q 769 1209 789 1210 q 744 1208 750 1208 q 567 1189 653 1208 q 394 1138 481 1169 q 351 1113 369 1128 q 317 1078 333 1097 q 240 928 258 1008 q 217 761 221 847 l 214 636 q 218 511 214 574 q 223 429 221 469 q 226 355 225 389 q 227 296 226 321 q 228 261 228 271 l 224 -58 q 253 -186 224 -137 q 356 -264 283 -235 q 419 -284 388 -276 q 483 -292 451 -292 l 699 -292 q 726 -291 713 -292 q 754 -289 740 -290 q 837 -281 796 -283 q 919 -275 878 -278 q 947 -273 928 -275 q 992 -268 967 -271 q 1046 -262 1017 -265 q 1104 -254 1075 -258 q 1254 -236 1172 -246 q 1289 -235 1272 -236 q 1322 -233 1306 -235 l 1338 -232 q 1371 -239 1353 -232 q 1410 -293 1410 -254 l 1410 -297 q 1374 -351 1410 -335 q 1341 -361 1358 -358 q 1306 -364 1324 -364 q 1011 -392 1149 -379 q 893 -402 953 -397 q 781 -410 833 -407 q 684 -416 728 -414 q 615 -418 640 -418 q 589 -419 607 -418 q 551 -419 571 -419 q 515 -420 532 -419 q 492 -421 497 -421 z "},"A":{"ha":1086,"x_min":83,"x_max":1003,"o":"m 465 651 q 469 519 465 585 q 476 388 474 454 q 483 361 476 369 q 511 350 490 353 q 544 348 528 349 q 578 347 561 347 q 677 352 628 347 q 776 361 726 357 q 807 366 796 363 q 824 376 818 369 q 831 396 829 383 q 833 429 832 408 q 834 460 833 444 q 835 492 835 476 q 828 674 835 583 q 815 856 822 764 q 805 935 811 896 q 789 1014 799 974 q 755 1099 778 1060 q 701 1172 732 1138 q 658 1203 682 1196 q 608 1211 635 1211 q 586 1210 597 1211 q 564 1208 575 1210 q 521 1184 532 1206 q 500 1140 510 1163 q 456 908 456 1031 q 456 892 456 900 q 457 875 457 883 q 460 773 458 824 q 465 669 463 722 l 465 651 m 103 358 q 92 625 97 493 q 85 890 88 757 q 84 901 85 896 q 83 913 83 907 q 101 1067 85 992 q 150 1214 117 1142 q 311 1332 197 1322 q 413 1340 363 1338 q 515 1342 464 1342 q 649 1338 582 1342 q 733 1313 696 1335 q 801 1256 771 1292 q 879 1138 847 1200 q 922 1004 911 1076 q 952 763 942 882 q 963 522 963 644 q 961 440 963 481 q 957 357 960 399 q 952 283 954 319 q 950 208 950 246 q 953 122 950 164 q 964 35 957 79 q 970 -76 968 -22 q 975 -178 972 -129 q 983 -272 978 -228 q 1000 -353 989 -317 q 1003 -368 1003 -364 q 974 -414 1003 -396 q 939 -425 956 -425 q 900 -414 919 -425 q 876 -387 885 -403 q 865 -353 868 -372 q 856 -296 861 -325 q 850 -237 850 -267 q 844 -100 849 -161 q 834 12 839 -39 q 825 106 829 63 q 821 193 821 150 l 821 206 q 794 233 821 233 l 785 233 q 687 224 736 229 q 589 218 638 218 q 519 222 554 218 l 513 222 q 486 190 486 222 q 488 77 488 133 q 488 -37 488 21 l 483 -325 q 465 -394 483 -374 q 397 -418 446 -415 q 276 -422 336 -422 q 242 -422 260 -422 q 208 -421 225 -421 q 133 -398 156 -419 q 110 -322 111 -376 q 108 -235 108 -278 q 108 -147 108 -192 l 113 117 q 110 238 113 178 q 103 358 107 297 z "},"B":{"ha":1029,"x_min":83,"x_max":946,"o":"m 553 -285 q 607 -275 581 -285 q 660 -253 633 -265 q 722 -215 694 -236 q 771 -159 750 -193 q 803 -75 792 -125 q 818 49 815 -25 l 817 72 q 815 91 815 82 q 815 111 815 100 q 815 130 815 121 q 814 149 815 139 q 743 240 810 240 q 701 233 726 240 q 603 208 653 218 q 503 190 553 197 q 476 178 482 188 q 469 151 469 169 l 463 -78 l 464 -78 q 464 -150 464 -114 q 465 -222 464 -186 q 476 -263 467 -253 q 517 -281 486 -274 q 553 -285 535 -285 m 478 333 q 516 351 497 343 q 554 368 535 358 q 651 441 613 396 q 704 549 689 486 q 733 701 722 625 q 743 854 743 776 q 739 940 743 897 q 728 1028 735 983 q 713 1081 722 1056 q 688 1131 703 1107 q 633 1178 664 1163 q 565 1194 601 1194 q 500 1181 529 1194 q 485 1169 489 1175 q 481 1151 481 1163 l 471 1018 q 467 925 468 971 q 467 832 467 879 q 469 619 467 725 q 472 406 472 514 l 472 353 q 474 345 472 350 q 478 333 475 340 m 414 -421 q 328 -418 371 -421 q 244 -406 286 -415 q 185 -386 213 -399 q 131 -361 158 -374 q 95 -323 103 -347 q 88 -271 88 -299 q 85 -147 86 -208 q 83 -22 83 -85 l 94 428 q 93 587 94 507 q 89 746 92 667 l 88 828 q 93 1022 88 925 q 103 1217 99 1119 q 120 1272 104 1253 q 176 1301 136 1290 q 271 1324 224 1314 q 367 1336 318 1333 l 424 1338 q 588 1325 506 1338 q 760 1244 693 1310 q 850 1074 826 1179 q 866 972 861 1022 q 871 869 871 921 q 866 763 871 817 q 854 654 861 708 q 839 560 847 607 q 815 469 831 514 q 790 421 804 444 q 761 372 776 397 q 792 364 778 367 q 818 356 806 361 q 899 294 868 332 q 938 200 931 256 q 946 82 946 142 q 944 43 946 69 q 941 -12 943 17 q 936 -67 939 -42 q 932 -106 933 -93 q 903 -201 925 -158 q 844 -281 882 -244 q 703 -378 778 -340 q 538 -418 628 -415 q 476 -420 506 -419 q 414 -421 446 -421 z "},"C":{"ha":1051,"x_min":83,"x_max":968,"o":"m 554 -419 q 494 -417 524 -418 q 432 -417 464 -417 l 363 -418 q 285 -403 319 -418 q 224 -364 250 -389 q 182 -307 199 -339 q 157 -239 165 -275 q 131 -114 142 -176 q 110 13 121 -51 q 95 130 100 71 q 88 251 90 189 q 85 381 86 314 q 83 521 85 447 l 85 675 q 85 750 85 713 q 88 824 85 788 q 136 1046 94 942 q 242 1247 178 1150 q 406 1336 301 1336 l 535 1336 l 604 1335 q 833 1238 736 1331 q 886 1170 865 1207 q 914 1089 907 1133 l 915 1069 q 910 1029 915 1046 q 886 991 903 1004 q 849 978 869 978 l 840 978 q 803 995 818 981 q 788 1036 788 1010 l 788 1044 q 752 1139 788 1106 q 668 1193 717 1172 q 644 1201 654 1199 q 625 1204 635 1204 q 599 1194 610 1204 q 574 1164 588 1185 q 482 978 515 1075 q 446 774 449 882 l 444 546 q 447 329 444 425 q 457 144 450 233 q 479 -28 464 57 q 514 -201 494 -114 q 517 -215 515 -208 q 521 -228 518 -221 q 590 -287 544 -287 q 631 -279 607 -287 q 710 -240 674 -262 q 774 -187 746 -218 q 818 -114 801 -156 q 838 -19 835 -72 l 839 28 q 835 107 839 68 q 826 186 832 146 q 824 214 825 200 q 822 243 822 228 q 822 256 822 250 q 824 268 822 261 q 844 310 828 294 q 885 326 861 326 l 888 326 q 926 312 910 326 q 947 271 943 297 q 961 147 954 208 q 968 22 968 85 q 967 -25 968 -1 q 963 -72 965 -49 q 926 -194 956 -139 q 849 -294 897 -250 q 717 -385 788 -350 q 558 -419 646 -419 l 554 -419 z "},"D":{"ha":988,"x_min":83,"x_max":904,"o":"m 503 -294 q 669 -179 603 -249 q 757 -1 736 -110 q 770 97 767 47 q 774 196 774 147 l 772 283 q 763 514 765 400 q 756 744 761 628 q 660 1100 747 933 q 601 1162 638 1143 q 522 1192 564 1181 q 508 1193 517 1193 q 482 1161 485 1193 l 476 1072 q 468 938 472 1004 q 464 803 464 871 q 465 739 464 771 q 469 675 467 707 q 474 546 469 610 q 476 230 475 390 q 486 -85 478 69 q 492 -185 489 -135 q 503 -294 494 -236 m 393 -421 q 310 -415 351 -418 q 226 -410 268 -412 q 178 -403 197 -408 q 149 -387 160 -399 q 134 -358 139 -376 q 125 -308 129 -339 q 112 -140 115 -224 q 104 29 108 -56 q 96 295 97 160 q 94 560 94 431 q 90 624 92 592 q 89 689 89 657 q 85 748 86 718 q 83 807 83 778 q 90 961 83 885 q 100 1115 96 1038 q 113 1247 104 1182 q 138 1313 118 1293 q 207 1333 158 1332 q 348 1331 278 1333 q 489 1325 418 1328 q 576 1309 535 1322 q 658 1276 618 1296 q 760 1185 722 1246 q 840 999 813 1096 q 881 801 868 903 q 892 630 892 715 q 903 458 893 544 l 901 310 l 903 221 l 904 182 q 897 66 904 124 q 879 -50 890 8 q 830 -176 865 -121 q 747 -283 794 -232 q 600 -390 681 -357 q 424 -422 519 -422 l 393 -421 z "},"E":{"ha":964,"x_min":83,"x_max":908,"o":"m 181 -435 q 110 -417 131 -435 q 89 -347 90 -400 q 87 -299 88 -324 q 86 -251 86 -275 l 88 -197 l 90 -37 q 87 115 90 39 q 83 267 83 190 q 88 390 83 328 l 88 479 q 95 673 92 576 q 99 864 99 769 q 94 1046 99 954 l 93 1122 q 94 1184 93 1154 q 96 1246 94 1214 q 114 1303 99 1286 q 169 1326 129 1321 q 286 1335 225 1335 l 318 1335 q 457 1335 389 1335 q 596 1336 525 1336 q 828 1332 713 1336 q 847 1329 838 1331 q 867 1325 857 1328 q 897 1303 886 1318 q 908 1269 908 1288 l 908 1261 q 860 1207 903 1218 q 845 1205 853 1206 q 831 1204 838 1204 l 821 1204 q 788 1206 804 1206 q 756 1206 772 1206 q 678 1204 717 1206 q 600 1201 639 1203 l 567 1204 q 533 1203 550 1204 q 500 1201 517 1201 q 472 1175 472 1201 l 471 1108 q 476 958 474 1033 q 478 807 478 883 q 475 623 478 715 q 467 456 472 531 q 465 425 465 440 q 465 394 465 410 l 465 375 q 467 356 465 363 q 474 344 468 349 q 490 339 479 340 q 518 338 500 338 l 550 336 l 613 338 q 646 337 629 338 q 679 331 663 336 q 713 306 701 324 q 725 269 725 289 q 724 253 725 258 q 703 217 719 232 q 667 203 688 203 l 654 204 q 628 208 640 207 q 601 208 615 208 l 538 207 l 496 207 q 472 199 478 207 q 465 174 465 192 l 465 163 q 468 105 468 133 q 468 47 468 76 q 467 -57 468 -12 q 466 -135 467 -101 q 465 -197 465 -169 q 464 -250 464 -224 q 468 -288 464 -279 q 493 -297 472 -297 l 813 -282 q 847 -287 832 -282 q 889 -344 889 -303 l 889 -347 q 851 -403 889 -385 q 822 -411 836 -410 q 792 -412 807 -412 q 619 -421 704 -415 q 447 -426 533 -426 q 425 -427 439 -426 q 396 -428 411 -428 l 361 -428 q 272 -431 317 -428 q 181 -435 226 -435 z "},"F":{"ha":992,"x_min":83,"x_max":908,"o":"m 181 -435 q 110 -417 131 -435 q 89 -347 90 -400 q 87 -299 88 -324 q 86 -251 86 -275 l 88 -197 l 90 -37 q 87 115 90 39 q 83 267 83 190 q 88 390 83 328 l 88 479 q 95 673 92 576 q 99 864 99 769 q 94 1046 99 954 l 93 1122 q 94 1184 93 1154 q 96 1246 94 1214 q 114 1303 99 1286 q 169 1326 129 1321 q 286 1335 225 1335 l 318 1335 q 457 1335 389 1335 q 596 1336 525 1336 q 828 1332 713 1336 q 847 1329 838 1331 q 867 1325 857 1328 q 897 1303 886 1318 q 908 1269 908 1288 l 908 1261 q 860 1207 903 1218 q 845 1205 853 1206 q 831 1204 838 1204 l 821 1204 q 788 1206 804 1206 q 756 1206 772 1206 q 678 1204 717 1206 q 600 1201 639 1203 l 567 1204 q 533 1203 550 1204 q 500 1201 517 1201 q 472 1175 472 1201 l 471 1108 q 476 958 474 1033 q 478 807 478 883 q 475 623 478 715 q 467 456 472 531 q 465 425 465 440 q 465 394 465 410 l 465 375 q 467 356 465 363 q 474 344 468 349 q 490 339 479 340 q 518 338 500 338 l 550 336 l 613 338 q 646 337 629 338 q 679 331 663 336 q 713 306 701 324 q 725 269 725 289 q 724 253 725 258 q 703 217 719 232 q 667 203 688 203 l 654 204 q 628 208 640 207 q 601 208 615 208 l 538 207 l 496 207 q 472 199 478 207 q 465 174 465 192 l 465 163 q 468 105 468 133 q 468 47 468 76 q 467 -57 468 -12 q 466 -135 467 -101 q 465 -197 465 -169 q 464 -250 464 -224 l 464 -272 q 463 -322 464 -292 q 460 -381 463 -353 q 442 -419 457 -411 q 417 -426 426 -426 q 397 -428 407 -428 q 379 -428 388 -428 l 361 -428 q 272 -431 317 -428 q 181 -435 226 -435 z "},"G":{"ha":1085,"x_min":83,"x_max":1001,"o":"m 371 -419 q 289 -405 325 -419 q 227 -365 253 -390 q 185 -308 201 -340 q 160 -242 168 -276 q 114 4 132 -121 q 90 236 96 118 q 83 499 83 354 q 86 667 83 583 q 92 836 89 751 q 140 1054 96 953 q 249 1251 185 1156 q 397 1335 301 1333 l 526 1336 q 585 1335 556 1336 q 642 1329 614 1333 q 797 1270 731 1315 q 903 1139 864 1225 q 917 1071 917 1107 q 913 1031 917 1051 q 889 990 906 1004 q 851 975 872 975 l 846 975 q 806 994 822 976 q 788 1039 790 1011 q 657 1196 775 1163 q 624 1201 639 1201 q 582 1171 601 1201 q 503 1027 538 1100 q 457 871 468 954 q 450 793 453 832 q 447 715 447 754 l 447 526 q 449 333 447 417 q 457 169 450 249 q 481 -20 464 74 q 517 -208 497 -114 q 524 -231 519 -219 q 536 -254 529 -243 q 592 -287 558 -287 q 601 -287 596 -287 q 613 -285 607 -287 q 694 -251 656 -272 q 765 -198 733 -229 q 815 -126 796 -167 q 838 -35 835 -85 l 840 24 q 838 100 840 65 q 833 169 836 135 q 822 199 831 190 q 790 208 813 208 q 755 206 772 207 q 719 200 738 204 l 688 190 q 657 186 671 186 q 592 232 604 186 q 590 247 590 238 q 649 314 590 290 q 763 335 706 333 l 885 339 q 953 320 931 339 q 976 258 976 301 l 976 243 q 972 119 972 181 q 978 -57 972 28 q 990 -226 983 -142 q 994 -263 992 -244 q 1000 -306 997 -282 l 1001 -333 q 996 -372 1001 -356 q 972 -407 989 -394 q 935 -419 956 -419 q 875 -369 888 -417 q 870 -335 872 -354 q 865 -285 868 -317 q 813 -326 838 -308 q 764 -358 788 -343 q 560 -419 672 -417 l 371 -419 z "},"H":{"ha":1061,"x_min":83,"x_max":978,"o":"m 188 -419 q 122 -357 131 -419 q 119 -308 119 -333 q 117 -258 118 -283 l 89 410 q 85 473 86 442 q 83 533 83 504 q 85 622 83 579 q 88 708 86 665 q 90 917 89 813 q 93 1125 90 1021 q 97 1183 94 1154 q 103 1240 100 1211 q 131 1314 110 1294 q 207 1335 153 1333 l 407 1335 q 486 1272 486 1332 q 481 1238 486 1254 q 468 1174 469 1206 q 467 1111 467 1143 q 461 878 464 993 q 458 660 458 764 q 463 394 458 528 q 470 335 464 350 q 504 319 476 319 q 523 320 513 319 q 547 322 533 321 q 606 326 576 325 q 664 328 635 328 q 684 328 675 328 q 703 329 693 328 q 742 337 728 333 q 765 348 757 340 q 776 367 774 356 q 778 400 778 379 l 776 500 q 779 644 776 574 q 786 775 782 714 q 791 892 790 833 q 792 1011 792 951 l 792 1197 q 790 1219 792 1208 q 786 1242 788 1231 l 785 1257 q 793 1296 785 1276 q 854 1338 813 1338 l 858 1338 q 917 1288 906 1335 q 920 1257 919 1272 q 921 1226 921 1242 q 917 878 921 1050 q 906 544 914 707 l 904 475 q 908 378 904 425 q 910 357 910 367 q 915 339 910 347 q 931 288 931 313 q 919 246 931 267 q 914 222 914 236 q 915 203 914 213 q 918 185 917 194 l 975 -321 q 977 -337 976 -329 q 978 -354 978 -346 q 960 -400 975 -382 q 922 -421 946 -418 l 914 -421 q 873 -407 890 -421 q 851 -365 856 -393 q 839 -281 844 -324 q 829 -196 833 -239 q 810 -6 818 -92 q 792 174 801 81 q 785 203 789 196 q 771 210 782 210 l 743 207 q 627 199 685 201 q 511 193 569 196 q 479 188 486 192 q 472 165 472 185 l 493 -286 l 493 -353 q 426 -419 486 -419 q 375 -421 400 -421 q 325 -421 350 -421 l 188 -419 z "},"I":{"ha":560,"x_min":83,"x_max":476,"o":"m 228 -421 q 198 -417 213 -421 q 168 -410 183 -414 q 113 -336 115 -394 q 92 72 101 -131 q 83 479 83 274 q 85 633 83 556 q 90 796 86 711 q 95 1010 96 904 q 97 1224 94 1115 q 121 1310 99 1286 q 201 1333 143 1333 l 379 1326 q 441 1304 424 1322 q 458 1242 458 1286 l 458 1204 q 460 1089 458 1146 q 461 975 461 1032 q 460 925 461 960 q 457 844 458 890 q 453 747 456 799 q 449 647 450 696 q 446 558 447 599 q 444 494 444 518 q 446 382 444 438 q 451 271 447 326 q 453 228 453 260 q 453 161 453 196 l 453 75 q 459 -71 453 1 q 472 -218 465 -143 q 476 -293 476 -256 l 475 -335 q 394 -415 469 -410 q 311 -419 353 -418 q 228 -421 269 -421 z "},"J":{"ha":972,"x_min":56,"x_max":890,"o":"m 614 -424 q 531 -422 572 -422 q 449 -418 490 -421 q 366 -408 407 -415 q 285 -386 325 -401 q 141 -295 197 -353 q 69 -142 85 -237 q 59 -62 63 -101 q 56 15 56 -24 q 57 61 56 39 q 63 107 58 83 q 70 170 68 139 q 75 233 72 201 q 76 251 76 242 q 79 267 76 260 q 103 308 86 293 q 143 324 119 324 l 150 324 q 190 303 174 321 q 206 258 206 286 l 206 253 q 200 184 203 218 q 192 115 197 150 q 187 63 189 89 q 185 11 185 38 q 188 -58 185 -24 q 199 -128 192 -93 q 283 -244 215 -208 q 326 -263 304 -256 q 371 -276 347 -271 q 403 -281 388 -281 q 465 -258 440 -281 q 496 -194 489 -235 q 503 -144 500 -169 q 507 -94 506 -119 q 508 238 507 69 q 508 388 508 308 q 509 547 508 467 q 510 706 510 626 q 510 857 510 785 q 510 1048 510 965 q 508 1169 510 1131 l 508 1208 q 508 1228 508 1219 q 510 1247 508 1238 q 596 1331 518 1329 l 665 1332 q 790 1328 728 1332 q 863 1300 843 1322 q 882 1229 882 1278 l 881 1171 q 883 1075 881 1122 q 888 979 885 1028 q 889 946 888 969 q 890 891 889 926 q 890 800 890 856 q 890 665 890 744 q 888 476 889 585 q 884 227 886 368 q 879 -92 882 86 q 872 -183 878 -137 q 856 -272 867 -228 q 835 -318 849 -299 q 803 -354 822 -337 q 721 -405 764 -386 q 628 -424 678 -424 l 614 -424 z "},"K":{"ha":1019,"x_min":83,"x_max":936,"o":"m 182 -419 q 117 -364 129 -419 q 113 -336 113 -350 l 83 263 q 85 421 83 344 q 85 486 85 453 q 87 551 86 519 q 88 608 88 582 q 88 654 88 635 l 88 690 q 85 975 85 833 q 85 1251 85 1117 q 99 1308 85 1289 q 150 1331 114 1326 q 210 1335 181 1333 q 269 1336 239 1336 q 335 1335 301 1336 q 400 1331 368 1333 q 453 1309 436 1328 q 474 1254 469 1290 q 475 1230 475 1243 q 475 1206 475 1217 q 475 876 475 1043 q 476 539 475 708 l 476 504 q 492 525 489 515 q 499 544 496 535 q 621 894 556 713 q 760 1258 686 1075 q 769 1281 765 1269 q 781 1304 774 1293 q 835 1332 800 1332 q 844 1332 839 1332 q 854 1329 849 1332 q 894 1268 894 1314 q 890 1240 894 1253 q 881 1214 886 1228 q 734 828 803 1019 q 606 458 665 638 q 574 372 590 414 q 540 288 558 329 q 533 258 533 269 q 544 225 533 244 q 692 -28 622 86 q 842 -244 763 -143 q 886 -286 860 -268 q 899 -295 893 -290 q 913 -306 906 -300 q 936 -356 936 -326 q 925 -390 936 -375 q 874 -418 907 -418 q 846 -411 863 -418 q 786 -372 813 -396 q 736 -319 760 -349 q 632 -172 683 -249 q 528 8 581 -96 q 511 35 521 22 q 488 68 501 49 q 486 32 486 49 q 486 -1 486 15 q 488 -70 486 -37 q 493 -135 490 -103 q 500 -229 497 -182 q 503 -324 503 -276 l 503 -346 q 484 -401 500 -383 q 432 -419 468 -418 q 379 -421 406 -421 q 326 -421 353 -421 l 182 -419 z "},"L":{"ha":1008,"x_min":83,"x_max":981,"o":"m 200 -419 q 111 -325 111 -419 l 111 -294 q 99 -53 111 -172 q 88 188 88 65 l 88 239 q 85 343 88 292 q 83 442 83 394 q 85 838 85 640 q 94 1235 86 1036 q 100 1283 96 1264 q 115 1312 104 1301 q 145 1327 126 1322 q 194 1333 164 1332 l 239 1335 q 328 1332 283 1335 q 417 1329 372 1329 l 421 1329 q 469 1312 453 1329 q 489 1263 485 1294 l 489 1235 q 483 1001 482 1117 q 479 768 483 886 l 479 546 q 481 376 479 458 q 485 207 482 294 q 494 13 488 110 q 504 -181 500 -83 l 503 -236 q 505 -260 503 -249 q 514 -279 507 -271 q 528 -287 521 -286 q 546 -292 536 -289 q 577 -295 561 -294 q 608 -296 593 -296 l 690 -296 q 767 -294 729 -296 q 842 -285 804 -292 q 881 -281 860 -281 q 929 -286 907 -281 q 967 -310 953 -293 q 981 -351 981 -328 l 981 -357 q 915 -412 976 -408 q 803 -417 858 -415 q 690 -418 747 -418 q 633 -418 663 -418 q 576 -417 604 -418 l 556 -417 q 378 -418 467 -417 q 200 -419 290 -419 z "},"M":{"ha":1175,"x_min":83,"x_max":1119,"o":"m 181 -424 q 115 -360 124 -424 q 111 -310 113 -335 q 108 -260 110 -285 q 97 44 104 -108 q 89 349 90 196 q 86 438 89 393 q 83 526 83 482 l 86 1222 q 175 1324 89 1315 q 266 1333 221 1329 q 357 1336 311 1336 q 382 1336 369 1336 q 408 1335 394 1336 q 471 1315 453 1332 q 496 1256 489 1299 q 581 906 528 1092 q 693 529 633 721 l 703 507 q 715 519 713 514 q 718 531 717 524 q 816 915 763 728 q 918 1271 869 1103 q 986 1336 935 1336 l 994 1336 q 1040 1309 1022 1332 q 1060 1251 1058 1286 l 1060 929 l 1058 842 q 1062 638 1058 739 q 1071 435 1065 538 q 1082 199 1078 322 q 1090 -37 1086 75 q 1095 -123 1093 -81 q 1100 -208 1097 -165 q 1106 -272 1103 -240 q 1117 -335 1108 -303 l 1119 -353 q 1103 -395 1119 -376 q 1064 -419 1088 -414 q 1049 -421 1058 -421 q 1013 -408 1029 -421 q 988 -371 996 -394 q 980 -341 982 -356 q 976 -311 978 -326 q 949 232 961 -44 q 931 776 938 508 q 928 789 929 783 q 924 801 926 794 q 896 723 906 763 q 876 643 886 683 q 834 462 854 551 q 794 281 814 372 q 786 249 790 265 q 775 217 782 232 q 751 190 765 199 q 719 182 736 182 q 667 211 688 182 q 654 235 658 222 q 646 263 650 249 q 565 508 607 386 q 490 756 524 629 q 487 769 488 763 q 479 779 486 775 l 476 779 q 472 774 472 779 q 470 672 471 722 q 469 569 469 621 q 475 414 469 490 q 481 258 481 338 q 493 -224 481 15 q 495 -272 494 -247 q 499 -322 496 -297 l 500 -337 q 481 -392 500 -374 q 424 -415 463 -410 q 304 -422 364 -422 q 185 -424 244 -421 l 181 -424 z "},"N":{"ha":1039,"x_min":83,"x_max":983,"o":"m 444 -421 q 313 -419 378 -421 q 183 -417 249 -418 q 114 -364 129 -417 q 106 -314 106 -339 q 99 -228 103 -271 q 94 -143 94 -186 q 93 -62 94 -110 q 91 40 92 -14 q 89 149 90 93 q 86 256 88 206 q 84 347 85 306 q 83 411 83 388 l 83 433 l 85 499 q 88 647 88 574 q 89 794 89 719 q 89 929 89 863 q 86 1058 89 996 l 86 1086 q 88 1155 86 1121 q 89 1224 89 1189 l 89 1256 q 108 1307 89 1288 q 160 1329 126 1326 q 274 1333 215 1333 q 353 1332 314 1333 q 432 1328 392 1331 q 483 1310 467 1325 q 503 1263 499 1294 q 594 834 535 1046 q 713 407 653 622 q 758 247 735 326 q 804 88 781 168 q 811 67 807 76 q 819 46 815 57 q 824 73 822 60 q 825 99 825 86 q 824 140 825 119 q 819 179 822 160 q 799 494 808 338 q 789 811 789 651 l 788 1061 q 788 1144 788 1103 q 792 1221 789 1185 q 793 1249 793 1235 q 796 1276 793 1263 q 818 1317 801 1303 q 858 1331 835 1331 l 861 1331 q 902 1312 886 1328 q 919 1268 918 1296 l 918 1146 q 917 1039 917 1094 q 917 926 917 983 q 921 634 917 779 q 936 342 925 489 q 960 15 949 176 q 981 -303 972 -147 q 983 -319 982 -311 q 983 -336 983 -328 q 919 -417 979 -404 l 899 -419 q 833 -374 856 -419 q 806 -314 818 -344 q 779 -251 793 -283 q 693 1 728 -132 q 618 269 658 135 q 560 472 588 371 q 504 675 532 574 q 499 691 501 683 q 490 704 497 699 q 485 694 485 703 l 485 658 q 483 512 485 583 q 482 376 482 440 q 483 321 482 364 q 484 219 483 278 q 485 91 485 160 q 488 -42 486 22 q 492 -161 490 -107 q 497 -244 494 -215 q 501 -292 500 -268 q 507 -339 501 -315 l 510 -360 q 493 -403 510 -387 q 444 -421 476 -419 z "},"O":{"ha":1014,"x_min":83,"x_max":931,"o":"m 614 -285 q 668 -243 644 -285 q 684 -208 678 -225 q 697 -171 690 -190 q 772 143 747 -15 q 801 467 796 301 l 801 476 q 770 810 801 650 q 686 1131 739 971 q 681 1143 683 1138 q 675 1156 678 1149 q 613 1193 651 1193 q 581 1185 597 1193 q 554 1163 565 1178 q 518 1096 531 1131 q 496 1025 506 1061 q 456 788 467 907 q 438 547 444 669 q 435 492 435 519 q 435 436 435 464 q 457 129 435 276 q 521 -164 479 -18 q 536 -209 528 -187 q 560 -250 544 -231 q 614 -285 586 -285 m 368 -419 q 312 -405 336 -419 q 265 -369 288 -390 q 209 -293 229 -335 q 175 -206 189 -251 q 106 112 129 -47 q 83 442 83 271 q 88 578 83 508 q 108 822 94 701 q 151 1061 122 942 q 263 1276 183 1185 q 299 1310 279 1297 q 346 1325 318 1322 q 421 1331 383 1328 q 497 1333 458 1333 q 585 1328 542 1333 q 671 1311 628 1324 q 758 1260 725 1296 q 808 1171 792 1224 q 877 926 847 1049 q 919 674 907 803 q 927 591 924 632 q 931 510 931 550 l 931 479 q 898 126 924 297 q 818 -212 872 -46 q 803 -258 811 -236 q 783 -300 794 -279 q 628 -412 738 -397 q 559 -419 593 -418 q 490 -421 525 -421 l 368 -419 z "},"P":{"ha":972,"x_min":83,"x_max":889,"o":"m 525 333 q 544 335 533 333 q 568 339 554 336 q 576 340 572 339 q 583 343 581 342 q 695 410 658 361 q 742 529 732 458 q 752 606 749 569 q 758 663 756 643 q 760 676 760 669 q 760 690 760 683 q 759 716 760 704 q 758 738 758 728 q 703 1042 751 894 q 644 1135 683 1100 q 551 1192 606 1171 q 529 1197 540 1194 q 507 1201 518 1199 l 496 1203 q 472 1176 472 1203 l 474 1117 q 478 930 476 1021 q 483 767 481 839 q 483 605 483 700 q 485 408 483 510 q 492 349 485 365 q 525 333 499 333 m 210 -422 q 195 -422 203 -422 q 181 -419 188 -421 q 103 -329 104 -407 q 97 -145 99 -240 q 95 46 96 -50 q 94 237 94 142 q 94 419 94 332 l 94 618 q 94 758 94 689 q 90 896 93 826 q 87 1049 88 972 q 83 1201 86 1125 l 83 1224 q 106 1305 85 1282 q 186 1332 128 1328 l 239 1333 l 342 1332 l 453 1332 l 508 1329 q 708 1254 626 1315 q 826 1076 789 1193 q 889 735 881 908 l 889 722 q 889 690 889 711 q 886 632 889 668 q 878 565 883 604 q 865 486 872 526 q 831 385 856 435 q 766 297 807 336 q 667 234 725 258 q 532 208 608 210 q 497 204 504 208 q 490 179 490 200 l 490 69 q 490 -29 490 21 q 489 -129 489 -79 q 489 -174 489 -151 q 490 -218 489 -196 l 496 -343 q 440 -411 496 -397 q 419 -415 429 -414 q 397 -417 408 -415 q 308 -420 353 -419 q 219 -422 264 -421 l 210 -422 z "},"Q":{"ha":1013,"x_min":83,"x_max":929,"o":"m 610 -282 q 638 -274 622 -282 q 651 -254 651 -265 q 647 -240 651 -247 q 640 -226 643 -233 q 594 -118 611 -174 q 566 -6 576 -62 q 549 109 556 51 q 539 225 543 167 q 540 253 539 239 q 544 279 540 267 q 567 315 550 303 q 606 326 583 326 q 664 275 653 324 l 667 249 q 677 121 669 183 q 696 -6 685 58 q 703 -40 699 -22 q 725 -79 708 -58 l 733 -43 l 758 71 q 801 474 801 265 q 773 798 801 638 q 690 1118 744 958 q 684 1137 688 1128 q 676 1154 681 1146 q 614 1194 653 1194 q 554 1163 579 1194 q 519 1097 531 1132 q 497 1026 507 1063 q 450 748 460 888 q 435 465 440 608 l 433 414 q 459 110 433 257 q 528 -183 485 -37 q 576 -268 543 -235 q 610 -282 592 -282 m 868 -449 q 833 -440 850 -449 q 800 -419 815 -431 q 771 -393 785 -407 q 753 -379 761 -385 q 733 -374 744 -374 q 704 -385 719 -374 q 665 -404 686 -399 q 621 -412 643 -410 q 544 -418 582 -417 q 468 -419 506 -419 l 371 -419 q 317 -406 342 -419 q 272 -374 293 -393 q 215 -302 236 -342 q 181 -218 193 -262 q 110 85 136 -67 q 83 397 83 236 q 88 506 83 451 q 103 788 89 649 q 153 1064 118 926 q 196 1178 168 1126 q 264 1279 224 1231 q 299 1310 279 1299 q 343 1325 318 1322 q 417 1331 379 1328 q 490 1333 454 1333 q 577 1329 535 1333 q 663 1314 619 1325 q 810 1168 774 1286 q 876 924 847 1046 q 919 676 906 803 q 927 580 925 628 q 929 483 929 532 q 900 133 929 303 q 822 -204 871 -36 q 815 -228 818 -219 q 813 -244 813 -237 q 819 -264 813 -256 q 844 -287 826 -272 q 875 -312 860 -300 q 904 -337 890 -324 q 929 -387 929 -361 q 917 -422 929 -406 q 868 -449 899 -449 z "},"R":{"ha":985,"x_min":83,"x_max":929,"o":"m 535 331 q 638 358 589 331 q 711 435 686 386 q 731 483 724 458 q 743 535 739 508 q 749 569 746 547 q 753 613 751 590 q 756 652 756 635 q 757 675 757 669 q 753 757 756 715 q 749 839 751 799 q 731 951 744 897 q 697 1060 717 1006 q 665 1113 686 1088 q 617 1158 644 1138 q 560 1190 590 1178 q 501 1203 531 1201 l 497 1203 q 471 1174 471 1203 l 472 1101 q 478 919 475 1010 q 483 736 481 828 q 485 687 485 711 q 485 638 485 663 l 483 504 l 483 364 q 489 341 483 349 q 511 332 494 333 l 535 331 m 210 -425 q 110 -329 110 -425 l 110 -304 q 108 -252 110 -278 q 103 -200 106 -226 q 97 150 101 -12 q 93 471 93 313 l 94 622 q 92 826 94 725 q 86 1028 89 926 q 84 1103 85 1065 q 83 1178 83 1140 l 83 1233 q 178 1332 83 1328 q 268 1336 222 1335 q 358 1338 314 1338 q 438 1336 399 1338 q 515 1329 476 1335 q 707 1256 628 1315 q 824 1086 786 1196 q 871 894 856 990 q 888 701 886 799 l 885 639 q 877 573 882 611 q 865 494 872 535 q 791 319 849 390 q 628 215 733 247 q 617 211 622 214 q 600 204 611 208 q 638 157 615 189 q 684 84 660 125 q 735 -4 708 43 q 785 -95 761 -51 q 828 -176 808 -139 q 860 -235 847 -212 q 876 -260 867 -249 q 894 -285 885 -272 q 908 -303 901 -294 q 919 -322 914 -311 q 929 -358 929 -340 q 910 -403 929 -383 q 869 -418 892 -418 q 824 -399 843 -418 q 778 -345 797 -375 q 739 -283 758 -315 q 690 -191 714 -242 q 638 -88 665 -140 q 583 13 611 -36 q 521 97 554 61 q 511 106 515 101 q 501 117 507 111 q 491 107 493 113 q 489 96 489 101 l 490 76 l 500 -343 q 483 -397 500 -381 q 426 -417 467 -412 q 318 -422 372 -419 q 210 -425 264 -425 z "},"S":{"ha":1042,"x_min":83,"x_max":958,"o":"m 550 -421 q 469 -417 508 -421 q 344 -383 400 -412 q 243 -303 289 -353 q 135 -138 172 -226 q 97 54 97 -50 l 97 60 q 97 124 97 92 q 99 188 97 156 q 158 256 103 251 l 161 256 q 228 196 213 256 l 231 175 q 229 158 231 167 q 226 140 228 149 l 224 85 q 232 -14 224 36 q 282 -143 246 -86 q 372 -247 318 -200 q 410 -271 390 -262 q 469 -285 439 -285 q 546 -253 515 -285 q 578 -164 576 -221 l 578 -142 q 547 32 578 -51 q 519 106 533 69 q 489 178 506 142 q 479 194 486 182 q 463 219 472 206 q 443 246 453 232 q 425 268 433 260 q 394 302 410 285 q 363 335 378 319 q 335 363 347 351 q 317 381 322 375 q 269 428 293 403 q 219 482 244 454 q 136 599 167 538 q 94 711 106 660 q 86 780 89 746 q 83 849 83 814 q 88 928 83 888 q 138 1097 99 1019 q 240 1240 176 1175 q 330 1307 281 1283 q 439 1331 379 1331 l 513 1331 q 573 1331 543 1331 q 619 1332 603 1332 l 642 1332 q 785 1290 728 1332 q 875 1174 843 1247 q 928 906 928 1046 q 904 711 928 813 q 881 669 897 683 q 843 656 865 656 q 826 657 832 656 q 791 679 804 663 q 778 719 778 696 l 781 740 q 797 893 797 817 q 788 1015 797 958 q 769 1099 781 1058 q 722 1171 757 1139 q 669 1197 694 1197 q 628 1185 653 1197 q 603 1170 615 1178 q 583 1151 592 1163 q 515 1065 544 1111 q 474 961 486 1018 q 461 844 461 903 q 465 778 461 811 q 475 713 468 746 q 488 679 478 703 q 504 644 497 656 q 526 614 514 631 q 553 581 538 597 q 606 522 581 551 q 660 469 632 493 q 721 410 688 446 q 782 340 754 375 q 803 313 792 329 q 826 279 815 296 q 844 249 836 263 q 854 232 851 236 q 892 145 875 189 q 925 57 910 101 q 958 -137 958 -39 q 958 -167 958 -153 q 956 -196 957 -181 q 933 -276 951 -237 q 885 -347 915 -315 q 813 -397 856 -378 q 719 -418 771 -417 l 550 -421 l 550 -421 z "},"T":{"ha":969,"x_min":28,"x_max":886,"o":"m 456 -426 q 398 -424 426 -426 q 340 -417 369 -422 q 295 -394 308 -410 q 279 -343 282 -378 q 259 -20 267 -181 q 251 304 251 140 l 253 411 q 256 697 256 554 q 264 985 257 839 q 270 1077 267 1032 q 279 1160 274 1122 l 279 1165 q 272 1192 279 1183 q 244 1203 264 1200 q 174 1207 208 1207 q 148 1207 161 1207 q 122 1206 135 1207 q 97 1207 110 1207 q 74 1210 85 1207 q 40 1231 53 1215 q 28 1267 28 1246 l 28 1271 q 67 1328 28 1308 q 104 1335 85 1335 l 121 1333 q 403 1331 264 1332 q 686 1331 543 1331 l 781 1331 q 836 1324 806 1331 q 873 1301 860 1317 q 886 1264 886 1285 l 885 1254 q 865 1217 882 1232 q 822 1201 849 1203 l 700 1201 q 674 1201 683 1201 q 661 1196 665 1200 q 655 1183 657 1192 q 651 1157 653 1174 q 633 903 636 1031 q 629 650 629 776 l 629 422 q 627 324 628 374 q 626 226 626 275 q 628 97 626 161 q 635 -33 629 32 q 640 -169 640 -101 q 651 -304 640 -236 q 653 -313 653 -308 q 653 -322 653 -318 l 651 -349 q 633 -394 647 -378 q 589 -415 618 -411 q 522 -424 556 -421 q 456 -426 489 -426 z "},"U":{"ha":1022,"x_min":83,"x_max":939,"o":"m 461 -424 q 386 -420 424 -424 q 313 -411 349 -417 q 202 -358 243 -403 q 142 -250 161 -314 q 119 -144 125 -197 q 110 -36 113 -90 l 86 365 q 83 447 83 392 q 83 556 83 501 q 83 634 83 600 q 85 678 83 668 q 99 979 90 843 q 121 1246 108 1115 q 146 1308 126 1290 q 211 1329 165 1326 q 284 1334 247 1332 q 357 1336 321 1336 q 383 1336 371 1336 q 410 1335 396 1336 q 477 1315 458 1331 q 496 1257 496 1299 l 494 1235 q 483 1106 489 1169 q 474 975 478 1042 q 464 809 468 892 q 456 643 460 726 l 456 618 q 456 562 456 596 q 458 492 457 528 q 459 424 458 457 q 461 372 460 392 q 474 162 468 267 q 486 -51 479 57 q 492 -110 489 -81 q 500 -168 496 -139 q 504 -190 501 -179 q 510 -211 507 -200 q 533 -253 518 -235 q 572 -276 547 -272 l 582 -278 q 619 -262 604 -278 q 646 -228 633 -247 q 697 -117 679 -175 q 731 1 715 -58 q 769 239 758 121 q 783 478 781 357 q 783 513 783 496 q 786 549 783 531 q 800 711 796 629 q 806 876 804 793 q 807 1043 807 958 q 808 1215 807 1128 q 809 1245 808 1231 q 813 1275 810 1260 q 835 1317 819 1303 q 875 1332 851 1332 l 883 1332 q 939 1261 939 1325 q 936 1102 938 1176 q 935 956 935 1028 q 929 745 933 850 q 914 535 925 640 q 906 391 907 463 q 899 246 906 319 q 869 39 888 142 q 817 -164 850 -64 q 786 -238 804 -203 q 747 -308 768 -274 q 684 -374 722 -351 q 600 -408 646 -397 q 531 -420 565 -417 q 461 -424 497 -424 z "},"V":{"ha":1017,"x_min":83,"x_max":933,"o":"m 435 -424 q 392 -424 414 -424 q 350 -421 371 -424 q 316 -416 329 -419 q 293 -405 303 -412 q 277 -385 283 -397 q 264 -351 271 -372 q 252 -303 256 -328 q 249 -253 249 -278 q 237 -137 247 -194 q 218 -22 226 -81 q 158 363 186 174 q 117 729 131 553 q 83 1222 96 976 q 83 1244 83 1233 q 85 1265 83 1254 q 144 1329 93 1324 q 202 1333 174 1332 q 260 1335 231 1335 q 327 1333 293 1335 q 394 1328 361 1331 q 450 1251 450 1322 q 458 1077 451 1164 q 471 903 464 990 q 499 569 482 743 q 551 215 517 394 q 558 166 557 192 q 574 108 558 140 q 593 250 585 183 q 613 382 601 317 q 694 833 649 613 q 790 1243 739 1053 q 800 1274 794 1258 q 815 1304 806 1290 q 868 1332 836 1332 q 894 1326 883 1332 q 923 1304 913 1319 q 933 1271 933 1289 q 929 1249 933 1258 q 833 872 872 1076 q 754 456 794 668 q 710 160 726 308 q 679 -139 694 11 q 666 -243 674 -192 q 643 -346 658 -294 q 613 -404 632 -390 q 550 -421 594 -418 q 492 -423 521 -422 q 435 -424 464 -424 z "},"W":{"ha":1228,"x_min":83,"x_max":1144,"o":"m 331 -421 q 274 -407 292 -421 q 246 -357 257 -393 q 226 -267 233 -312 q 217 -176 219 -222 q 189 65 208 -53 q 154 314 169 183 q 147 380 151 340 q 139 468 143 419 q 130 572 135 517 q 121 682 125 626 q 101 958 111 821 q 83 1232 90 1096 l 83 1239 q 107 1308 83 1286 q 174 1331 131 1331 l 351 1332 q 419 1312 400 1331 q 440 1244 439 1293 q 466 831 449 1038 q 499 413 483 624 q 506 344 501 385 q 518 256 511 304 q 533 152 525 207 q 551 42 542 97 l 565 42 q 590 183 578 113 q 614 324 603 253 q 647 524 629 424 q 671 725 664 624 q 683 779 674 754 q 710 813 690 801 q 754 825 731 825 l 764 825 q 804 806 789 822 q 824 763 819 790 l 822 689 q 827 557 822 622 q 838 426 832 492 q 850 294 844 360 q 857 164 856 229 q 866 64 858 114 q 885 -37 874 14 q 898 -23 897 -32 q 901 -6 899 -14 q 940 278 924 136 q 969 556 957 419 q 990 822 981 693 q 1008 1065 999 950 q 1012 1146 1011 1106 q 1014 1226 1013 1186 q 1014 1242 1014 1235 q 1015 1258 1014 1250 q 1082 1332 1024 1332 l 1088 1332 q 1144 1256 1144 1325 l 1144 1251 q 1135 1027 1143 1139 q 1118 803 1126 915 q 1108 676 1114 746 q 1097 530 1103 607 q 1081 369 1090 453 q 1060 203 1072 286 q 1022 -72 1039 65 q 1009 -192 1014 -132 q 993 -310 1004 -251 q 986 -342 989 -326 q 976 -374 983 -358 q 914 -421 957 -421 q 867 -403 889 -421 q 825 -351 839 -381 q 803 -289 811 -321 q 769 -125 783 -206 q 744 13 756 -56 q 722 153 732 82 q 697 56 706 104 q 682 -43 689 7 q 656 -188 671 -117 q 621 -331 642 -260 q 604 -374 613 -357 q 583 -402 596 -392 q 551 -417 569 -412 q 503 -421 532 -421 l 417 -422 l 331 -421 z "},"X":{"ha":1082,"x_min":83,"x_max":999,"o":"m 143 -418 q 114 -410 128 -418 q 83 -356 83 -392 q 85 -339 83 -344 q 91 -323 88 -331 q 97 -308 94 -315 q 222 -34 154 -175 q 360 250 289 107 q 375 310 375 283 q 369 345 372 332 q 363 371 367 358 q 265 689 310 531 q 178 999 221 847 q 155 1113 163 1056 q 128 1226 147 1169 q 124 1240 125 1233 q 122 1254 122 1247 q 144 1304 122 1283 q 206 1329 167 1325 q 272 1332 239 1332 q 339 1333 306 1332 q 369 1332 354 1333 q 400 1331 385 1331 q 446 1326 429 1329 q 474 1315 463 1324 q 492 1290 485 1307 q 510 1246 500 1274 q 522 1206 517 1226 q 529 1165 526 1186 q 567 997 543 1086 q 622 807 592 907 q 641 827 633 814 q 656 853 649 840 q 766 1075 710 967 q 864 1279 822 1183 q 883 1311 871 1299 q 926 1331 903 1331 q 949 1326 938 1331 q 988 1276 983 1314 l 988 1268 q 981 1228 988 1246 q 965 1192 974 1210 q 857 971 914 1089 q 738 731 800 853 q 700 652 713 679 q 688 597 688 625 q 694 551 688 576 q 713 493 701 525 q 781 264 749 378 q 850 36 814 150 q 911 -136 878 -51 q 989 -301 944 -221 q 996 -319 993 -311 q 999 -337 999 -328 q 982 -381 999 -361 q 935 -407 965 -400 q 878 -416 907 -414 q 819 -418 849 -418 l 692 -418 q 641 -401 661 -415 q 610 -360 621 -387 q 536 -176 575 -267 q 471 10 497 -86 q 457 61 464 36 q 439 101 450 86 q 421 84 425 94 q 411 63 417 74 q 313 -140 360 -40 q 228 -331 267 -239 q 214 -363 221 -347 q 194 -393 207 -379 q 143 -418 174 -418 z "},"Y":{"ha":976,"x_min":56,"x_max":893,"o":"m 451 -421 q 389 -420 419 -421 q 326 -418 358 -419 q 263 -354 269 -414 q 261 -332 261 -347 l 261 -310 q 256 -119 260 -214 q 253 71 253 -25 l 256 164 q 250 201 256 186 q 208 391 224 296 q 176 582 192 486 q 139 792 157 688 q 103 1003 121 897 q 84 1104 93 1054 q 61 1204 75 1154 q 57 1223 58 1214 q 56 1240 56 1232 q 81 1303 56 1279 q 153 1329 107 1326 l 229 1331 l 300 1331 q 334 1331 317 1331 q 369 1329 351 1331 q 422 1309 407 1328 q 443 1254 436 1290 q 472 1090 457 1171 q 503 926 488 1010 l 564 578 l 578 511 q 597 563 593 538 q 607 611 600 588 q 675 923 644 767 q 751 1233 706 1079 q 761 1265 756 1249 q 774 1294 767 1281 q 799 1323 783 1314 q 832 1332 814 1332 q 853 1329 846 1332 q 893 1271 893 1314 l 890 1251 q 871 1185 882 1218 q 853 1118 860 1153 q 771 747 811 932 q 686 376 731 563 q 650 201 663 286 q 638 49 638 115 l 639 -10 q 643 -165 643 -87 q 644 -319 643 -242 l 644 -329 q 625 -393 644 -374 q 560 -417 606 -412 q 451 -421 506 -421 z "},"Z":{"ha":994,"x_min":83,"x_max":911,"o":"m 164 -424 q 83 -344 83 -417 q 83 -334 83 -339 q 85 -322 83 -329 q 193 206 128 -54 q 338 728 258 467 q 394 897 364 808 q 461 1074 425 985 q 483 1131 472 1101 q 503 1203 493 1160 q 415 1205 458 1203 q 326 1207 371 1207 q 240 1203 283 1207 q 211 1200 225 1201 q 182 1199 197 1199 l 157 1200 q 89 1264 89 1208 l 89 1267 q 108 1310 89 1294 q 160 1328 126 1325 q 263 1332 201 1331 q 392 1333 325 1333 q 484 1333 439 1333 q 566 1332 529 1332 q 628 1331 603 1332 q 661 1331 653 1331 q 738 1329 700 1331 q 814 1326 775 1328 q 888 1247 883 1325 q 884 1218 888 1232 q 875 1189 881 1204 q 816 1021 849 1103 q 754 856 783 939 q 665 566 706 717 q 578 264 624 415 q 517 8 539 136 q 469 -251 496 -121 l 465 -276 q 493 -294 465 -294 l 589 -294 q 670 -294 629 -294 q 751 -293 711 -294 q 787 -290 769 -292 q 824 -287 804 -287 q 840 -287 832 -287 q 857 -290 849 -287 q 897 -313 882 -296 q 911 -354 911 -331 l 911 -357 q 894 -397 911 -381 q 850 -417 878 -414 q 580 -422 714 -418 q 310 -426 446 -426 l 164 -424 z "},"[":{"ha":771,"x_min":83,"x_max":688,"o":"m 429 -421 q 332 -421 381 -421 q 235 -418 283 -421 q 147 -388 176 -415 q 110 -303 118 -361 q 106 -268 107 -285 q 106 -233 106 -251 l 106 -186 q 101 -95 106 -140 q 94 -6 97 -50 q 90 163 90 78 q 92 292 90 221 q 93 439 93 364 q 92 544 93 492 q 88 650 90 597 q 83 775 83 713 q 89 981 83 879 q 96 1188 94 1083 q 126 1300 97 1269 q 225 1331 154 1331 l 618 1331 q 669 1311 651 1329 q 688 1265 688 1293 q 667 1223 686 1239 q 615 1204 649 1207 l 510 1206 q 488 1205 496 1206 q 476 1201 481 1204 q 470 1189 472 1197 q 467 1165 468 1181 q 465 1155 465 1160 q 464 1143 464 1150 l 465 1089 q 460 938 465 1014 q 456 786 456 863 q 458 720 456 754 q 460 658 460 686 q 464 524 464 592 q 460 365 464 443 q 457 224 457 288 q 458 174 457 199 q 460 124 458 149 q 471 -29 464 47 q 478 -183 478 -106 l 476 -243 q 483 -278 476 -269 q 510 -286 490 -286 l 535 -286 q 591 -288 565 -286 q 637 -297 617 -290 q 668 -318 657 -304 q 681 -356 679 -332 q 656 -403 681 -386 q 589 -419 631 -419 q 509 -421 549 -421 q 429 -421 469 -421 z "},"\\":{"ha":950,"x_min":83,"x_max":867,"o":"m 551 -421 q 518 -412 528 -421 q 500 -376 508 -404 q 488 -333 494 -361 q 472 -269 481 -304 q 453 -197 463 -235 q 436 -124 444 -158 q 421 -61 428 -89 q 410 -19 414 -33 q 382 90 394 33 q 357 206 369 147 q 331 326 344 265 q 299 444 317 386 q 192 821 240 632 q 94 1200 144 1010 q 90 1219 92 1214 q 87 1228 88 1224 q 85 1238 86 1232 q 83 1257 85 1243 q 146 1324 83 1315 q 215 1331 181 1329 q 285 1332 250 1332 l 390 1331 q 438 1315 422 1331 q 464 1261 453 1299 l 531 999 q 599 738 564 867 q 674 479 633 608 q 709 350 694 415 q 738 219 724 285 q 765 89 751 154 q 799 -39 779 24 q 815 -112 808 -75 q 826 -187 821 -150 q 840 -262 832 -225 q 861 -336 847 -300 q 865 -349 864 -343 q 867 -361 867 -356 q 856 -392 867 -381 q 828 -410 846 -404 q 789 -419 811 -417 q 742 -421 767 -421 l 551 -421 l 551 -421 z "},"]":{"ha":513,"x_min":83,"x_max":429,"o":"m 306 -421 q 241 -422 276 -421 q 167 -422 206 -422 l 147 -422 q 99 -405 114 -422 q 83 -357 85 -387 q 109 -308 83 -325 q 168 -290 135 -290 l 207 -290 q 228 -290 218 -290 q 254 -286 239 -289 q 271 -277 268 -286 q 274 -244 274 -268 l 293 619 q 297 957 297 788 l 296 1151 q 293 1188 296 1179 q 275 1196 290 1196 q 245 1201 257 1200 q 221 1201 233 1201 l 183 1201 q 159 1203 172 1201 q 135 1207 146 1204 q 100 1231 113 1214 q 88 1268 88 1249 q 105 1313 89 1294 q 149 1331 121 1331 l 172 1331 q 260 1331 221 1331 q 343 1332 299 1331 q 399 1315 379 1332 q 424 1257 418 1297 q 425 1226 425 1242 q 425 1196 425 1211 l 425 1140 q 427 1003 425 1071 q 429 864 429 935 q 428 801 429 844 q 426 701 428 757 q 423 583 425 646 q 419 463 421 521 q 417 356 418 404 q 417 278 417 307 q 410 4 417 138 q 403 -244 403 -129 l 403 -306 q 378 -394 400 -368 q 306 -421 356 -421 z "},"^":{"ha":893,"x_min":83,"x_max":810,"o":"m 642 703 q 521 719 581 703 q 487 739 500 725 q 463 769 474 753 q 398 891 425 828 q 351 1022 371 954 q 347 1040 349 1031 q 332 1058 344 1050 l 213 793 q 144 732 185 732 q 102 749 121 732 q 83 793 83 765 q 85 816 83 804 q 94 842 88 828 q 146 958 119 900 q 197 1075 172 1017 q 227 1147 213 1111 q 257 1219 242 1183 q 276 1260 265 1240 q 300 1297 286 1281 q 331 1322 314 1313 q 371 1332 349 1332 l 554 1332 q 619 1314 601 1331 q 649 1253 638 1297 q 672 1147 660 1200 q 696 1042 683 1094 q 732 940 710 989 q 783 844 754 890 q 802 812 794 828 q 810 778 810 796 q 794 738 810 753 q 755 716 779 724 q 701 706 731 708 q 642 703 671 703 z "},"_":{"ha":1318,"x_min":83,"x_max":1235,"o":"m 824 -421 q 705 -421 769 -421 q 574 -421 640 -421 q 443 -420 507 -421 q 327 -419 379 -419 q 239 -419 275 -419 q 193 -419 203 -419 q 153 -415 174 -419 q 118 -403 133 -411 q 93 -381 103 -394 q 83 -350 83 -368 q 102 -303 86 -318 q 154 -287 118 -287 l 229 -287 q 267 -287 249 -287 q 304 -289 285 -287 l 476 -289 q 552 -289 517 -289 q 615 -290 588 -289 q 829 -294 732 -294 q 909 -294 874 -294 q 977 -292 944 -293 q 1044 -291 1010 -292 q 1119 -289 1078 -290 q 1147 -289 1133 -289 q 1174 -292 1160 -289 q 1220 -311 1206 -294 q 1235 -354 1235 -328 q 1150 -417 1235 -417 q 824 -421 988 -421 z "},"`":{"ha":633,"x_min":83,"x_max":550,"o":"m 365 907 q 283 909 313 907 q 237 923 254 911 q 208 961 219 935 q 178 1036 196 988 q 150 1101 167 1069 q 119 1163 133 1133 q 94 1216 104 1192 q 83 1260 83 1240 q 97 1293 83 1279 q 133 1315 111 1307 q 185 1328 156 1324 q 246 1332 214 1332 q 309 1328 278 1332 q 372 1321 340 1325 q 403 1307 392 1318 q 424 1281 414 1296 q 491 1149 460 1215 q 543 1013 522 1083 q 548 993 546 1001 q 550 976 550 985 q 482 914 550 926 q 424 908 453 908 q 365 907 394 908 z "},"a":{"ha":1086,"x_min":83,"x_max":1003,"o":"m 465 651 q 469 519 465 585 q 476 388 474 454 q 483 361 476 369 q 511 350 490 353 q 544 348 528 349 q 578 347 561 347 q 677 352 628 347 q 776 361 726 357 q 807 366 796 363 q 824 376 818 369 q 831 396 829 383 q 833 429 832 408 q 834 460 833 444 q 835 492 835 476 q 828 674 835 583 q 815 856 822 764 q 805 935 811 896 q 789 1014 799 974 q 755 1099 778 1060 q 701 1172 732 1138 q 658 1203 682 1196 q 608 1211 635 1211 q 586 1210 597 1211 q 564 1208 575 1210 q 521 1184 532 1206 q 500 1140 510 1163 q 456 908 456 1031 q 456 892 456 900 q 457 875 457 883 q 460 773 458 824 q 465 669 463 722 l 465 651 m 103 358 q 92 625 97 493 q 85 890 88 757 q 84 901 85 896 q 83 913 83 907 q 101 1067 85 992 q 150 1214 117 1142 q 311 1332 197 1322 q 413 1340 363 1338 q 515 1342 464 1342 q 649 1338 582 1342 q 733 1313 696 1335 q 801 1256 771 1292 q 879 1138 847 1200 q 922 1004 911 1076 q 952 763 942 882 q 963 522 963 644 q 961 440 963 481 q 957 357 960 399 q 952 283 954 319 q 950 208 950 246 q 953 122 950 164 q 964 35 957 79 q 970 -76 968 -22 q 975 -178 972 -129 q 983 -272 978 -228 q 1000 -353 989 -317 q 1003 -368 1003 -364 q 974 -414 1003 -396 q 939 -425 956 -425 q 900 -414 919 -425 q 876 -387 885 -403 q 865 -353 868 -372 q 856 -296 861 -325 q 850 -237 850 -267 q 844 -100 849 -161 q 834 12 839 -39 q 825 106 829 63 q 821 193 821 150 l 821 206 q 794 233 821 233 l 785 233 q 687 224 736 229 q 589 218 638 218 q 519 222 554 218 l 513 222 q 486 190 486 222 q 488 77 488 133 q 488 -37 488 21 l 483 -325 q 465 -394 483 -374 q 397 -418 446 -415 q 276 -422 336 -422 q 242 -422 260 -422 q 208 -421 225 -421 q 133 -398 156 -419 q 110 -322 111 -376 q 108 -235 108 -278 q 108 -147 108 -192 l 113 117 q 110 238 113 178 q 103 358 107 297 z "},"b":{"ha":1029,"x_min":83,"x_max":946,"o":"m 553 -285 q 607 -275 581 -285 q 660 -253 633 -265 q 722 -215 694 -236 q 771 -159 750 -193 q 803 -75 792 -125 q 818 49 815 -25 l 817 72 q 815 91 815 82 q 815 111 815 100 q 815 130 815 121 q 814 149 815 139 q 743 240 810 240 q 701 233 726 240 q 603 208 653 218 q 503 190 553 197 q 476 178 482 188 q 469 151 469 169 l 463 -78 l 464 -78 q 464 -150 464 -114 q 465 -222 464 -186 q 476 -263 467 -253 q 517 -281 486 -274 q 553 -285 535 -285 m 478 333 q 516 351 497 343 q 554 368 535 358 q 651 441 613 396 q 704 549 689 486 q 733 701 722 625 q 743 854 743 776 q 739 940 743 897 q 728 1028 735 983 q 713 1081 722 1056 q 688 1131 703 1107 q 633 1178 664 1163 q 565 1194 601 1194 q 500 1181 529 1194 q 485 1169 489 1175 q 481 1151 481 1163 l 471 1018 q 467 925 468 971 q 467 832 467 879 q 469 619 467 725 q 472 406 472 514 l 472 353 q 474 345 472 350 q 478 333 475 340 m 414 -421 q 328 -418 371 -421 q 244 -406 286 -415 q 185 -386 213 -399 q 131 -361 158 -374 q 95 -323 103 -347 q 88 -271 88 -299 q 85 -147 86 -208 q 83 -22 83 -85 l 94 428 q 93 587 94 507 q 89 746 92 667 l 88 828 q 93 1022 88 925 q 103 1217 99 1119 q 120 1272 104 1253 q 176 1301 136 1290 q 271 1324 224 1314 q 367 1336 318 1333 l 424 1338 q 588 1325 506 1338 q 760 1244 693 1310 q 850 1074 826 1179 q 866 972 861 1022 q 871 869 871 921 q 866 763 871 817 q 854 654 861 708 q 839 560 847 607 q 815 469 831 514 q 790 421 804 444 q 761 372 776 397 q 792 364 778 367 q 818 356 806 361 q 899 294 868 332 q 938 200 931 256 q 946 82 946 142 q 944 43 946 69 q 941 -12 943 17 q 936 -67 939 -42 q 932 -106 933 -93 q 903 -201 925 -158 q 844 -281 882 -244 q 703 -378 778 -340 q 538 -418 628 -415 q 476 -420 506 -419 q 414 -421 446 -421 z "},"c":{"ha":1051,"x_min":83,"x_max":968,"o":"m 554 -419 q 494 -417 524 -418 q 432 -417 464 -417 l 363 -418 q 285 -403 319 -418 q 224 -364 250 -389 q 182 -307 199 -339 q 157 -239 165 -275 q 131 -114 142 -176 q 110 13 121 -51 q 95 130 100 71 q 88 251 90 189 q 85 381 86 314 q 83 521 85 447 l 85 675 q 85 750 85 713 q 88 824 85 788 q 136 1046 94 942 q 242 1247 178 1150 q 406 1336 301 1336 l 535 1336 l 604 1335 q 833 1238 736 1331 q 886 1170 865 1207 q 914 1089 907 1133 l 915 1069 q 910 1029 915 1046 q 886 991 903 1004 q 849 978 869 978 l 840 978 q 803 995 818 981 q 788 1036 788 1010 l 788 1044 q 752 1139 788 1106 q 668 1193 717 1172 q 644 1201 654 1199 q 625 1204 635 1204 q 599 1194 610 1204 q 574 1164 588 1185 q 482 978 515 1075 q 446 774 449 882 l 444 546 q 447 329 444 425 q 457 144 450 233 q 479 -28 464 57 q 514 -201 494 -114 q 517 -215 515 -208 q 521 -228 518 -221 q 590 -287 544 -287 q 631 -279 607 -287 q 710 -240 674 -262 q 774 -187 746 -218 q 818 -114 801 -156 q 838 -19 835 -72 l 839 28 q 835 107 839 68 q 826 186 832 146 q 824 214 825 200 q 822 243 822 228 q 822 256 822 250 q 824 268 822 261 q 844 310 828 294 q 885 326 861 326 l 888 326 q 926 312 910 326 q 947 271 943 297 q 961 147 954 208 q 968 22 968 85 q 967 -25 968 -1 q 963 -72 965 -49 q 926 -194 956 -139 q 849 -294 897 -250 q 717 -385 788 -350 q 558 -419 646 -419 l 554 -419 z "},"d":{"ha":988,"x_min":83,"x_max":904,"o":"m 503 -294 q 669 -179 603 -249 q 757 -1 736 -110 q 770 97 767 47 q 774 196 774 147 l 772 283 q 763 514 765 400 q 756 744 761 628 q 660 1100 747 933 q 601 1162 638 1143 q 522 1192 564 1181 q 508 1193 517 1193 q 482 1161 485 1193 l 476 1072 q 468 938 472 1004 q 464 803 464 871 q 465 739 464 771 q 469 675 467 707 q 474 546 469 610 q 476 230 475 390 q 486 -85 478 69 q 492 -185 489 -135 q 503 -294 494 -236 m 393 -421 q 310 -415 351 -418 q 226 -410 268 -412 q 178 -403 197 -408 q 149 -387 160 -399 q 134 -358 139 -376 q 125 -308 129 -339 q 112 -140 115 -224 q 104 29 108 -56 q 96 295 97 160 q 94 560 94 431 q 90 624 92 592 q 89 689 89 657 q 85 748 86 718 q 83 807 83 778 q 90 961 83 885 q 100 1115 96 1038 q 113 1247 104 1182 q 138 1313 118 1293 q 207 1333 158 1332 q 348 1331 278 1333 q 489 1325 418 1328 q 576 1309 535 1322 q 658 1276 618 1296 q 760 1185 722 1246 q 840 999 813 1096 q 881 801 868 903 q 892 630 892 715 q 903 458 893 544 l 901 310 l 903 221 l 904 182 q 897 66 904 124 q 879 -50 890 8 q 830 -176 865 -121 q 747 -283 794 -232 q 600 -390 681 -357 q 424 -422 519 -422 l 393 -421 z "},"e":{"ha":964,"x_min":83,"x_max":908,"o":"m 181 -435 q 110 -417 131 -435 q 89 -347 90 -400 q 87 -299 88 -324 q 86 -251 86 -275 l 88 -197 l 90 -37 q 87 115 90 39 q 83 267 83 190 q 88 390 83 328 l 88 479 q 95 673 92 576 q 99 864 99 769 q 94 1046 99 954 l 93 1122 q 94 1184 93 1154 q 96 1246 94 1214 q 114 1303 99 1286 q 169 1326 129 1321 q 286 1335 225 1335 l 318 1335 q 457 1335 389 1335 q 596 1336 525 1336 q 828 1332 713 1336 q 847 1329 838 1331 q 867 1325 857 1328 q 897 1303 886 1318 q 908 1269 908 1288 l 908 1261 q 860 1207 903 1218 q 845 1205 853 1206 q 831 1204 838 1204 l 821 1204 q 788 1206 804 1206 q 756 1206 772 1206 q 678 1204 717 1206 q 600 1201 639 1203 l 567 1204 q 533 1203 550 1204 q 500 1201 517 1201 q 472 1175 472 1201 l 471 1108 q 476 958 474 1033 q 478 807 478 883 q 475 623 478 715 q 467 456 472 531 q 465 425 465 440 q 465 394 465 410 l 465 375 q 467 356 465 363 q 474 344 468 349 q 490 339 479 340 q 518 338 500 338 l 550 336 l 613 338 q 646 337 629 338 q 679 331 663 336 q 713 306 701 324 q 725 269 725 289 q 724 253 725 258 q 703 217 719 232 q 667 203 688 203 l 654 204 q 628 208 640 207 q 601 208 615 208 l 538 207 l 496 207 q 472 199 478 207 q 465 174 465 192 l 465 163 q 468 105 468 133 q 468 47 468 76 q 467 -57 468 -12 q 466 -135 467 -101 q 465 -197 465 -169 q 464 -250 464 -224 q 468 -288 464 -279 q 493 -297 472 -297 l 813 -282 q 847 -287 832 -282 q 889 -344 889 -303 l 889 -347 q 851 -403 889 -385 q 822 -411 836 -410 q 792 -412 807 -412 q 619 -421 704 -415 q 447 -426 533 -426 q 425 -427 439 -426 q 396 -428 411 -428 l 361 -428 q 272 -431 317 -428 q 181 -435 226 -435 z "},"f":{"ha":992,"x_min":83,"x_max":908,"o":"m 181 -435 q 110 -417 131 -435 q 89 -347 90 -400 q 87 -299 88 -324 q 86 -251 86 -275 l 88 -197 l 90 -37 q 87 115 90 39 q 83 267 83 190 q 88 390 83 328 l 88 479 q 95 673 92 576 q 99 864 99 769 q 94 1046 99 954 l 93 1122 q 94 1184 93 1154 q 96 1246 94 1214 q 114 1303 99 1286 q 169 1326 129 1321 q 286 1335 225 1335 l 318 1335 q 457 1335 389 1335 q 596 1336 525 1336 q 828 1332 713 1336 q 847 1329 838 1331 q 867 1325 857 1328 q 897 1303 886 1318 q 908 1269 908 1288 l 908 1261 q 860 1207 903 1218 q 845 1205 853 1206 q 831 1204 838 1204 l 821 1204 q 788 1206 804 1206 q 756 1206 772 1206 q 678 1204 717 1206 q 600 1201 639 1203 l 567 1204 q 533 1203 550 1204 q 500 1201 517 1201 q 472 1175 472 1201 l 471 1108 q 476 958 474 1033 q 478 807 478 883 q 475 623 478 715 q 467 456 472 531 q 465 425 465 440 q 465 394 465 410 l 465 375 q 467 356 465 363 q 474 344 468 349 q 490 339 479 340 q 518 338 500 338 l 550 336 l 613 338 q 646 337 629 338 q 679 331 663 336 q 713 306 701 324 q 725 269 725 289 q 724 253 725 258 q 703 217 719 232 q 667 203 688 203 l 654 204 q 628 208 640 207 q 601 208 615 208 l 538 207 l 496 207 q 472 199 478 207 q 465 174 465 192 l 465 163 q 468 105 468 133 q 468 47 468 76 q 467 -57 468 -12 q 466 -135 467 -101 q 465 -197 465 -169 q 464 -250 464 -224 l 464 -272 q 463 -322 464 -292 q 460 -381 463 -353 q 442 -419 457 -411 q 417 -426 426 -426 q 397 -428 407 -428 q 379 -428 388 -428 l 361 -428 q 272 -431 317 -428 q 181 -435 226 -435 z "},"g":{"ha":1085,"x_min":83,"x_max":1001,"o":"m 371 -419 q 289 -405 325 -419 q 227 -365 253 -390 q 185 -308 201 -340 q 160 -242 168 -276 q 114 4 132 -121 q 90 236 96 118 q 83 499 83 354 q 86 667 83 583 q 92 836 89 751 q 140 1054 96 953 q 249 1251 185 1156 q 397 1335 301 1333 l 526 1336 q 585 1335 556 1336 q 642 1329 614 1333 q 797 1270 731 1315 q 903 1139 864 1225 q 917 1071 917 1107 q 913 1031 917 1051 q 889 990 906 1004 q 851 975 872 975 l 846 975 q 806 994 822 976 q 788 1039 790 1011 q 657 1196 775 1163 q 624 1201 639 1201 q 582 1171 601 1201 q 503 1027 538 1100 q 457 871 468 954 q 450 793 453 832 q 447 715 447 754 l 447 526 q 449 333 447 417 q 457 169 450 249 q 481 -20 464 74 q 517 -208 497 -114 q 524 -231 519 -219 q 536 -254 529 -243 q 592 -287 558 -287 q 601 -287 596 -287 q 613 -285 607 -287 q 694 -251 656 -272 q 765 -198 733 -229 q 815 -126 796 -167 q 838 -35 835 -85 l 840 24 q 838 100 840 65 q 833 169 836 135 q 822 199 831 190 q 790 208 813 208 q 755 206 772 207 q 719 200 738 204 l 688 190 q 657 186 671 186 q 592 232 604 186 q 590 247 590 238 q 649 314 590 290 q 763 335 706 333 l 885 339 q 953 320 931 339 q 976 258 976 301 l 976 243 q 972 119 972 181 q 978 -57 972 28 q 990 -226 983 -142 q 994 -263 992 -244 q 1000 -306 997 -282 l 1001 -333 q 996 -372 1001 -356 q 972 -407 989 -394 q 935 -419 956 -419 q 875 -369 888 -417 q 870 -335 872 -354 q 865 -285 868 -317 q 813 -326 838 -308 q 764 -358 788 -343 q 560 -419 672 -417 l 371 -419 z "},"h":{"ha":1061,"x_min":83,"x_max":978,"o":"m 188 -419 q 122 -357 131 -419 q 119 -308 119 -333 q 117 -258 118 -283 l 89 410 q 85 473 86 442 q 83 533 83 504 q 85 622 83 579 q 88 708 86 665 q 90 917 89 813 q 93 1125 90 1021 q 97 1183 94 1154 q 103 1240 100 1211 q 131 1314 110 1294 q 207 1335 153 1333 l 407 1335 q 486 1272 486 1332 q 481 1238 486 1254 q 468 1174 469 1206 q 467 1111 467 1143 q 461 878 464 993 q 458 660 458 764 q 463 394 458 528 q 470 335 464 350 q 504 319 476 319 q 523 320 513 319 q 547 322 533 321 q 606 326 576 325 q 664 328 635 328 q 684 328 675 328 q 703 329 693 328 q 742 337 728 333 q 765 348 757 340 q 776 367 774 356 q 778 400 778 379 l 776 500 q 779 644 776 574 q 786 775 782 714 q 791 892 790 833 q 792 1011 792 951 l 792 1197 q 790 1219 792 1208 q 786 1242 788 1231 l 785 1257 q 793 1296 785 1276 q 854 1338 813 1338 l 858 1338 q 917 1288 906 1335 q 920 1257 919 1272 q 921 1226 921 1242 q 917 878 921 1050 q 906 544 914 707 l 904 475 q 908 378 904 425 q 910 357 910 367 q 915 339 910 347 q 931 288 931 313 q 919 246 931 267 q 914 222 914 236 q 915 203 914 213 q 918 185 917 194 l 975 -321 q 977 -337 976 -329 q 978 -354 978 -346 q 960 -400 975 -382 q 922 -421 946 -418 l 914 -421 q 873 -407 890 -421 q 851 -365 856 -393 q 839 -281 844 -324 q 829 -196 833 -239 q 810 -6 818 -92 q 792 174 801 81 q 785 203 789 196 q 771 210 782 210 l 743 207 q 627 199 685 201 q 511 193 569 196 q 479 188 486 192 q 472 165 472 185 l 493 -286 l 493 -353 q 426 -419 486 -419 q 375 -421 400 -421 q 325 -421 350 -421 l 188 -419 z "},"i":{"ha":560,"x_min":83,"x_max":476,"o":"m 228 -421 q 198 -417 213 -421 q 168 -410 183 -414 q 113 -336 115 -394 q 92 72 101 -131 q 83 479 83 274 q 85 633 83 556 q 90 796 86 711 q 95 1010 96 904 q 97 1224 94 1115 q 121 1310 99 1286 q 201 1333 143 1333 l 379 1326 q 441 1304 424 1322 q 458 1242 458 1286 l 458 1204 q 460 1089 458 1146 q 461 975 461 1032 q 460 925 461 960 q 457 844 458 890 q 453 747 456 799 q 449 647 450 696 q 446 558 447 599 q 444 494 444 518 q 446 382 444 438 q 451 271 447 326 q 453 228 453 260 q 453 161 453 196 l 453 75 q 459 -71 453 1 q 472 -218 465 -143 q 476 -293 476 -256 l 475 -335 q 394 -415 469 -410 q 311 -419 353 -418 q 228 -421 269 -421 z "},"j":{"ha":972,"x_min":56,"x_max":890,"o":"m 614 -424 q 531 -422 572 -422 q 449 -418 490 -421 q 366 -408 407 -415 q 285 -386 325 -401 q 141 -295 197 -353 q 69 -142 85 -237 q 59 -62 63 -101 q 56 15 56 -24 q 57 61 56 39 q 63 107 58 83 q 70 170 68 139 q 75 233 72 201 q 76 251 76 242 q 79 267 76 260 q 103 308 86 293 q 143 324 119 324 l 150 324 q 190 303 174 321 q 206 258 206 286 l 206 253 q 200 184 203 218 q 192 115 197 150 q 187 63 189 89 q 185 11 185 38 q 188 -58 185 -24 q 199 -128 192 -93 q 283 -244 215 -208 q 326 -263 304 -256 q 371 -276 347 -271 q 403 -281 388 -281 q 465 -258 440 -281 q 496 -194 489 -235 q 503 -144 500 -169 q 507 -94 506 -119 q 508 238 507 69 q 508 388 508 308 q 509 547 508 467 q 510 706 510 626 q 510 857 510 785 q 510 1048 510 965 q 508 1169 510 1131 l 508 1208 q 508 1228 508 1219 q 510 1247 508 1238 q 596 1331 518 1329 l 665 1332 q 790 1328 728 1332 q 863 1300 843 1322 q 882 1229 882 1278 l 881 1171 q 883 1075 881 1122 q 888 979 885 1028 q 889 946 888 969 q 890 891 889 926 q 890 800 890 856 q 890 665 890 744 q 888 476 889 585 q 884 227 886 368 q 879 -92 882 86 q 872 -183 878 -137 q 856 -272 867 -228 q 835 -318 849 -299 q 803 -354 822 -337 q 721 -405 764 -386 q 628 -424 678 -424 l 614 -424 z "},"k":{"ha":1019,"x_min":83,"x_max":936,"o":"m 182 -419 q 117 -364 129 -419 q 113 -336 113 -350 l 83 263 q 85 421 83 344 q 85 486 85 453 q 87 551 86 519 q 88 608 88 582 q 88 654 88 635 l 88 690 q 85 975 85 833 q 85 1251 85 1117 q 99 1308 85 1289 q 150 1331 114 1326 q 210 1335 181 1333 q 269 1336 239 1336 q 335 1335 301 1336 q 400 1331 368 1333 q 453 1309 436 1328 q 474 1254 469 1290 q 475 1230 475 1243 q 475 1206 475 1217 q 475 876 475 1043 q 476 539 475 708 l 476 504 q 492 525 489 515 q 499 544 496 535 q 621 894 556 713 q 760 1258 686 1075 q 769 1281 765 1269 q 781 1304 774 1293 q 835 1332 800 1332 q 844 1332 839 1332 q 854 1329 849 1332 q 894 1268 894 1314 q 890 1240 894 1253 q 881 1214 886 1228 q 734 828 803 1019 q 606 458 665 638 q 574 372 590 414 q 540 288 558 329 q 533 258 533 269 q 544 225 533 244 q 692 -28 622 86 q 842 -244 763 -143 q 886 -286 860 -268 q 899 -295 893 -290 q 913 -306 906 -300 q 936 -356 936 -326 q 925 -390 936 -375 q 874 -418 907 -418 q 846 -411 863 -418 q 786 -372 813 -396 q 736 -319 760 -349 q 632 -172 683 -249 q 528 8 581 -96 q 511 35 521 22 q 488 68 501 49 q 486 32 486 49 q 486 -1 486 15 q 488 -70 486 -37 q 493 -135 490 -103 q 500 -229 497 -182 q 503 -324 503 -276 l 503 -346 q 484 -401 500 -383 q 432 -419 468 -418 q 379 -421 406 -421 q 326 -421 353 -421 l 182 -419 z "},"l":{"ha":1008,"x_min":83,"x_max":981,"o":"m 200 -419 q 111 -325 111 -419 l 111 -294 q 99 -53 111 -172 q 88 188 88 65 l 88 239 q 85 343 88 292 q 83 442 83 394 q 85 838 85 640 q 94 1235 86 1036 q 100 1283 96 1264 q 115 1312 104 1301 q 145 1327 126 1322 q 194 1333 164 1332 l 239 1335 q 328 1332 283 1335 q 417 1329 372 1329 l 421 1329 q 469 1312 453 1329 q 489 1263 485 1294 l 489 1235 q 483 1001 482 1117 q 479 768 483 886 l 479 546 q 481 376 479 458 q 485 207 482 294 q 494 13 488 110 q 504 -181 500 -83 l 503 -236 q 505 -260 503 -249 q 514 -279 507 -271 q 528 -287 521 -286 q 546 -292 536 -289 q 577 -295 561 -294 q 608 -296 593 -296 l 690 -296 q 767 -294 729 -296 q 842 -285 804 -292 q 881 -281 860 -281 q 929 -286 907 -281 q 967 -310 953 -293 q 981 -351 981 -328 l 981 -357 q 915 -412 976 -408 q 803 -417 858 -415 q 690 -418 747 -418 q 633 -418 663 -418 q 576 -417 604 -418 l 556 -417 q 378 -418 467 -417 q 200 -419 290 -419 z "},"m":{"ha":1175,"x_min":83,"x_max":1119,"o":"m 181 -424 q 115 -360 124 -424 q 111 -310 113 -335 q 108 -260 110 -285 q 97 44 104 -108 q 89 349 90 196 q 86 438 89 393 q 83 526 83 482 l 86 1222 q 175 1324 89 1315 q 266 1333 221 1329 q 357 1336 311 1336 q 382 1336 369 1336 q 408 1335 394 1336 q 471 1315 453 1332 q 496 1256 489 1299 q 581 906 528 1092 q 693 529 633 721 l 703 507 q 715 519 713 514 q 718 531 717 524 q 816 915 763 728 q 918 1271 869 1103 q 986 1336 935 1336 l 994 1336 q 1040 1309 1022 1332 q 1060 1251 1058 1286 l 1060 929 l 1058 842 q 1062 638 1058 739 q 1071 435 1065 538 q 1082 199 1078 322 q 1090 -37 1086 75 q 1095 -123 1093 -81 q 1100 -208 1097 -165 q 1106 -272 1103 -240 q 1117 -335 1108 -303 l 1119 -353 q 1103 -395 1119 -376 q 1064 -419 1088 -414 q 1049 -421 1058 -421 q 1013 -408 1029 -421 q 988 -371 996 -394 q 980 -341 982 -356 q 976 -311 978 -326 q 949 232 961 -44 q 931 776 938 508 q 928 789 929 783 q 924 801 926 794 q 896 723 906 763 q 876 643 886 683 q 834 462 854 551 q 794 281 814 372 q 786 249 790 265 q 775 217 782 232 q 751 190 765 199 q 719 182 736 182 q 667 211 688 182 q 654 235 658 222 q 646 263 650 249 q 565 508 607 386 q 490 756 524 629 q 487 769 488 763 q 479 779 486 775 l 476 779 q 472 774 472 779 q 470 672 471 722 q 469 569 469 621 q 475 414 469 490 q 481 258 481 338 q 493 -224 481 15 q 495 -272 494 -247 q 499 -322 496 -297 l 500 -337 q 481 -392 500 -374 q 424 -415 463 -410 q 304 -422 364 -422 q 185 -424 244 -421 l 181 -424 z "},"n":{"ha":1039,"x_min":83,"x_max":983,"o":"m 444 -421 q 313 -419 378 -421 q 183 -417 249 -418 q 114 -364 129 -417 q 106 -314 106 -339 q 99 -228 103 -271 q 94 -143 94 -186 q 93 -62 94 -110 q 91 40 92 -14 q 89 149 90 93 q 86 256 88 206 q 84 347 85 306 q 83 411 83 388 l 83 433 l 85 499 q 88 647 88 574 q 89 794 89 719 q 89 929 89 863 q 86 1058 89 996 l 86 1086 q 88 1155 86 1121 q 89 1224 89 1189 l 89 1256 q 108 1307 89 1288 q 160 1329 126 1326 q 274 1333 215 1333 q 353 1332 314 1333 q 432 1328 392 1331 q 483 1310 467 1325 q 503 1263 499 1294 q 594 834 535 1046 q 713 407 653 622 q 758 247 735 326 q 804 88 781 168 q 811 67 807 76 q 819 46 815 57 q 824 73 822 60 q 825 99 825 86 q 824 140 825 119 q 819 179 822 160 q 799 494 808 338 q 789 811 789 651 l 788 1061 q 788 1144 788 1103 q 792 1221 789 1185 q 793 1249 793 1235 q 796 1276 793 1263 q 818 1317 801 1303 q 858 1331 835 1331 l 861 1331 q 902 1312 886 1328 q 919 1268 918 1296 l 918 1146 q 917 1039 917 1094 q 917 926 917 983 q 921 634 917 779 q 936 342 925 489 q 960 15 949 176 q 981 -303 972 -147 q 983 -319 982 -311 q 983 -336 983 -328 q 919 -417 979 -404 l 899 -419 q 833 -374 856 -419 q 806 -314 818 -344 q 779 -251 793 -283 q 693 1 728 -132 q 618 269 658 135 q 560 472 588 371 q 504 675 532 574 q 499 691 501 683 q 490 704 497 699 q 485 694 485 703 l 485 658 q 483 512 485 583 q 482 376 482 440 q 483 321 482 364 q 484 219 483 278 q 485 91 485 160 q 488 -42 486 22 q 492 -161 490 -107 q 497 -244 494 -215 q 501 -292 500 -268 q 507 -339 501 -315 l 510 -360 q 493 -403 510 -387 q 444 -421 476 -419 z "},"o":{"ha":1014,"x_min":83,"x_max":931,"o":"m 614 -285 q 668 -243 644 -285 q 684 -208 678 -225 q 697 -171 690 -190 q 772 143 747 -15 q 801 467 796 301 l 801 476 q 770 810 801 650 q 686 1131 739 971 q 681 1143 683 1138 q 675 1156 678 1149 q 613 1193 651 1193 q 581 1185 597 1193 q 554 1163 565 1178 q 518 1096 531 1131 q 496 1025 506 1061 q 456 788 467 907 q 438 547 444 669 q 435 492 435 519 q 435 436 435 464 q 457 129 435 276 q 521 -164 479 -18 q 536 -209 528 -187 q 560 -250 544 -231 q 614 -285 586 -285 m 368 -419 q 312 -405 336 -419 q 265 -369 288 -390 q 209 -293 229 -335 q 175 -206 189 -251 q 106 112 129 -47 q 83 442 83 271 q 88 578 83 508 q 108 822 94 701 q 151 1061 122 942 q 263 1276 183 1185 q 299 1310 279 1297 q 346 1325 318 1322 q 421 1331 383 1328 q 497 1333 458 1333 q 585 1328 542 1333 q 671 1311 628 1324 q 758 1260 725 1296 q 808 1171 792 1224 q 877 926 847 1049 q 919 674 907 803 q 927 591 924 632 q 931 510 931 550 l 931 479 q 898 126 924 297 q 818 -212 872 -46 q 803 -258 811 -236 q 783 -300 794 -279 q 628 -412 738 -397 q 559 -419 593 -418 q 490 -421 525 -421 l 368 -419 z "},"p":{"ha":972,"x_min":83,"x_max":889,"o":"m 525 333 q 544 335 533 333 q 568 339 554 336 q 576 340 572 339 q 583 343 581 342 q 695 410 658 361 q 742 529 732 458 q 752 606 749 569 q 758 663 756 643 q 760 676 760 669 q 760 690 760 683 q 759 716 760 704 q 758 738 758 728 q 703 1042 751 894 q 644 1135 683 1100 q 551 1192 606 1171 q 529 1197 540 1194 q 507 1201 518 1199 l 496 1203 q 472 1176 472 1203 l 474 1117 q 478 930 476 1021 q 483 767 481 839 q 483 605 483 700 q 485 408 483 510 q 492 349 485 365 q 525 333 499 333 m 210 -422 q 195 -422 203 -422 q 181 -419 188 -421 q 103 -329 104 -407 q 97 -145 99 -240 q 95 46 96 -50 q 94 237 94 142 q 94 419 94 332 l 94 618 q 94 758 94 689 q 90 896 93 826 q 87 1049 88 972 q 83 1201 86 1125 l 83 1224 q 106 1305 85 1282 q 186 1332 128 1328 l 239 1333 l 342 1332 l 453 1332 l 508 1329 q 708 1254 626 1315 q 826 1076 789 1193 q 889 735 881 908 l 889 722 q 889 690 889 711 q 886 632 889 668 q 878 565 883 604 q 865 486 872 526 q 831 385 856 435 q 766 297 807 336 q 667 234 725 258 q 532 208 608 210 q 497 204 504 208 q 490 179 490 200 l 490 69 q 490 -29 490 21 q 489 -129 489 -79 q 489 -174 489 -151 q 490 -218 489 -196 l 496 -343 q 440 -411 496 -397 q 419 -415 429 -414 q 397 -417 408 -415 q 308 -420 353 -419 q 219 -422 264 -421 l 210 -422 z "},"q":{"ha":1013,"x_min":83,"x_max":929,"o":"m 610 -282 q 638 -274 622 -282 q 651 -254 651 -265 q 647 -240 651 -247 q 640 -226 643 -233 q 594 -118 611 -174 q 566 -6 576 -62 q 549 109 556 51 q 539 225 543 167 q 540 253 539 239 q 544 279 540 267 q 567 315 550 303 q 606 326 583 326 q 664 275 653 324 l 667 249 q 677 121 669 183 q 696 -6 685 58 q 703 -40 699 -22 q 725 -79 708 -58 l 733 -43 l 758 71 q 801 474 801 265 q 773 798 801 638 q 690 1118 744 958 q 684 1137 688 1128 q 676 1154 681 1146 q 614 1194 653 1194 q 554 1163 579 1194 q 519 1097 531 1132 q 497 1026 507 1063 q 450 748 460 888 q 435 465 440 608 l 433 414 q 459 110 433 257 q 528 -183 485 -37 q 576 -268 543 -235 q 610 -282 592 -282 m 868 -449 q 833 -440 850 -449 q 800 -419 815 -431 q 771 -393 785 -407 q 753 -379 761 -385 q 733 -374 744 -374 q 704 -385 719 -374 q 665 -404 686 -399 q 621 -412 643 -410 q 544 -418 582 -417 q 468 -419 506 -419 l 371 -419 q 317 -406 342 -419 q 272 -374 293 -393 q 215 -302 236 -342 q 181 -218 193 -262 q 110 85 136 -67 q 83 397 83 236 q 88 506 83 451 q 103 788 89 649 q 153 1064 118 926 q 196 1178 168 1126 q 264 1279 224 1231 q 299 1310 279 1299 q 343 1325 318 1322 q 417 1331 379 1328 q 490 1333 454 1333 q 577 1329 535 1333 q 663 1314 619 1325 q 810 1168 774 1286 q 876 924 847 1046 q 919 676 906 803 q 927 580 925 628 q 929 483 929 532 q 900 133 929 303 q 822 -204 871 -36 q 815 -228 818 -219 q 813 -244 813 -237 q 819 -264 813 -256 q 844 -287 826 -272 q 875 -312 860 -300 q 904 -337 890 -324 q 929 -387 929 -361 q 917 -422 929 -406 q 868 -449 899 -449 z "},"r":{"ha":985,"x_min":83,"x_max":929,"o":"m 535 331 q 638 358 589 331 q 711 435 686 386 q 731 483 724 458 q 743 535 739 508 q 749 569 746 547 q 753 613 751 590 q 756 652 756 635 q 757 675 757 669 q 753 757 756 715 q 749 839 751 799 q 731 951 744 897 q 697 1060 717 1006 q 665 1113 686 1088 q 617 1158 644 1138 q 560 1190 590 1178 q 501 1203 531 1201 l 497 1203 q 471 1174 471 1203 l 472 1101 q 478 919 475 1010 q 483 736 481 828 q 485 687 485 711 q 485 638 485 663 l 483 504 l 483 364 q 489 341 483 349 q 511 332 494 333 l 535 331 m 210 -425 q 110 -329 110 -425 l 110 -304 q 108 -252 110 -278 q 103 -200 106 -226 q 97 150 101 -12 q 93 471 93 313 l 94 622 q 92 826 94 725 q 86 1028 89 926 q 84 1103 85 1065 q 83 1178 83 1140 l 83 1233 q 178 1332 83 1328 q 268 1336 222 1335 q 358 1338 314 1338 q 438 1336 399 1338 q 515 1329 476 1335 q 707 1256 628 1315 q 824 1086 786 1196 q 871 894 856 990 q 888 701 886 799 l 885 639 q 877 573 882 611 q 865 494 872 535 q 791 319 849 390 q 628 215 733 247 q 617 211 622 214 q 600 204 611 208 q 638 157 615 189 q 684 84 660 125 q 735 -4 708 43 q 785 -95 761 -51 q 828 -176 808 -139 q 860 -235 847 -212 q 876 -260 867 -249 q 894 -285 885 -272 q 908 -303 901 -294 q 919 -322 914 -311 q 929 -358 929 -340 q 910 -403 929 -383 q 869 -418 892 -418 q 824 -399 843 -418 q 778 -345 797 -375 q 739 -283 758 -315 q 690 -191 714 -242 q 638 -88 665 -140 q 583 13 611 -36 q 521 97 554 61 q 511 106 515 101 q 501 117 507 111 q 491 107 493 113 q 489 96 489 101 l 490 76 l 500 -343 q 483 -397 500 -381 q 426 -417 467 -412 q 318 -422 372 -419 q 210 -425 264 -425 z "},"s":{"ha":1042,"x_min":83,"x_max":958,"o":"m 550 -421 q 469 -417 508 -421 q 344 -383 400 -412 q 243 -303 289 -353 q 135 -138 172 -226 q 97 54 97 -50 l 97 60 q 97 124 97 92 q 99 188 97 156 q 158 256 103 251 l 161 256 q 228 196 213 256 l 231 175 q 229 158 231 167 q 226 140 228 149 l 224 85 q 232 -14 224 36 q 282 -143 246 -86 q 372 -247 318 -200 q 410 -271 390 -262 q 469 -285 439 -285 q 546 -253 515 -285 q 578 -164 576 -221 l 578 -142 q 547 32 578 -51 q 519 106 533 69 q 489 178 506 142 q 479 194 486 182 q 463 219 472 206 q 443 246 453 232 q 425 268 433 260 q 394 302 410 285 q 363 335 378 319 q 335 363 347 351 q 317 381 322 375 q 269 428 293 403 q 219 482 244 454 q 136 599 167 538 q 94 711 106 660 q 86 780 89 746 q 83 849 83 814 q 88 928 83 888 q 138 1097 99 1019 q 240 1240 176 1175 q 330 1307 281 1283 q 439 1331 379 1331 l 513 1331 q 573 1331 543 1331 q 619 1332 603 1332 l 642 1332 q 785 1290 728 1332 q 875 1174 843 1247 q 928 906 928 1046 q 904 711 928 813 q 881 669 897 683 q 843 656 865 656 q 826 657 832 656 q 791 679 804 663 q 778 719 778 696 l 781 740 q 797 893 797 817 q 788 1015 797 958 q 769 1099 781 1058 q 722 1171 757 1139 q 669 1197 694 1197 q 628 1185 653 1197 q 603 1170 615 1178 q 583 1151 592 1163 q 515 1065 544 1111 q 474 961 486 1018 q 461 844 461 903 q 465 778 461 811 q 475 713 468 746 q 488 679 478 703 q 504 644 497 656 q 526 614 514 631 q 553 581 538 597 q 606 522 581 551 q 660 469 632 493 q 721 410 688 446 q 782 340 754 375 q 803 313 792 329 q 826 279 815 296 q 844 249 836 263 q 854 232 851 236 q 892 145 875 189 q 925 57 910 101 q 958 -137 958 -39 q 958 -167 958 -153 q 956 -196 957 -181 q 933 -276 951 -237 q 885 -347 915 -315 q 813 -397 856 -378 q 719 -418 771 -417 l 550 -421 l 550 -421 z "},"t":{"ha":969,"x_min":28,"x_max":886,"o":"m 456 -426 q 398 -424 426 -426 q 340 -417 369 -422 q 295 -394 308 -410 q 279 -343 282 -378 q 259 -20 267 -181 q 251 304 251 140 l 253 411 q 256 697 256 554 q 264 985 257 839 q 270 1077 267 1032 q 279 1160 274 1122 l 279 1165 q 272 1192 279 1183 q 244 1203 264 1200 q 174 1207 208 1207 q 148 1207 161 1207 q 122 1206 135 1207 q 97 1207 110 1207 q 74 1210 85 1207 q 40 1231 53 1215 q 28 1267 28 1246 l 28 1271 q 67 1328 28 1308 q 104 1335 85 1335 l 121 1333 q 403 1331 264 1332 q 686 1331 543 1331 l 781 1331 q 836 1324 806 1331 q 873 1301 860 1317 q 886 1264 886 1285 l 885 1254 q 865 1217 882 1232 q 822 1201 849 1203 l 700 1201 q 674 1201 683 1201 q 661 1196 665 1200 q 655 1183 657 1192 q 651 1157 653 1174 q 633 903 636 1031 q 629 650 629 776 l 629 422 q 627 324 628 374 q 626 226 626 275 q 628 97 626 161 q 635 -33 629 32 q 640 -169 640 -101 q 651 -304 640 -236 q 653 -313 653 -308 q 653 -322 653 -318 l 651 -349 q 633 -394 647 -378 q 589 -415 618 -411 q 522 -424 556 -421 q 456 -426 489 -426 z "},"u":{"ha":1022,"x_min":83,"x_max":939,"o":"m 461 -424 q 386 -420 424 -424 q 313 -411 349 -417 q 202 -358 243 -403 q 142 -250 161 -314 q 119 -144 125 -197 q 110 -36 113 -90 l 86 365 q 83 447 83 392 q 83 556 83 501 q 83 634 83 600 q 85 678 83 668 q 99 979 90 843 q 121 1246 108 1115 q 146 1308 126 1290 q 211 1329 165 1326 q 284 1334 247 1332 q 357 1336 321 1336 q 383 1336 371 1336 q 410 1335 396 1336 q 477 1315 458 1331 q 496 1257 496 1299 l 494 1235 q 483 1106 489 1169 q 474 975 478 1042 q 464 809 468 892 q 456 643 460 726 l 456 618 q 456 562 456 596 q 458 492 457 528 q 459 424 458 457 q 461 372 460 392 q 474 162 468 267 q 486 -51 479 57 q 492 -110 489 -81 q 500 -168 496 -139 q 504 -190 501 -179 q 510 -211 507 -200 q 533 -253 518 -235 q 572 -276 547 -272 l 582 -278 q 619 -262 604 -278 q 646 -228 633 -247 q 697 -117 679 -175 q 731 1 715 -58 q 769 239 758 121 q 783 478 781 357 q 783 513 783 496 q 786 549 783 531 q 800 711 796 629 q 806 876 804 793 q 807 1043 807 958 q 808 1215 807 1128 q 809 1245 808 1231 q 813 1275 810 1260 q 835 1317 819 1303 q 875 1332 851 1332 l 883 1332 q 939 1261 939 1325 q 936 1102 938 1176 q 935 956 935 1028 q 929 745 933 850 q 914 535 925 640 q 906 391 907 463 q 899 246 906 319 q 869 39 888 142 q 817 -164 850 -64 q 786 -238 804 -203 q 747 -308 768 -274 q 684 -374 722 -351 q 600 -408 646 -397 q 531 -420 565 -417 q 461 -424 497 -424 z "},"v":{"ha":1017,"x_min":83,"x_max":933,"o":"m 435 -424 q 392 -424 414 -424 q 350 -421 371 -424 q 316 -416 329 -419 q 293 -405 303 -412 q 277 -385 283 -397 q 264 -351 271 -372 q 252 -303 256 -328 q 249 -253 249 -278 q 237 -137 247 -194 q 218 -22 226 -81 q 158 363 186 174 q 117 729 131 553 q 83 1222 96 976 q 83 1244 83 1233 q 85 1265 83 1254 q 144 1329 93 1324 q 202 1333 174 1332 q 260 1335 231 1335 q 327 1333 293 1335 q 394 1328 361 1331 q 450 1251 450 1322 q 458 1077 451 1164 q 471 903 464 990 q 499 569 482 743 q 551 215 517 394 q 558 166 557 192 q 574 108 558 140 q 593 250 585 183 q 613 382 601 317 q 694 833 649 613 q 790 1243 739 1053 q 800 1274 794 1258 q 815 1304 806 1290 q 868 1332 836 1332 q 894 1326 883 1332 q 923 1304 913 1319 q 933 1271 933 1289 q 929 1249 933 1258 q 833 872 872 1076 q 754 456 794 668 q 710 160 726 308 q 679 -139 694 11 q 666 -243 674 -192 q 643 -346 658 -294 q 613 -404 632 -390 q 550 -421 594 -418 q 492 -423 521 -422 q 435 -424 464 -424 z "},"w":{"ha":1228,"x_min":83,"x_max":1144,"o":"m 331 -421 q 274 -407 292 -421 q 246 -357 257 -393 q 226 -267 233 -312 q 217 -176 219 -222 q 189 65 208 -53 q 154 314 169 183 q 147 380 151 340 q 139 468 143 419 q 130 572 135 517 q 121 682 125 626 q 101 958 111 821 q 83 1232 90 1096 l 83 1239 q 107 1308 83 1286 q 174 1331 131 1331 l 351 1332 q 419 1312 400 1331 q 440 1244 439 1293 q 466 831 449 1038 q 499 413 483 624 q 506 344 501 385 q 518 256 511 304 q 533 152 525 207 q 551 42 542 97 l 565 42 q 590 183 578 113 q 614 324 603 253 q 647 524 629 424 q 671 725 664 624 q 683 779 674 754 q 710 813 690 801 q 754 825 731 825 l 764 825 q 804 806 789 822 q 824 763 819 790 l 822 689 q 827 557 822 622 q 838 426 832 492 q 850 294 844 360 q 857 164 856 229 q 866 64 858 114 q 885 -37 874 14 q 898 -23 897 -32 q 901 -6 899 -14 q 940 278 924 136 q 969 556 957 419 q 990 822 981 693 q 1008 1065 999 950 q 1012 1146 1011 1106 q 1014 1226 1013 1186 q 1014 1242 1014 1235 q 1015 1258 1014 1250 q 1082 1332 1024 1332 l 1088 1332 q 1144 1256 1144 1325 l 1144 1251 q 1135 1027 1143 1139 q 1118 803 1126 915 q 1108 676 1114 746 q 1097 530 1103 607 q 1081 369 1090 453 q 1060 203 1072 286 q 1022 -72 1039 65 q 1009 -192 1014 -132 q 993 -310 1004 -251 q 986 -342 989 -326 q 976 -374 983 -358 q 914 -421 957 -421 q 867 -403 889 -421 q 825 -351 839 -381 q 803 -289 811 -321 q 769 -125 783 -206 q 744 13 756 -56 q 722 153 732 82 q 697 56 706 104 q 682 -43 689 7 q 656 -188 671 -117 q 621 -331 642 -260 q 604 -374 613 -357 q 583 -402 596 -392 q 551 -417 569 -412 q 503 -421 532 -421 l 417 -422 l 331 -421 z "},"x":{"ha":1082,"x_min":83,"x_max":999,"o":"m 143 -418 q 114 -410 128 -418 q 83 -356 83 -392 q 85 -339 83 -344 q 91 -323 88 -331 q 97 -308 94 -315 q 222 -34 154 -175 q 360 250 289 107 q 375 310 375 283 q 369 345 372 332 q 363 371 367 358 q 265 689 310 531 q 178 999 221 847 q 155 1113 163 1056 q 128 1226 147 1169 q 124 1240 125 1233 q 122 1254 122 1247 q 144 1304 122 1283 q 206 1329 167 1325 q 272 1332 239 1332 q 339 1333 306 1332 q 369 1332 354 1333 q 400 1331 385 1331 q 446 1326 429 1329 q 474 1315 463 1324 q 492 1290 485 1307 q 510 1246 500 1274 q 522 1206 517 1226 q 529 1165 526 1186 q 567 997 543 1086 q 622 807 592 907 q 641 827 633 814 q 656 853 649 840 q 766 1075 710 967 q 864 1279 822 1183 q 883 1311 871 1299 q 926 1331 903 1331 q 949 1326 938 1331 q 988 1276 983 1314 l 988 1268 q 981 1228 988 1246 q 965 1192 974 1210 q 857 971 914 1089 q 738 731 800 853 q 700 652 713 679 q 688 597 688 625 q 694 551 688 576 q 713 493 701 525 q 781 264 749 378 q 850 36 814 150 q 911 -136 878 -51 q 989 -301 944 -221 q 996 -319 993 -311 q 999 -337 999 -328 q 982 -381 999 -361 q 935 -407 965 -400 q 878 -416 907 -414 q 819 -418 849 -418 l 692 -418 q 641 -401 661 -415 q 610 -360 621 -387 q 536 -176 575 -267 q 471 10 497 -86 q 457 61 464 36 q 439 101 450 86 q 421 84 425 94 q 411 63 417 74 q 313 -140 360 -40 q 228 -331 267 -239 q 214 -363 221 -347 q 194 -393 207 -379 q 143 -418 174 -418 z "},"y":{"ha":976,"x_min":56,"x_max":893,"o":"m 451 -421 q 389 -420 419 -421 q 326 -418 358 -419 q 263 -354 269 -414 q 261 -332 261 -347 l 261 -310 q 256 -119 260 -214 q 253 71 253 -25 l 256 164 q 250 201 256 186 q 208 391 224 296 q 176 582 192 486 q 139 792 157 688 q 103 1003 121 897 q 84 1104 93 1054 q 61 1204 75 1154 q 57 1223 58 1214 q 56 1240 56 1232 q 81 1303 56 1279 q 153 1329 107 1326 l 229 1331 l 300 1331 q 334 1331 317 1331 q 369 1329 351 1331 q 422 1309 407 1328 q 443 1254 436 1290 q 472 1090 457 1171 q 503 926 488 1010 l 564 578 l 578 511 q 597 563 593 538 q 607 611 600 588 q 675 923 644 767 q 751 1233 706 1079 q 761 1265 756 1249 q 774 1294 767 1281 q 799 1323 783 1314 q 832 1332 814 1332 q 853 1329 846 1332 q 893 1271 893 1314 l 890 1251 q 871 1185 882 1218 q 853 1118 860 1153 q 771 747 811 932 q 686 376 731 563 q 650 201 663 286 q 638 49 638 115 l 639 -10 q 643 -165 643 -87 q 644 -319 643 -242 l 644 -329 q 625 -393 644 -374 q 560 -417 606 -412 q 451 -421 506 -421 z "},"z":{"ha":994,"x_min":83,"x_max":911,"o":"m 164 -424 q 83 -344 83 -417 q 83 -334 83 -339 q 85 -322 83 -329 q 193 206 128 -54 q 338 728 258 467 q 394 897 364 808 q 461 1074 425 985 q 483 1131 472 1101 q 503 1203 493 1160 q 415 1205 458 1203 q 326 1207 371 1207 q 240 1203 283 1207 q 211 1200 225 1201 q 182 1199 197 1199 l 157 1200 q 89 1264 89 1208 l 89 1267 q 108 1310 89 1294 q 160 1328 126 1325 q 263 1332 201 1331 q 392 1333 325 1333 q 484 1333 439 1333 q 566 1332 529 1332 q 628 1331 603 1332 q 661 1331 653 1331 q 738 1329 700 1331 q 814 1326 775 1328 q 888 1247 883 1325 q 884 1218 888 1232 q 875 1189 881 1204 q 816 1021 849 1103 q 754 856 783 939 q 665 566 706 717 q 578 264 624 415 q 517 8 539 136 q 469 -251 496 -121 l 465 -276 q 493 -294 465 -294 l 589 -294 q 670 -294 629 -294 q 751 -293 711 -294 q 787 -290 769 -292 q 824 -287 804 -287 q 840 -287 832 -287 q 857 -290 849 -287 q 897 -313 882 -296 q 911 -354 911 -331 l 911 -357 q 894 -397 911 -381 q 850 -417 878 -414 q 580 -422 714 -418 q 310 -426 446 -426 l 164 -424 z "},"{":{"ha":740,"x_min":83,"x_max":657,"o":"m 481 -422 q 419 -419 450 -422 q 357 -412 389 -417 q 315 -392 332 -408 q 286 -354 299 -375 q 234 -235 250 -297 q 211 -107 218 -174 q 208 -45 208 -76 q 207 18 207 -14 l 207 218 q 190 306 206 267 q 132 375 174 344 q 83 447 83 413 q 132 519 83 483 q 190 593 175 551 q 207 683 206 635 l 207 915 q 212 1031 207 974 q 235 1146 217 1089 q 272 1241 254 1204 q 313 1298 289 1278 q 370 1325 336 1318 q 458 1332 404 1332 l 493 1332 q 543 1329 518 1331 q 593 1325 568 1328 q 640 1304 624 1321 q 657 1264 657 1288 q 643 1224 657 1243 q 585 1090 599 1160 q 568 944 571 1019 l 567 854 l 568 696 q 554 576 568 633 q 496 469 540 518 q 488 453 488 461 q 496 436 488 444 q 553 333 539 389 q 568 215 567 276 l 568 7 q 570 -65 568 -29 q 579 -137 572 -101 q 599 -221 586 -181 q 638 -297 613 -261 q 657 -349 657 -325 q 594 -410 657 -393 q 538 -419 567 -417 q 481 -422 510 -422 z "},"|":{"ha":558,"x_min":85,"x_max":475,"o":"m 182 -421 q 124 -401 142 -418 q 104 -344 107 -385 q 96 -185 99 -267 q 89 86 93 -49 q 85 357 85 221 l 85 951 q 86 1093 86 1022 q 96 1235 86 1164 q 103 1274 99 1258 q 117 1299 108 1289 q 142 1313 126 1308 q 182 1322 158 1318 q 252 1329 218 1326 q 322 1332 286 1332 q 387 1330 360 1331 q 432 1322 414 1329 q 458 1299 450 1315 q 467 1254 467 1283 q 463 1192 465 1221 q 460 1135 461 1164 q 458 1077 458 1107 q 457 1011 457 1047 q 459 863 458 928 q 460 734 460 797 q 462 601 461 671 q 463 438 463 531 q 463 200 463 318 q 465 -37 463 82 q 471 -167 467 -104 q 475 -296 475 -231 q 474 -348 475 -328 q 464 -381 472 -368 q 439 -401 456 -393 q 392 -414 422 -408 q 333 -421 363 -419 q 275 -422 304 -422 l 182 -421 z "},"}":{"ha":494,"x_min":83,"x_max":413,"o":"m 144 -421 q 102 -401 121 -421 q 83 -358 83 -382 q 106 -308 83 -332 q 144 -244 133 -279 q 163 -172 156 -208 q 175 -83 172 -128 q 178 8 178 -37 l 175 154 q 178 227 175 193 q 188 293 181 261 q 208 356 194 325 q 243 421 221 388 q 252 436 249 429 q 256 451 256 443 q 247 475 256 463 q 190 603 206 536 q 174 743 174 671 q 176 826 175 785 q 176 901 176 867 q 172 1018 176 958 q 151 1131 168 1078 q 133 1179 143 1156 q 103 1224 122 1203 q 83 1269 83 1246 q 101 1313 83 1294 q 144 1332 119 1332 q 208 1301 179 1332 q 253 1229 236 1269 q 292 1097 281 1164 q 306 958 303 1029 l 306 847 l 304 847 q 304 777 304 811 q 306 708 304 743 q 381 511 306 594 q 413 450 413 475 q 381 390 413 426 q 304 188 307 304 l 306 -36 q 294 -176 304 -107 q 256 -312 283 -246 q 232 -359 244 -336 q 197 -399 219 -382 q 144 -421 168 -421 z "},"~":{"ha":972,"x_min":83,"x_max":889,"o":"m 643 347 q 522 361 581 347 q 407 397 464 375 q 351 419 378 408 q 296 429 324 429 q 222 407 257 429 l 179 383 q 143 375 160 375 q 100 394 117 375 q 83 436 83 413 q 113 489 83 468 q 199 540 154 519 q 296 560 244 560 q 369 548 332 560 q 444 519 406 536 q 544 487 489 500 q 647 474 599 474 q 718 487 685 474 q 779 536 751 500 q 826 560 799 560 q 870 541 851 560 q 889 496 889 522 q 883 467 889 476 q 865 440 876 457 q 767 367 819 386 q 643 347 715 347 z "},"":{"ha":586,"x_min":83,"x_max":503,"o":"m 240 758 q 324 757 282 757 q 407 754 365 757 q 480 728 460 751 q 501 653 500 706 l 503 582 q 496 351 503 465 q 486 121 489 236 l 481 -307 q 481 -326 481 -317 q 479 -346 481 -336 q 460 -392 475 -376 q 415 -412 446 -408 q 338 -420 376 -418 q 258 -422 299 -422 q 150 -418 204 -422 q 86 -342 86 -414 l 86 -332 q 90 -231 89 -282 q 92 -125 92 -181 l 90 40 q 99 317 90 175 q 108 607 108 460 l 107 667 q 121 718 107 703 q 169 746 135 733 q 240 758 203 758 m 296 1332 q 356 1331 326 1332 q 417 1329 386 1331 q 488 1264 476 1328 q 491 1229 490 1247 q 492 1193 492 1211 l 497 1015 q 478 949 497 969 q 410 926 458 929 l 371 925 l 215 922 l 176 924 q 100 1000 104 928 q 99 1072 99 1036 q 99 1144 99 1108 q 96 1185 97 1165 q 88 1226 94 1206 q 83 1251 83 1239 q 102 1299 83 1279 q 151 1322 121 1318 q 224 1330 188 1328 q 296 1332 260 1332 z "},"":{"ha":972,"x_min":83,"x_max":889,"o":"m 467 340 q 524 537 501 438 q 565 736 546 636 l 565 740 q 558 749 565 749 q 550 747 554 749 q 543 744 546 746 q 497 704 513 729 q 475 649 482 679 q 458 469 458 558 q 467 340 458 404 m 372 -421 q 354 -418 365 -421 q 311 -360 311 -404 q 312 -349 311 -354 q 314 -337 313 -344 q 337 -232 325 -287 q 364 -119 349 -176 q 378 -62 372 -92 q 390 -6 383 -33 l 392 4 q 365 26 392 25 l 310 31 q 218 60 257 33 q 156 133 179 86 q 103 268 122 200 q 83 411 83 336 l 83 432 q 89 551 86 492 q 103 669 92 610 q 299 889 136 840 q 499 919 394 919 l 557 917 l 586 914 q 611 924 606 914 q 625 964 617 935 q 648 1047 636 1007 q 672 1125 660 1086 q 698 1203 685 1164 q 726 1285 711 1242 q 786 1332 742 1332 l 792 1332 q 831 1312 815 1329 q 849 1268 847 1294 l 849 1258 q 842 1222 849 1239 q 829 1188 836 1204 q 783 1054 800 1117 q 744 919 767 992 q 740 900 740 907 q 764 865 740 882 q 834 783 810 832 q 858 681 858 733 q 850 619 858 650 q 833 585 843 599 q 783 556 813 556 l 767 558 q 724 617 724 569 l 724 622 q 725 642 724 632 q 728 661 726 651 l 728 676 q 723 711 728 693 q 700 750 718 729 q 635 451 669 596 q 561 163 600 307 q 614 150 588 150 q 660 159 638 150 q 707 179 683 168 q 726 198 719 186 q 738 224 733 210 q 751 281 746 251 q 760 338 756 310 q 765 368 763 353 q 772 397 767 383 q 794 428 779 418 q 829 439 810 439 l 836 439 q 872 423 856 436 q 889 389 889 410 q 885 311 888 350 q 875 235 883 272 q 851 163 867 197 q 807 97 835 128 q 728 44 774 61 q 633 22 682 26 l 582 21 l 554 21 q 528 11 536 21 q 517 -17 519 1 q 502 -97 511 -57 q 483 -175 493 -136 q 463 -251 472 -214 q 447 -326 453 -289 q 442 -351 446 -339 q 433 -374 439 -362 q 408 -409 424 -397 q 372 -421 392 -421 z "},"":{"ha":1022,"x_min":83,"x_max":939,"o":"m 353 -429 q 226 -414 292 -429 q 156 -377 175 -400 q 138 -303 138 -354 l 138 -296 q 161 -119 139 -206 q 203 53 183 -33 q 219 110 210 82 q 232 169 229 139 q 193 176 214 176 l 169 176 q 147 179 158 178 q 125 183 136 181 q 83 239 83 199 l 83 247 q 133 301 89 290 q 155 304 144 304 q 176 306 165 304 l 199 306 q 210 306 204 306 q 221 308 215 306 l 222 319 q 216 344 222 333 q 206 367 210 356 q 155 555 169 460 q 140 750 140 650 l 140 765 q 149 937 142 851 q 179 1106 156 1022 q 188 1135 183 1121 q 197 1164 192 1149 q 440 1332 261 1331 l 582 1332 q 631 1332 606 1332 q 679 1331 656 1332 q 774 1301 735 1328 q 838 1225 814 1274 q 872 1126 861 1176 q 883 1025 883 1075 q 860 863 883 946 q 836 824 853 838 q 800 811 819 811 q 785 813 790 811 q 750 833 763 817 q 738 875 738 850 q 739 894 738 888 q 751 960 746 928 q 756 1026 756 993 q 736 1135 756 1086 q 703 1183 725 1167 q 658 1199 682 1199 q 586 1163 618 1199 q 551 1100 563 1136 q 523 978 533 1039 q 510 854 513 917 q 508 805 508 829 q 508 756 508 781 q 513 633 508 693 q 532 513 517 574 q 562 414 543 461 q 604 321 581 367 q 657 289 622 289 q 801 297 731 292 l 836 299 l 851 299 q 896 280 879 296 q 914 240 913 264 l 914 235 q 901 199 914 214 q 864 178 888 185 q 831 172 847 174 q 797 168 814 169 q 681 164 739 164 l 654 164 q 600 128 614 164 q 581 69 589 99 q 565 10 574 40 q 535 -106 550 -47 q 499 -244 521 -165 l 494 -269 q 517 -285 494 -285 l 565 -283 q 619 -289 593 -283 q 676 -297 644 -294 q 699 -299 688 -299 q 721 -300 710 -300 q 782 -292 753 -300 q 839 -260 811 -283 q 878 -244 854 -244 q 919 -261 903 -244 q 939 -306 939 -281 q 924 -347 939 -325 q 859 -400 896 -383 q 781 -424 822 -417 q 740 -428 760 -428 l 719 -426 q 693 -424 706 -425 q 667 -424 681 -424 q 592 -419 642 -424 q 496 -414 543 -414 q 472 -415 483 -414 q 450 -417 461 -415 q 402 -425 425 -421 q 353 -429 379 -429 z "},"":{"ha":1232,"x_min":83,"x_max":1149,"o":"m 629 306 q 745 341 692 313 q 839 417 799 369 q 868 482 868 450 q 818 564 868 526 q 746 599 782 589 q 682 611 710 610 l 663 611 q 572 597 610 611 q 503 558 535 582 q 471 533 486 546 q 456 497 456 521 l 460 474 q 456 460 460 467 q 450 449 453 454 q 443 421 443 436 q 463 378 443 397 q 530 325 494 346 q 608 304 565 304 l 629 306 m 1088 -24 q 1053 -12 1068 -24 q 1033 3 1042 -6 q 1017 21 1025 11 q 840 214 929 115 q 826 226 833 221 q 811 231 819 231 q 793 225 803 231 q 678 181 738 190 q 556 171 618 171 l 496 172 q 432 161 458 172 q 383 121 406 150 q 334 65 360 92 q 282 10 308 38 q 272 0 276 4 q 261 -8 268 -4 q 219 -22 243 -22 q 181 -8 196 -22 q 160 38 160 13 q 171 74 160 54 q 195 103 182 89 q 221 133 208 118 q 265 182 242 158 q 268 188 268 185 q 269 197 268 190 q 219 228 244 213 q 169 263 193 243 q 106 346 126 300 q 83 451 86 392 l 83 460 q 115 581 83 533 q 206 665 147 629 q 248 692 226 679 q 293 721 269 706 l 199 818 q 186 830 192 825 q 176 842 181 835 q 160 885 160 863 q 178 928 160 907 q 225 947 197 947 q 265 935 246 947 q 285 917 275 929 q 355 841 317 875 q 429 771 393 807 q 458 751 443 756 q 493 746 474 746 l 538 746 q 669 742 604 746 q 796 717 733 738 l 808 714 q 835 729 822 714 q 927 817 879 775 q 1017 908 975 860 q 1027 922 1022 915 q 1039 933 1032 928 q 1082 947 1058 947 q 1131 928 1111 947 q 1149 883 1149 906 q 1131 842 1149 861 q 1091 799 1111 819 q 1050 757 1071 778 l 994 704 q 961 676 979 689 q 938 643 943 663 l 936 636 q 951 606 936 619 q 972 578 965 593 q 996 483 996 532 q 984 416 996 449 q 951 351 972 383 q 937 328 942 336 q 932 314 932 321 q 938 298 932 306 q 958 275 944 290 l 1104 114 q 1124 92 1115 103 q 1140 65 1133 81 q 1147 36 1147 49 q 1125 -10 1147 8 q 1088 -24 1107 -24 z "},"":{"ha":1015,"x_min":83,"x_max":932,"o":"m 496 -422 q 368 -418 432 -422 q 310 -356 314 -415 q 308 -324 308 -344 q 307 -279 307 -303 l 307 -247 q 269 -211 307 -211 l 242 -211 l 175 -210 q 150 -209 163 -210 q 126 -203 138 -208 q 83 -144 83 -187 l 83 -139 q 133 -86 90 -94 q 157 -83 144 -83 q 182 -82 169 -82 q 224 -83 203 -82 q 265 -85 244 -83 l 274 -85 q 303 -56 303 -85 l 301 39 l 301 76 q 292 104 301 97 q 264 111 282 111 l 238 111 l 175 113 q 153 115 164 114 q 132 119 142 117 q 100 142 111 126 q 89 176 89 157 l 89 183 q 139 238 94 226 q 183 242 161 242 l 243 239 l 264 238 q 288 253 288 238 q 283 282 288 263 q 211 678 243 482 q 146 1061 179 875 q 132 1128 139 1094 q 115 1196 125 1163 q 108 1239 108 1221 q 135 1305 108 1281 q 213 1331 163 1329 l 418 1331 q 472 1310 457 1328 q 494 1253 486 1293 q 522 1107 508 1186 q 550 946 535 1028 l 613 596 q 618 565 615 581 q 625 529 621 550 q 644 584 640 557 q 656 636 649 611 q 722 944 693 792 q 792 1236 751 1097 q 801 1267 796 1251 q 815 1299 807 1283 q 840 1324 825 1315 q 869 1332 854 1332 q 890 1329 883 1332 q 921 1308 910 1322 q 932 1272 932 1293 l 929 1254 q 910 1187 921 1219 q 892 1121 900 1154 q 822 790 858 961 q 744 443 785 618 q 724 356 735 399 q 703 269 714 314 l 699 244 q 704 231 699 233 q 724 228 710 228 l 740 228 q 782 231 761 229 q 824 235 803 232 l 846 235 q 857 235 851 235 q 868 233 863 235 q 905 215 892 231 q 921 178 918 199 l 921 172 q 876 115 921 129 q 842 108 860 110 q 806 104 824 107 q 767 101 786 101 q 728 100 747 101 q 704 98 713 99 q 692 93 696 97 q 687 81 688 89 q 686 58 686 72 q 686 3 686 31 q 688 -51 686 -24 q 693 -87 689 -79 q 717 -96 697 -96 l 738 -94 q 778 -92 758 -93 q 819 -87 799 -90 l 858 -87 q 914 -142 910 -96 l 914 -151 q 903 -186 914 -171 q 868 -208 892 -201 q 805 -218 836 -217 q 742 -222 774 -219 q 713 -224 724 -224 q 697 -229 703 -225 q 690 -240 692 -233 q 689 -261 689 -247 l 689 -281 q 692 -315 690 -299 q 693 -339 693 -332 q 624 -417 690 -411 q 560 -421 592 -419 q 496 -422 528 -422 z "},"":{"ha":558,"x_min":83,"x_max":475,"o":"m 240 519 q 202 519 221 519 q 164 521 183 519 q 100 585 106 525 q 94 651 96 618 q 92 718 93 685 l 83 1179 q 85 1221 83 1200 q 89 1261 86 1242 q 146 1322 96 1311 q 265 1332 203 1332 q 333 1329 299 1332 q 400 1324 367 1326 q 438 1302 425 1321 q 451 1253 451 1283 l 451 1204 q 453 1067 451 1135 q 457 938 454 1000 l 457 847 q 458 738 457 790 q 463 632 458 685 l 464 613 l 461 583 q 442 543 456 557 q 401 526 429 529 q 321 522 361 524 q 240 519 281 519 m 275 -422 q 223 -422 249 -422 q 171 -419 197 -421 q 111 -358 118 -418 q 103 -236 104 -297 l 94 263 q 99 324 94 300 q 119 360 104 347 q 159 379 133 374 q 226 389 185 385 q 247 390 238 390 q 268 390 257 390 q 336 388 303 390 q 404 382 369 385 q 463 308 461 378 l 463 181 l 465 81 q 466 34 465 57 q 468 -12 467 11 q 469 -160 469 -87 q 474 -307 468 -233 l 475 -329 l 474 -351 q 455 -398 469 -382 q 410 -417 440 -414 q 342 -421 375 -419 q 275 -422 308 -422 z "},"":{"ha":1078,"x_min":83,"x_max":994,"o":"m 540 311 q 576 325 554 311 q 599 345 589 335 q 615 371 608 356 q 626 433 626 400 q 609 524 626 478 q 563 596 592 571 q 535 608 547 608 q 508 599 525 608 q 463 548 474 579 q 450 481 451 517 q 465 403 453 440 q 506 335 478 367 q 540 311 525 311 m 344 -419 q 252 -396 296 -418 q 175 -338 208 -374 q 122 -258 142 -303 q 103 -165 103 -214 l 103 -156 q 122 -104 106 -124 q 165 -83 138 -85 l 168 -83 q 209 -99 192 -83 q 229 -146 226 -115 q 242 -197 232 -174 q 265 -243 251 -221 q 338 -290 293 -290 q 364 -286 349 -290 q 459 -245 418 -274 q 517 -158 500 -217 q 528 -103 524 -131 q 533 -49 533 -76 q 519 47 533 6 q 494 88 510 74 q 450 110 479 103 q 331 144 389 125 q 219 200 272 164 q 163 253 188 222 q 119 322 138 285 q 92 399 101 358 q 83 479 83 439 q 90 543 83 511 q 110 603 96 575 q 151 662 125 638 q 208 706 176 686 q 231 722 224 717 q 238 735 238 728 q 225 768 238 743 q 176 961 176 864 q 238 1182 176 1072 q 278 1235 253 1213 q 333 1274 303 1257 q 432 1315 382 1299 q 536 1331 482 1331 l 692 1331 q 721 1331 707 1331 q 750 1329 735 1331 q 883 1269 828 1328 q 974 1089 957 1193 l 975 1072 q 968 1035 975 1053 q 913 994 953 997 l 908 994 q 856 1031 872 994 q 849 1049 851 1039 q 846 1068 847 1058 q 834 1114 844 1093 q 813 1154 824 1135 q 739 1201 785 1201 q 714 1197 726 1201 q 619 1156 660 1185 q 561 1069 578 1128 q 549 1015 554 1042 q 544 960 544 988 q 558 872 544 914 q 583 831 567 846 q 628 810 599 817 q 747 775 689 794 q 858 719 806 756 q 915 666 890 697 q 958 598 940 635 q 985 521 976 561 q 994 440 994 481 q 988 376 994 408 q 968 317 982 344 q 927 258 953 282 q 869 214 901 233 q 847 197 854 203 q 839 185 839 192 q 842 172 839 179 q 853 151 846 164 q 901 -50 901 56 q 840 -271 901 -161 q 801 -322 825 -300 q 750 -360 778 -343 q 643 -404 697 -387 q 529 -421 589 -421 l 344 -419 z "},"":{"ha":1046,"x_min":83,"x_max":963,"o":"m 289 922 q 226 923 257 922 q 164 925 196 924 q 115 942 131 926 q 92 993 99 958 q 88 1031 89 1013 q 86 1068 86 1049 l 86 1081 q 86 1112 86 1096 q 83 1143 86 1128 l 83 1238 q 101 1303 83 1282 q 164 1326 118 1324 q 243 1331 204 1329 q 322 1332 282 1332 q 362 1332 342 1332 q 401 1331 382 1332 q 460 1309 442 1328 q 481 1250 478 1290 q 483 1178 483 1214 q 483 1106 482 1142 q 485 1067 483 1086 q 492 1029 486 1049 q 496 1001 496 1014 q 477 955 496 974 q 425 931 458 936 q 356 924 390 925 q 289 922 322 922 m 747 925 l 636 925 q 583 942 600 926 q 558 993 565 957 q 555 1022 556 1008 q 554 1051 554 1036 l 554 1121 q 551 1185 553 1153 q 550 1249 550 1217 q 567 1304 550 1285 q 619 1325 583 1324 q 706 1330 664 1328 q 792 1332 749 1332 q 830 1332 811 1332 q 868 1329 849 1332 q 926 1308 908 1326 q 947 1249 944 1289 q 949 1177 950 1213 q 950 1106 949 1142 q 951 1067 950 1086 q 958 1029 953 1049 q 963 1001 963 1014 q 944 954 963 974 q 892 931 925 935 q 819 926 856 926 q 747 922 783 925 l 747 925 z "},"":{"ha":1571,"x_min":83,"x_max":1488,"o":"m 775 -207 q 963 -168 875 -207 q 1133 -56 1051 -129 q 1256 98 1208 13 q 1335 278 1304 183 q 1363 451 1363 365 q 1357 528 1363 490 q 1339 606 1351 567 q 1269 774 1311 694 q 1163 924 1228 854 q 1120 972 1140 947 q 1079 1019 1100 996 q 1022 1073 1053 1051 q 954 1111 990 1094 q 913 1128 931 1122 q 881 1133 896 1133 q 840 1121 860 1133 q 793 1081 821 1108 q 739 1053 763 1053 q 685 1090 707 1053 q 671 1106 678 1101 q 657 1110 664 1110 q 649 1109 653 1110 q 639 1107 644 1108 q 585 1088 611 1100 q 533 1061 558 1076 q 469 1018 500 1042 q 406 971 438 994 q 290 818 329 911 q 229 608 246 715 q 211 390 213 501 q 226 206 211 296 q 281 29 240 117 q 345 -61 307 -24 q 438 -119 383 -99 l 600 -176 q 775 -207 690 -207 m 778 -337 q 574 -303 676 -337 l 406 -244 q 258 -155 318 -212 q 158 -12 197 -97 q 100 181 117 83 q 83 382 83 279 l 85 450 q 109 662 89 558 q 171 865 129 765 q 235 979 197 928 q 326 1071 274 1031 q 424 1144 375 1108 q 531 1204 474 1179 q 609 1232 569 1221 q 690 1243 649 1243 q 721 1242 706 1243 q 751 1236 736 1240 l 764 1235 q 794 1243 779 1235 q 876 1261 832 1261 q 951 1249 914 1261 q 1063 1199 1011 1229 q 1157 1124 1115 1169 q 1234 1039 1196 1081 q 1306 951 1272 997 q 1379 837 1346 896 q 1437 713 1413 778 q 1474 576 1461 649 q 1488 419 1488 503 l 1488 414 q 1397 80 1478 239 q 1156 -201 1315 -79 q 974 -303 1068 -268 q 778 -337 881 -337 m 763 19 q 665 24 717 19 q 561 33 614 28 q 479 65 513 39 q 424 133 446 90 q 369 268 389 200 q 350 411 350 336 l 350 432 q 356 553 353 493 q 372 675 360 614 q 556 885 404 835 q 663 912 610 903 q 771 921 717 921 q 993 885 881 921 q 1048 854 1024 875 q 1090 805 1072 833 q 1118 744 1108 776 q 1128 678 1128 711 q 1110 599 1128 633 q 1050 556 1088 556 l 1033 558 q 990 624 990 571 l 990 628 q 994 655 992 642 q 996 683 996 668 l 996 694 q 972 750 990 732 q 915 769 953 768 l 910 769 q 853 763 882 769 q 801 740 825 756 q 761 697 778 724 q 739 631 744 671 q 728 533 732 582 q 724 433 724 483 l 726 364 q 744 275 729 318 q 779 190 760 232 q 799 165 788 175 q 828 156 810 156 l 831 156 q 859 153 846 156 q 888 150 872 150 l 908 153 q 981 189 953 164 q 1015 263 1010 214 q 1023 320 1018 292 q 1035 378 1028 349 q 1097 439 1046 439 l 1106 439 q 1144 417 1129 435 q 1158 372 1158 400 l 1158 361 q 1146 262 1154 311 q 1119 165 1138 213 q 1076 99 1104 125 q 1011 53 1049 72 q 952 31 982 38 q 892 23 922 25 q 828 21 861 21 q 763 19 796 21 z "},"":{"ha":865,"x_min":83,"x_max":782,"o":"m 474 940 q 617 953 547 949 q 644 961 635 954 q 653 986 653 968 l 653 990 q 651 1040 651 1015 q 651 1090 651 1065 q 631 1178 650 1154 q 557 1203 613 1203 l 531 1201 l 499 1197 q 474 1191 483 1194 q 460 1183 465 1188 q 453 1168 454 1178 q 450 1143 451 1158 l 447 967 q 469 940 447 940 l 474 940 m 322 628 q 235 631 278 628 q 149 638 193 633 q 86 729 86 646 q 85 783 85 757 q 85 838 85 810 l 85 946 l 83 946 l 83 1150 q 124 1275 86 1233 q 244 1325 161 1317 q 344 1330 294 1329 q 444 1332 394 1331 q 494 1331 469 1332 q 544 1329 519 1329 q 591 1326 568 1328 q 638 1317 614 1324 q 733 1264 700 1300 q 774 1163 765 1228 q 781 1090 779 1126 q 782 1018 782 1054 l 782 964 l 772 719 q 772 706 772 713 q 771 692 772 699 q 749 650 765 665 q 710 635 733 635 l 707 635 q 665 651 682 635 q 646 694 649 667 l 644 725 q 645 760 644 743 q 647 794 646 776 l 647 799 q 621 825 647 825 l 615 825 q 549 819 582 822 q 482 814 515 817 q 453 785 453 811 l 453 782 q 453 751 453 767 q 456 721 454 736 l 457 706 q 386 629 457 633 l 322 628 z "},"":{"ha":1063,"x_min":83,"x_max":979,"o":"m 518 0 q 478 15 497 0 q 446 47 461 31 q 415 79 431 63 q 276 232 344 154 q 128 379 207 310 q 83 457 83 418 q 100 518 83 482 q 152 632 125 576 q 207 744 179 688 q 242 813 224 779 q 275 883 261 847 q 347 944 293 933 q 381 949 364 947 q 414 950 397 950 q 481 945 447 950 q 546 932 514 940 q 580 909 569 925 q 590 869 590 893 q 584 836 590 851 q 571 806 578 821 l 436 526 q 403 456 418 490 q 371 385 388 421 q 361 349 361 367 q 382 306 361 325 q 466 217 425 261 q 550 128 507 172 q 572 100 564 114 q 581 68 581 86 l 579 56 q 558 15 575 31 q 518 0 540 0 m 906 -11 q 865 6 883 -11 q 837 33 850 19 q 811 61 824 46 q 727 154 768 107 q 643 246 686 201 q 579 308 611 278 q 515 369 547 339 q 472 447 472 411 q 488 504 472 469 q 546 630 515 568 q 607 754 576 692 q 632 803 618 779 q 654 854 646 828 q 699 917 669 899 q 772 938 728 936 l 799 940 q 860 935 831 938 q 921 924 890 932 q 979 861 979 908 q 974 828 979 844 q 954 779 965 803 q 931 732 943 756 q 843 556 883 644 q 761 376 803 467 q 750 338 750 354 q 772 292 750 314 q 856 203 815 249 q 940 115 896 157 q 961 90 953 104 q 969 57 969 75 l 969 53 q 932 -6 967 11 q 906 -11 921 -11 z "},"":{"ha":1072,"x_min":83,"x_max":989,"o":"m 692 204 q 625 253 643 204 q 610 335 610 294 l 608 399 q 612 480 608 439 q 625 561 615 521 q 629 578 628 571 q 631 590 631 585 q 620 604 631 601 q 586 607 610 607 l 547 607 q 432 603 489 607 q 317 599 375 599 l 288 599 q 228 600 257 600 q 168 600 199 600 l 150 600 q 101 620 119 603 q 83 661 83 638 q 93 693 83 678 q 119 718 104 711 q 154 728 135 725 l 179 728 q 375 733 278 728 q 572 738 472 738 q 664 733 618 738 l 879 733 q 901 731 890 732 q 922 728 911 731 q 973 700 957 719 q 989 644 989 681 q 978 540 989 596 q 964 410 964 479 q 966 357 964 383 q 974 304 968 331 q 976 291 975 297 q 976 278 976 285 q 958 231 976 246 q 901 214 940 217 q 799 208 850 211 q 696 204 747 206 l 692 204 z "},"":{"ha":928,"x_min":83,"x_max":844,"o":"m 410 644 q 448 647 429 644 q 486 650 467 650 l 490 650 q 588 678 547 650 q 660 750 629 706 q 705 849 692 799 q 718 953 718 900 q 716 994 718 974 q 711 1038 714 1015 q 664 1128 706 1086 q 594 1176 632 1163 q 513 1199 556 1190 q 467 1203 489 1203 q 378 1183 418 1203 q 303 1126 338 1163 q 218 950 231 1051 q 214 888 214 918 q 219 808 214 847 q 233 729 225 769 q 266 671 242 689 q 332 650 290 653 q 357 648 344 649 q 382 647 369 647 l 410 644 m 406 518 q 348 519 376 518 q 292 525 319 521 q 185 569 229 535 q 121 664 140 604 q 93 772 103 717 q 83 881 83 826 q 110 1046 83 965 q 211 1217 139 1144 q 327 1301 264 1271 q 465 1332 390 1332 l 506 1329 q 585 1315 546 1325 q 661 1290 624 1306 q 795 1178 753 1250 q 844 1010 838 1106 l 844 954 q 826 806 844 876 q 761 671 807 735 q 653 566 714 604 q 508 522 592 528 q 406 518 456 518 m 465 942 q 495 968 486 957 q 507 990 504 979 l 507 994 q 497 1019 507 1008 q 472 1029 488 1029 l 469 1029 q 456 1023 458 1029 q 453 1010 453 1017 l 454 979 q 456 959 454 968 q 465 942 457 950 m 393 681 q 357 692 374 681 q 333 724 340 703 q 328 774 328 746 l 325 1061 q 375 1140 325 1115 q 461 1161 414 1161 q 544 1142 504 1161 q 608 1088 583 1124 q 639 1000 639 1047 q 624 935 639 969 q 609 908 617 921 q 593 882 601 894 q 585 861 585 869 q 597 840 585 850 q 619 815 613 828 q 631 778 631 800 q 613 733 631 751 q 571 715 594 715 q 532 728 550 715 q 498 756 513 739 q 463 781 483 772 q 457 758 457 771 l 457 743 q 456 729 457 733 q 434 694 449 707 q 397 681 419 681 l 393 681 z "},"":{"ha":1319,"x_min":83,"x_max":1236,"o":"m 836 1331 q 1151 1326 993 1331 l 1174 1326 q 1219 1303 1201 1321 q 1236 1263 1236 1286 l 1236 1260 q 1219 1219 1235 1236 q 1174 1200 1203 1203 q 1151 1199 1163 1199 q 1128 1199 1139 1199 l 1063 1200 q 945 1203 1004 1201 q 822 1204 886 1204 q 621 1200 729 1204 l 288 1200 q 221 1199 254 1199 q 154 1199 188 1199 q 85 1250 93 1199 l 83 1260 q 139 1322 83 1307 q 194 1331 165 1331 q 208 1331 201 1331 q 221 1329 214 1331 l 349 1328 q 592 1329 471 1328 q 836 1331 714 1331 z "},"":{"ha":850,"x_min":83,"x_max":767,"o":"m 529 838 q 563 849 549 838 q 586 876 578 860 q 624 963 610 918 q 638 1057 638 1008 l 635 1093 q 583 1182 629 1149 q 536 1200 560 1200 q 501 1188 517 1200 q 478 1151 486 1175 q 461 1078 465 1115 q 457 1003 457 1042 q 458 945 457 974 q 471 889 460 917 q 490 855 478 869 q 524 838 501 840 l 529 838 m 399 701 l 338 701 q 307 701 322 701 q 276 703 292 701 q 117 814 165 708 q 98 866 104 839 q 88 921 92 893 q 83 993 83 956 q 89 1081 83 1038 q 106 1168 94 1124 q 151 1263 118 1221 q 205 1310 175 1293 q 275 1331 235 1326 l 281 1331 q 374 1331 328 1331 q 469 1332 421 1332 l 529 1329 q 668 1278 608 1322 q 751 1160 728 1235 q 767 1060 767 1107 q 763 1011 767 1036 q 741 910 756 960 q 700 817 726 861 q 629 738 672 767 q 526 706 586 708 l 399 697 l 399 701 z "},"":{"ha":1010,"x_min":83,"x_max":926,"o":"m 578 114 q 484 118 531 114 q 389 128 438 122 q 328 194 336 133 q 319 262 322 228 q 317 331 317 296 l 317 456 q 310 481 317 472 q 283 490 303 490 l 254 490 l 190 492 q 169 492 179 492 q 147 494 158 492 q 109 517 124 501 q 94 554 94 533 l 94 557 q 108 597 94 581 q 149 617 122 613 q 189 621 169 621 l 243 618 l 283 617 q 307 619 299 617 q 319 631 315 622 q 324 654 324 639 q 326 694 325 669 l 329 889 q 349 953 331 932 q 407 976 367 974 q 459 979 433 978 q 511 981 485 981 q 583 977 547 981 q 656 963 619 974 q 703 937 690 951 q 718 886 717 922 l 715 642 q 719 613 715 619 q 740 607 722 607 l 754 607 q 793 610 774 608 q 832 614 813 611 l 871 614 q 909 595 894 610 q 926 560 924 581 l 926 554 q 914 517 926 533 q 879 493 901 500 q 824 484 851 486 q 769 481 797 482 q 733 478 746 479 q 715 473 721 478 q 707 456 708 468 q 706 419 706 444 l 706 410 q 706 316 706 363 q 714 222 707 269 l 715 200 q 621 115 715 119 l 578 114 m 672 -67 q 599 -66 636 -67 q 526 -64 563 -65 q 507 -63 524 -64 q 465 -62 490 -62 q 409 -60 440 -61 q 347 -58 378 -60 q 182 -53 272 -56 q 157 -52 169 -53 q 132 -49 144 -51 q 96 -26 108 -42 q 83 11 83 -10 l 83 17 q 136 72 86 61 q 156 75 147 75 q 176 75 165 75 l 225 74 q 422 69 324 71 q 619 61 519 68 l 671 60 q 807 68 738 60 q 824 69 815 69 q 840 69 832 69 q 893 54 874 69 q 915 11 913 39 l 915 8 q 853 -54 915 -43 q 763 -64 808 -61 q 672 -67 717 -67 z "},"":{"ha":774,"x_min":83,"x_max":690,"o":"m 222 599 q 154 613 183 599 q 118 641 131 624 q 106 679 106 658 q 113 713 106 694 q 126 740 118 728 q 142 765 133 753 l 233 906 q 297 1093 286 990 l 299 1111 q 246 1181 299 1181 q 194 1168 224 1181 q 181 1162 188 1165 q 168 1156 175 1158 q 143 1151 156 1151 q 94 1176 113 1151 q 83 1211 83 1192 q 99 1254 83 1235 q 124 1276 110 1268 q 153 1290 138 1285 q 418 1332 283 1332 q 456 1332 438 1332 q 493 1329 474 1332 q 598 1278 556 1324 q 647 1165 640 1232 l 649 1131 q 640 1046 649 1088 q 617 964 631 1004 q 585 892 604 926 q 546 826 567 858 q 526 796 536 811 q 508 757 515 781 l 624 757 q 689 708 681 754 l 690 696 q 643 636 690 654 q 598 624 621 628 q 551 618 575 619 q 399 608 475 613 q 247 600 324 604 l 222 599 l 222 599 z "},"":{"ha":726,"x_min":83,"x_max":643,"o":"m 269 603 q 216 604 242 603 q 163 608 190 606 q 108 656 117 613 q 107 672 107 661 q 139 726 107 707 q 185 753 163 742 q 232 776 208 764 q 279 851 279 803 q 275 881 279 864 q 246 910 268 910 l 236 908 q 217 905 226 907 q 199 901 208 903 l 189 901 q 131 932 153 901 q 119 967 119 950 q 133 1004 119 983 q 156 1033 144 1019 q 181 1058 168 1046 q 213 1093 197 1075 q 240 1132 229 1111 q 253 1167 253 1154 q 214 1190 253 1185 q 181 1194 197 1193 q 147 1196 164 1194 q 83 1253 88 1201 l 83 1261 q 98 1301 83 1285 q 140 1322 113 1317 q 226 1331 183 1329 q 311 1332 268 1332 q 397 1328 354 1329 q 483 1321 440 1328 q 584 1271 550 1310 q 618 1179 618 1232 q 596 1092 618 1135 q 590 1083 593 1088 q 585 1072 588 1078 q 574 1051 578 1058 q 569 1036 569 1043 q 592 1001 569 1025 q 631 938 618 972 q 643 865 643 903 q 616 760 643 811 q 540 676 589 708 q 408 618 475 633 q 269 603 340 603 z "},"":{"ha":635,"x_min":83,"x_max":551,"o":"m 346 908 q 304 910 325 910 q 263 910 283 910 l 218 908 q 183 910 200 908 q 147 915 165 911 q 83 976 83 928 q 88 1001 83 986 q 142 1150 108 1079 q 217 1289 176 1221 q 261 1319 232 1315 q 324 1328 293 1325 q 388 1332 356 1332 q 492 1318 442 1332 q 551 1257 551 1301 q 540 1217 551 1238 q 480 1092 507 1156 q 426 964 453 1029 q 346 908 406 908 z "},"":{"ha":988,"x_min":83,"x_max":904,"o":"m 276 1 q 216 2 246 1 q 156 4 186 3 q 117 19 132 4 q 96 60 101 35 q 92 84 93 71 q 92 110 92 97 q 86 351 89 232 q 83 592 83 471 l 85 708 q 86 762 85 736 q 90 814 88 788 q 97 850 92 836 q 110 873 101 864 q 133 887 118 882 q 169 894 147 892 q 251 901 210 900 q 333 903 292 903 l 381 903 q 447 856 431 903 q 471 735 471 796 l 468 697 q 464 628 464 661 q 467 568 464 597 q 474 510 469 539 q 506 436 481 465 q 574 394 532 407 q 590 390 582 392 q 607 389 599 389 q 676 414 646 389 q 719 481 707 439 q 742 595 736 538 q 747 711 747 653 l 746 833 q 777 897 747 869 q 842 924 807 924 l 846 924 q 888 902 871 921 q 904 851 904 883 l 904 849 q 902 799 904 824 q 899 749 900 774 q 897 553 897 650 q 894 360 897 457 q 894 335 894 347 q 890 310 893 322 q 843 261 882 269 q 828 260 838 260 q 781 286 800 260 q 773 298 776 292 q 764 314 769 304 q 601 264 682 264 q 453 310 525 264 l 453 94 q 436 33 453 51 q 372 7 419 14 q 324 3 349 4 q 276 1 300 1 z "},"":{"ha":1538,"x_min":83,"x_max":1454,"o":"m 1154 -422 q 1097 -385 1114 -422 q 1090 -356 1090 -371 q 1089 -325 1089 -340 q 1079 -47 1082 -196 q 1076 269 1076 101 l 1078 443 l 1075 579 q 1081 859 1075 714 q 1090 1154 1088 1004 l 1090 1174 q 1083 1201 1090 1197 q 1044 1206 1075 1204 q 981 1204 1013 1206 q 917 1203 949 1203 q 878 1167 879 1203 l 876 1128 q 875 969 876 1049 q 874 810 874 889 q 878 611 874 711 q 879 560 879 585 q 879 508 879 535 q 878 367 879 438 q 876 226 876 297 q 876 174 876 200 q 878 122 876 149 q 885 -68 882 25 q 890 -237 888 -161 q 892 -285 892 -261 q 893 -332 893 -308 q 878 -383 892 -365 q 833 -407 865 -400 q 756 -419 794 -415 q 678 -422 718 -422 q 590 -418 633 -422 q 522 -344 524 -412 q 513 -135 517 -233 q 507 76 510 -36 q 506 164 506 121 q 506 251 506 207 q 506 358 506 304 q 508 465 506 413 l 508 560 q 478 593 508 593 l 451 592 q 381 599 415 592 q 310 608 346 606 q 206 640 249 611 q 138 726 163 668 q 83 985 83 853 q 104 1151 83 1068 q 169 1259 121 1222 q 286 1307 217 1296 q 393 1319 339 1317 q 501 1324 447 1321 q 753 1327 628 1326 q 1006 1331 879 1328 l 1079 1332 q 1228 1330 1154 1332 q 1378 1326 1303 1328 q 1411 1321 1396 1326 q 1454 1263 1454 1306 l 1454 1257 q 1406 1203 1450 1214 q 1357 1199 1382 1199 q 1307 1199 1332 1199 q 1257 1201 1282 1200 l 1253 1201 q 1219 1167 1219 1201 q 1217 1097 1219 1132 q 1214 1028 1215 1063 q 1206 746 1207 886 q 1204 464 1204 606 l 1206 128 q 1208 -107 1207 8 q 1217 -318 1208 -222 l 1218 -342 q 1217 -363 1218 -353 q 1210 -385 1215 -374 q 1154 -422 1192 -422 z "},"":{"ha":579,"x_min":83,"x_max":496,"o":"m 288 249 q 224 249 256 249 q 161 251 193 250 q 114 269 129 253 q 92 318 99 286 q 88 355 89 338 q 86 392 86 372 l 86 404 q 86 435 86 419 q 83 467 86 451 l 83 572 q 99 628 83 608 q 151 651 115 647 q 228 657 190 656 q 307 658 267 658 q 359 658 333 658 q 411 656 385 658 q 481 578 476 651 q 483 511 483 544 q 483 444 482 478 q 485 398 483 421 q 493 351 486 375 q 496 339 496 344 q 496 328 496 333 q 477 281 496 300 q 426 257 458 261 q 358 250 392 251 q 288 249 324 249 z "},"":{"ha":772,"x_min":83,"x_max":689,"o":"m 351 -668 q 265 -663 307 -661 q 179 -654 222 -665 q 140 -641 158 -650 q 107 -617 122 -632 q 83 -567 83 -593 q 99 -526 83 -546 q 124 -506 110 -514 q 153 -499 138 -499 q 188 -511 171 -499 q 213 -526 200 -522 q 240 -529 226 -529 l 296 -528 q 324 -501 319 -528 q 326 -490 325 -494 q 326 -478 326 -485 q 325 -463 326 -471 q 318 -449 324 -456 q 304 -442 313 -442 q 288 -444 299 -442 l 260 -447 q 207 -427 222 -447 q 189 -362 192 -407 q 187 -329 188 -346 q 186 -296 186 -312 l 186 -292 q 251 -217 186 -225 q 301 -212 276 -214 q 351 -211 326 -211 q 421 -214 386 -211 q 490 -219 456 -217 q 546 -272 538 -225 q 556 -299 549 -290 q 582 -314 563 -308 q 662 -375 635 -332 q 689 -481 689 -418 l 689 -494 q 653 -599 686 -557 q 560 -654 619 -640 q 516 -663 538 -660 q 472 -668 494 -667 l 432 -669 l 351 -668 z "},"":{"ha":674,"x_min":83,"x_max":590,"o":"m 169 574 q 108 611 124 574 q 103 638 103 622 q 140 694 103 669 q 160 715 156 704 q 164 740 164 725 q 163 920 163 831 q 163 1100 163 1010 q 157 1124 163 1115 q 135 1140 151 1133 q 83 1197 83 1158 q 118 1258 83 1226 q 289 1326 192 1322 q 353 1331 321 1329 q 417 1332 385 1332 q 497 1308 474 1332 q 522 1228 521 1285 q 524 1006 524 1115 q 525 783 525 896 q 531 745 525 761 q 560 717 536 729 q 583 697 575 710 q 590 669 590 685 q 584 644 590 657 q 567 619 578 631 q 492 589 536 589 q 422 588 457 588 q 353 588 388 588 q 186 575 269 585 l 169 574 l 169 574 z "},"":{"ha":731,"x_min":83,"x_max":647,"o":"m 225 743 q 247 770 238 757 q 262 797 256 783 q 272 827 268 811 q 278 865 275 843 q 280 901 279 883 q 281 938 281 919 q 276 1040 281 989 q 261 1140 271 1090 q 257 1146 260 1146 l 253 1144 q 235 1093 243 1124 q 223 1027 228 1063 q 215 953 218 992 q 213 878 213 915 q 215 806 213 840 q 225 743 218 771 m 213 601 q 103 683 131 601 q 94 715 97 699 q 89 749 92 732 q 85 813 86 781 q 83 876 83 844 q 91 1017 83 947 q 118 1156 99 1086 q 144 1226 128 1192 q 181 1292 160 1260 q 244 1328 203 1325 l 482 1332 l 486 1332 q 606 1253 567 1332 q 619 1217 613 1235 q 628 1179 625 1199 q 642 1056 636 1117 q 647 933 647 996 l 647 914 q 636 806 647 858 q 597 706 625 754 q 431 604 540 606 l 297 604 q 263 603 282 604 q 225 601 244 603 l 213 601 z "},"":{"ha":1064,"x_min":83,"x_max":981,"o":"m 546 -10 q 510 3 526 -10 q 482 57 482 22 q 489 88 482 71 q 502 106 494 99 q 518 121 510 114 q 601 210 560 165 q 685 299 642 254 q 703 338 703 317 q 694 369 703 353 q 615 544 654 457 q 531 715 576 631 q 501 772 515 743 q 478 832 488 800 q 472 863 472 847 q 528 925 472 908 q 590 935 558 932 q 657 942 621 939 q 686 938 669 939 q 721 933 703 936 q 788 879 767 922 l 947 544 q 960 517 954 531 q 972 488 965 503 q 981 449 981 467 q 947 382 981 408 q 773 207 854 300 q 606 25 692 114 l 590 8 q 568 -6 579 -1 q 546 -10 557 -10 m 156 -21 q 117 -6 132 -21 q 93 46 93 15 q 103 81 93 65 q 112 94 107 88 q 124 106 117 100 q 208 193 168 147 q 292 282 249 239 q 314 328 314 304 q 311 344 314 336 q 304 363 308 353 q 224 537 264 450 q 140 708 185 624 q 115 758 126 732 q 93 808 104 783 q 86 832 89 821 q 83 853 83 843 q 149 915 83 899 q 205 925 176 922 q 265 931 233 928 q 296 926 279 928 q 331 922 313 925 q 397 869 376 914 l 561 529 q 572 506 567 518 q 581 483 576 494 q 590 439 590 463 q 556 367 590 400 q 510 326 533 346 q 467 283 488 306 l 217 15 l 203 -1 q 156 -21 182 -21 z "},"":{"ha":1369,"x_min":83,"x_max":1286,"o":"m 840 -90 q 866 -87 857 -89 q 879 -81 875 -86 q 885 -67 883 -76 q 886 -42 886 -58 l 886 64 l 878 67 l 811 -87 q 828 -90 822 -89 q 840 -90 833 -90 m 1046 -418 l 974 -414 q 922 -396 939 -411 q 901 -346 906 -381 q 899 -302 899 -324 q 896 -257 899 -281 q 890 -224 893 -232 q 868 -217 886 -217 l 849 -218 q 822 -221 835 -219 q 793 -225 808 -222 l 756 -228 q 717 -224 735 -228 q 651 -150 651 -208 q 652 -137 651 -143 q 654 -125 653 -132 q 667 -83 658 -103 q 686 -43 675 -62 q 751 101 722 28 q 803 250 779 175 q 816 283 810 271 q 832 303 822 296 q 855 315 842 311 q 889 319 868 318 l 981 322 q 1144 314 1063 322 q 1194 304 1175 311 q 1226 285 1214 297 q 1242 252 1238 272 q 1247 201 1247 232 l 1247 85 l 1249 85 l 1249 -46 q 1253 -78 1249 -62 q 1272 -107 1257 -93 q 1286 -142 1286 -121 q 1275 -174 1286 -158 q 1260 -202 1264 -187 q 1257 -232 1257 -217 l 1258 -253 q 1260 -289 1260 -271 q 1261 -325 1261 -307 q 1243 -395 1261 -375 q 1172 -418 1225 -415 l 1131 -419 l 1046 -418 m 165 575 q 131 585 146 575 q 108 611 117 596 q 103 639 103 622 q 135 693 103 674 q 158 717 151 704 q 164 746 164 729 l 164 753 q 162 928 163 840 q 161 1103 161 1015 q 156 1128 161 1119 q 131 1144 150 1138 q 95 1167 107 1151 q 83 1201 83 1182 q 110 1253 83 1231 q 172 1299 139 1279 q 246 1325 204 1318 q 304 1331 275 1329 q 363 1332 333 1332 l 444 1331 q 500 1309 482 1328 q 522 1253 518 1290 q 524 1231 524 1242 q 524 1208 524 1219 q 525 992 525 1100 q 525 775 525 883 q 530 745 525 757 q 554 724 535 733 q 592 671 592 704 q 560 615 592 640 q 521 596 542 600 q 476 589 500 592 l 415 586 l 294 586 q 239 585 267 586 q 183 578 211 583 l 165 575 m 463 -421 q 454 -420 458 -421 q 444 -418 450 -419 q 400 -357 400 -403 l 403 -337 q 426 -237 414 -287 q 449 -137 438 -187 q 498 76 471 -32 q 553 293 525 183 q 608 515 581 403 q 658 739 635 626 q 721 990 685 868 q 800 1225 757 1113 q 809 1251 806 1238 q 817 1278 813 1264 q 876 1331 833 1331 l 885 1331 q 926 1308 910 1328 q 943 1257 942 1289 l 943 1251 q 940 1229 943 1240 q 932 1207 936 1218 q 831 898 874 1058 q 754 571 788 738 q 694 317 728 442 q 628 64 660 192 q 583 -133 604 -36 q 540 -317 561 -231 q 534 -347 538 -332 q 524 -375 531 -361 q 463 -421 504 -421 z "},"":{"ha":1406,"x_min":83,"x_max":1322,"o":"m 861 -421 q 826 -419 843 -421 q 792 -410 808 -417 q 738 -339 738 -387 q 744 -306 738 -324 q 758 -279 750 -292 q 774 -253 767 -267 q 821 -181 797 -217 q 868 -108 844 -144 q 912 -13 896 -62 q 929 90 928 36 l 929 94 q 879 161 929 161 q 840 154 865 161 q 822 147 831 151 q 806 138 814 142 q 775 132 790 132 q 726 157 743 132 q 717 192 717 172 q 721 217 717 204 q 735 240 725 229 q 761 260 746 253 q 792 274 776 268 q 1051 311 918 311 q 1089 311 1071 311 q 1126 308 1107 311 q 1181 293 1156 306 q 1226 261 1207 281 q 1258 215 1246 242 q 1275 160 1271 189 q 1279 103 1279 131 q 1260 -22 1279 38 q 1210 -139 1242 -81 q 1176 -197 1194 -168 q 1136 -261 1157 -225 l 1249 -261 q 1321 -310 1310 -261 l 1322 -324 q 1271 -386 1322 -367 q 1178 -403 1225 -401 q 1028 -411 1103 -407 q 879 -421 954 -415 l 861 -421 m 165 574 q 108 611 126 574 q 101 640 101 628 q 109 669 101 656 q 133 692 117 682 q 158 717 153 703 q 164 750 164 731 q 162 920 163 836 q 161 1089 161 1004 q 157 1124 161 1110 q 125 1144 153 1138 q 94 1165 104 1151 q 83 1197 83 1179 q 108 1251 83 1226 q 190 1306 146 1286 q 286 1329 233 1326 q 353 1331 319 1331 q 419 1332 386 1332 q 497 1308 474 1331 q 521 1231 519 1285 l 525 786 q 529 749 525 765 q 558 719 533 732 q 590 672 590 703 q 563 618 590 642 q 521 596 543 601 q 475 588 499 590 l 414 585 l 306 585 q 243 583 274 585 q 182 575 213 582 l 165 574 m 449 -418 q 415 -395 428 -411 q 403 -356 403 -379 q 404 -339 403 -344 q 426 -239 415 -289 q 449 -139 438 -189 q 496 69 469 -36 q 549 283 522 175 q 603 499 576 390 q 653 719 631 608 q 717 979 681 853 q 799 1222 754 1106 q 808 1251 804 1238 q 815 1281 811 1265 q 878 1331 833 1331 l 886 1331 q 926 1306 911 1326 q 942 1251 942 1285 q 937 1231 939 1243 q 929 1204 935 1218 q 831 906 874 1061 q 757 589 789 751 q 694 328 729 457 q 628 67 660 199 l 543 -307 q 535 -342 540 -325 q 524 -376 531 -360 q 500 -410 515 -399 q 465 -421 485 -421 l 449 -418 z "},"":{"ha":1392,"x_min":83,"x_max":1308,"o":"m 861 -90 q 887 -87 878 -89 q 901 -81 896 -86 q 906 -67 906 -76 q 907 -42 907 -58 l 907 64 l 899 65 l 833 -82 q 853 -90 842 -90 l 861 -90 m 1142 -421 q 1062 -417 1101 -421 q 982 -412 1022 -414 q 922 -344 926 -410 q 919 -300 919 -322 q 918 -256 919 -278 q 911 -225 915 -232 q 888 -218 907 -218 l 874 -218 q 847 -221 860 -219 q 818 -225 833 -222 l 776 -228 q 736 -224 757 -228 q 672 -149 672 -208 l 674 -133 q 684 -94 676 -112 q 701 -56 692 -75 q 770 97 740 19 q 824 253 800 174 q 854 302 835 286 q 907 319 874 318 l 1017 321 q 1095 319 1057 321 q 1174 314 1133 318 q 1247 285 1228 307 q 1268 208 1265 263 q 1269 176 1268 193 q 1271 143 1271 160 l 1271 82 l 1269 82 l 1269 -40 q 1274 -77 1269 -60 q 1294 -110 1278 -94 q 1308 -143 1308 -122 q 1296 -176 1308 -162 q 1278 -228 1278 -199 l 1279 -249 q 1283 -337 1283 -293 q 1265 -394 1282 -375 q 1208 -417 1247 -412 q 1142 -421 1175 -421 m 267 607 q 171 611 218 607 q 110 658 122 614 q 107 676 107 669 q 144 733 107 713 q 188 758 165 747 q 232 781 210 768 q 281 857 281 808 q 280 870 281 864 q 278 883 279 876 q 246 914 272 914 l 233 913 q 210 908 222 910 q 185 906 197 906 q 140 926 157 908 q 122 969 122 944 q 128 997 122 985 q 147 1028 135 1015 q 172 1054 160 1042 q 211 1094 192 1074 q 243 1139 231 1114 q 254 1171 254 1161 q 217 1194 254 1189 q 183 1197 200 1197 q 150 1200 167 1197 q 83 1261 86 1208 q 101 1307 83 1289 q 150 1328 118 1325 q 206 1330 165 1329 q 296 1331 247 1331 q 414 1329 357 1331 q 494 1324 471 1328 q 585 1274 553 1313 q 618 1185 618 1236 q 601 1108 618 1147 q 582 1074 594 1090 q 568 1039 569 1057 l 568 1036 q 585 1007 568 1018 q 613 981 601 996 q 637 927 629 956 q 644 869 644 899 q 617 762 644 814 q 539 678 589 710 q 406 622 474 636 q 267 607 338 607 m 474 -422 q 438 -399 451 -417 q 425 -353 425 -381 l 461 -183 q 573 288 511 50 q 688 771 635 525 q 747 1009 713 893 q 825 1231 782 1125 q 833 1256 831 1243 q 840 1283 836 1269 q 864 1318 847 1306 q 901 1331 881 1331 l 907 1331 q 947 1310 931 1328 q 965 1267 963 1293 l 965 1260 q 956 1213 965 1236 q 849 885 893 1054 q 768 538 804 715 q 709 297 742 415 q 649 58 676 179 q 605 -131 625 -37 q 567 -308 585 -225 q 558 -349 563 -329 q 543 -387 554 -369 q 518 -415 533 -406 q 486 -424 503 -424 l 474 -422 z "},"":{"ha":1003,"x_min":83,"x_max":919,"o":"m 467 815 q 552 810 510 815 q 636 797 594 804 q 685 736 685 789 q 669 623 681 676 q 633 518 658 569 q 546 313 586 422 q 490 83 506 204 q 478 4 485 43 q 467 -75 472 -35 q 463 -120 464 -97 q 463 -167 463 -143 q 473 -209 463 -187 q 501 -247 483 -231 q 542 -275 519 -264 q 588 -286 564 -286 q 667 -269 632 -282 q 726 -221 701 -256 q 775 -135 757 -179 q 793 -46 793 -92 q 760 74 793 11 q 749 113 749 92 q 769 156 749 140 q 814 172 789 172 q 860 152 840 172 q 894 101 881 132 q 913 33 907 69 q 919 -37 919 -4 q 907 -140 919 -89 q 779 -350 871 -285 q 536 -419 688 -415 l 443 -419 q 369 -419 406 -419 q 315 -415 332 -418 q 220 -387 263 -410 q 148 -328 178 -364 q 101 -245 118 -292 q 83 -144 85 -199 q 88 -75 83 -111 q 149 263 106 99 q 267 571 193 426 q 292 644 285 607 q 304 721 299 682 q 326 781 310 764 q 383 807 342 797 q 467 815 425 815 m 603 1331 q 671 1298 656 1329 q 686 1213 686 1267 q 687 1108 686 1154 q 690 1007 688 1061 q 617 931 690 932 q 533 926 575 928 q 447 924 490 924 q 410 924 428 924 q 374 926 393 924 q 315 947 332 929 q 294 1006 297 964 q 292 1083 292 1044 q 292 1161 293 1121 q 285 1208 292 1185 q 278 1253 278 1232 q 307 1310 278 1292 q 381 1328 336 1328 l 603 1331 z "},"":{"ha":1086,"x_min":83,"x_max":1003,"o":"m 465 651 q 469 519 465 585 q 476 388 474 454 q 483 361 476 369 q 511 350 490 353 q 544 348 528 349 q 578 347 561 347 q 677 352 628 347 q 776 361 726 357 q 807 366 796 363 q 824 376 818 369 q 831 396 829 383 q 833 429 832 408 q 834 460 833 444 q 835 492 835 476 q 828 674 835 583 q 815 856 822 764 q 805 935 811 896 q 789 1014 799 974 q 755 1099 778 1060 q 701 1172 732 1138 q 658 1203 682 1196 q 608 1211 635 1211 q 586 1210 597 1211 q 564 1208 575 1210 q 521 1184 532 1206 q 500 1140 510 1163 q 456 908 456 1031 q 456 892 456 900 q 457 875 457 883 q 460 773 458 824 q 465 669 463 722 l 465 651 m 103 358 q 92 625 97 493 q 85 890 88 757 q 84 901 85 896 q 83 913 83 907 q 101 1067 85 992 q 150 1214 117 1142 q 311 1332 197 1322 q 413 1340 363 1338 q 515 1342 464 1342 q 649 1338 582 1342 q 733 1313 696 1335 q 801 1256 771 1292 q 879 1138 847 1200 q 922 1004 911 1076 q 952 763 942 882 q 963 522 963 644 q 961 440 963 481 q 957 357 960 399 q 952 283 954 319 q 950 208 950 246 q 953 122 950 164 q 964 35 957 79 q 970 -76 968 -22 q 975 -178 972 -129 q 983 -272 978 -228 q 1000 -353 989 -317 q 1003 -368 1003 -364 q 974 -414 1003 -396 q 939 -425 956 -425 q 900 -414 919 -425 q 876 -387 885 -403 q 865 -353 868 -372 q 856 -296 861 -325 q 850 -237 850 -267 q 844 -100 849 -161 q 834 12 839 -39 q 825 106 829 63 q 821 193 821 150 l 821 206 q 794 233 821 233 l 785 233 q 687 224 736 229 q 589 218 638 218 q 519 222 554 218 l 513 222 q 486 190 486 222 q 488 77 488 133 q 488 -37 488 21 l 483 -325 q 465 -394 483 -374 q 397 -418 446 -415 q 276 -422 336 -422 q 242 -422 260 -422 q 208 -421 225 -421 q 133 -398 156 -419 q 110 -322 111 -376 q 108 -235 108 -278 q 108 -147 108 -192 l 113 117 q 110 238 113 178 q 103 358 107 297 m 550 1385 q 468 1387 497 1385 q 422 1401 439 1389 q 392 1439 404 1413 q 363 1514 381 1465 q 335 1579 351 1547 q 303 1640 318 1611 q 278 1694 289 1669 q 268 1738 268 1718 q 282 1771 268 1757 q 318 1793 296 1785 q 369 1806 340 1801 q 431 1810 399 1810 q 494 1806 463 1810 q 557 1799 525 1803 q 588 1785 576 1796 q 608 1758 599 1774 q 676 1627 644 1693 q 728 1490 707 1561 q 733 1471 731 1479 q 735 1454 735 1463 q 667 1392 735 1404 q 608 1386 638 1386 q 550 1385 579 1386 z "},"":{"ha":1086,"x_min":83,"x_max":1003,"o":"m 465 651 q 469 519 465 585 q 476 388 474 454 q 483 361 476 369 q 511 350 490 353 q 544 348 528 349 q 578 347 561 347 q 677 352 628 347 q 776 361 726 357 q 807 366 796 363 q 824 376 818 369 q 831 396 829 383 q 833 429 832 408 q 834 460 833 444 q 835 492 835 476 q 828 674 835 583 q 815 856 822 764 q 805 935 811 896 q 789 1014 799 974 q 755 1099 778 1060 q 701 1172 732 1138 q 658 1203 682 1196 q 608 1211 635 1211 q 586 1210 597 1211 q 564 1208 575 1210 q 521 1184 532 1206 q 500 1140 510 1163 q 456 908 456 1031 q 456 892 456 900 q 457 875 457 883 q 460 773 458 824 q 465 669 463 722 l 465 651 m 103 358 q 92 625 97 493 q 85 890 88 757 q 84 901 85 896 q 83 913 83 907 q 101 1067 85 992 q 150 1214 117 1142 q 311 1332 197 1322 q 413 1340 363 1338 q 515 1342 464 1342 q 649 1338 582 1342 q 733 1313 696 1335 q 801 1256 771 1292 q 879 1138 847 1200 q 922 1004 911 1076 q 952 763 942 882 q 963 522 963 644 q 961 440 963 481 q 957 357 960 399 q 952 283 954 319 q 950 208 950 246 q 953 122 950 164 q 964 35 957 79 q 970 -76 968 -22 q 975 -178 972 -129 q 983 -272 978 -228 q 1000 -353 989 -317 q 1003 -368 1003 -364 q 974 -414 1003 -396 q 939 -425 956 -425 q 900 -414 919 -425 q 876 -387 885 -403 q 865 -353 868 -372 q 856 -296 861 -325 q 850 -237 850 -267 q 844 -100 849 -161 q 834 12 839 -39 q 825 106 829 63 q 821 193 821 150 l 821 206 q 794 233 821 233 l 785 233 q 687 224 736 229 q 589 218 638 218 q 519 222 554 218 l 513 222 q 486 190 486 222 q 488 77 488 133 q 488 -37 488 21 l 483 -325 q 465 -394 483 -374 q 397 -418 446 -415 q 276 -422 336 -422 q 242 -422 260 -422 q 208 -421 225 -421 q 133 -398 156 -419 q 110 -322 111 -376 q 108 -235 108 -278 q 108 -147 108 -192 l 113 117 q 110 238 113 178 q 103 358 107 297 m 649 1385 q 607 1386 628 1386 q 565 1386 586 1386 l 521 1385 q 485 1386 503 1385 q 450 1392 468 1388 q 386 1453 386 1404 q 390 1478 386 1463 q 445 1626 411 1556 q 519 1765 479 1697 q 564 1796 535 1792 q 627 1805 596 1801 q 690 1808 658 1808 q 794 1794 744 1808 q 854 1733 854 1778 q 843 1693 854 1714 q 783 1569 810 1632 q 729 1440 756 1506 q 649 1385 708 1385 z "},"":{"ha":1086,"x_min":83,"x_max":1003,"o":"m 465 651 q 469 519 465 585 q 476 388 474 454 q 483 361 476 369 q 511 350 490 353 q 544 348 528 349 q 578 347 561 347 q 677 352 628 347 q 776 361 726 357 q 807 366 796 363 q 824 376 818 369 q 831 396 829 383 q 833 429 832 408 q 834 460 833 444 q 835 492 835 476 q 828 674 835 583 q 815 856 822 764 q 805 935 811 896 q 789 1014 799 974 q 755 1099 778 1060 q 701 1172 732 1138 q 658 1203 682 1196 q 608 1211 635 1211 q 586 1210 597 1211 q 564 1208 575 1210 q 521 1184 532 1206 q 500 1140 510 1163 q 456 908 456 1031 q 456 892 456 900 q 457 875 457 883 q 460 773 458 824 q 465 669 463 722 l 465 651 m 103 358 q 92 625 97 493 q 85 890 88 757 q 84 901 85 896 q 83 913 83 907 q 101 1067 85 992 q 150 1214 117 1142 q 311 1332 197 1322 q 413 1340 363 1338 q 515 1342 464 1342 q 649 1338 582 1342 q 733 1313 696 1335 q 801 1256 771 1292 q 879 1138 847 1200 q 922 1004 911 1076 q 952 763 942 882 q 963 522 963 644 q 961 440 963 481 q 957 357 960 399 q 952 283 954 319 q 950 208 950 246 q 953 122 950 164 q 964 35 957 79 q 970 -76 968 -22 q 975 -178 972 -129 q 983 -272 978 -228 q 1000 -353 989 -317 q 1003 -368 1003 -364 q 974 -414 1003 -396 q 939 -425 956 -425 q 900 -414 919 -425 q 876 -387 885 -403 q 865 -353 868 -372 q 856 -296 861 -325 q 850 -237 850 -267 q 844 -100 849 -161 q 834 12 839 -39 q 825 106 829 63 q 821 193 821 150 l 821 206 q 794 233 821 233 l 785 233 q 687 224 736 229 q 589 218 638 218 q 519 222 554 218 l 513 222 q 486 190 486 222 q 488 77 488 133 q 488 -37 488 21 l 483 -325 q 465 -394 483 -374 q 397 -418 446 -415 q 276 -422 336 -422 q 242 -422 260 -422 q 208 -421 225 -421 q 133 -398 156 -419 q 110 -322 111 -376 q 108 -235 108 -278 q 108 -147 108 -192 l 113 117 q 110 238 113 178 q 103 358 107 297 m 281 1369 q 260 1374 269 1369 q 221 1436 221 1390 l 222 1451 l 224 1457 q 278 1608 253 1532 q 349 1753 304 1683 q 415 1800 374 1790 q 463 1809 439 1807 q 511 1811 488 1811 q 576 1808 543 1811 q 640 1799 608 1804 q 670 1785 658 1796 q 690 1758 682 1774 q 758 1628 726 1694 q 811 1490 790 1563 q 817 1456 817 1474 q 743 1392 817 1399 q 629 1388 685 1388 l 549 1389 q 476 1439 496 1390 l 436 1536 q 428 1560 432 1547 q 408 1582 425 1572 l 360 1460 q 352 1435 356 1447 q 342 1413 349 1424 q 281 1369 319 1369 z "},"":{"ha":1086,"x_min":83,"x_max":1003,"o":"m 465 651 q 469 519 465 585 q 476 388 474 454 q 483 361 476 369 q 511 350 490 353 q 544 348 528 349 q 578 347 561 347 q 677 352 628 347 q 776 361 726 357 q 807 366 796 363 q 824 376 818 369 q 831 396 829 383 q 833 429 832 408 q 834 460 833 444 q 835 492 835 476 q 828 674 835 583 q 815 856 822 764 q 805 935 811 896 q 789 1014 799 974 q 755 1099 778 1060 q 701 1172 732 1138 q 658 1203 682 1196 q 608 1211 635 1211 q 586 1210 597 1211 q 564 1208 575 1210 q 521 1184 532 1206 q 500 1140 510 1163 q 456 908 456 1031 q 456 892 456 900 q 457 875 457 883 q 460 773 458 824 q 465 669 463 722 l 465 651 m 103 358 q 92 625 97 493 q 85 890 88 757 q 84 901 85 896 q 83 913 83 907 q 101 1067 85 992 q 150 1214 117 1142 q 311 1332 197 1322 q 413 1340 363 1338 q 515 1342 464 1342 q 649 1338 582 1342 q 733 1313 696 1335 q 801 1256 771 1292 q 879 1138 847 1200 q 922 1004 911 1076 q 952 763 942 882 q 963 522 963 644 q 961 440 963 481 q 957 357 960 399 q 952 283 954 319 q 950 208 950 246 q 953 122 950 164 q 964 35 957 79 q 970 -76 968 -22 q 975 -178 972 -129 q 983 -272 978 -228 q 1000 -353 989 -317 q 1003 -368 1003 -364 q 974 -414 1003 -396 q 939 -425 956 -425 q 900 -414 919 -425 q 876 -387 885 -403 q 865 -353 868 -372 q 856 -296 861 -325 q 850 -237 850 -267 q 844 -100 849 -161 q 834 12 839 -39 q 825 106 829 63 q 821 193 821 150 l 821 206 q 794 233 821 233 l 785 233 q 687 224 736 229 q 589 218 638 218 q 519 222 554 218 l 513 222 q 486 190 486 222 q 488 77 488 133 q 488 -37 488 21 l 483 -325 q 465 -394 483 -374 q 397 -418 446 -415 q 276 -422 336 -422 q 242 -422 260 -422 q 208 -421 225 -421 q 133 -398 156 -419 q 110 -322 111 -376 q 108 -235 108 -278 q 108 -147 108 -192 l 113 117 q 110 238 113 178 q 103 358 107 297 m 593 1385 q 561 1388 578 1385 q 528 1397 544 1390 l 472 1422 q 418 1436 440 1436 q 356 1407 385 1436 q 314 1388 336 1388 q 275 1403 293 1388 q 251 1451 251 1422 q 261 1488 251 1472 q 281 1514 267 1500 q 342 1552 301 1536 q 418 1568 382 1568 q 528 1536 472 1565 q 593 1518 564 1518 q 656 1542 626 1518 q 676 1550 664 1547 q 697 1553 683 1553 q 728 1544 714 1553 q 751 1521 743 1536 q 760 1489 760 1506 q 738 1446 760 1464 q 669 1401 704 1418 q 593 1385 633 1385 z "},"":{"ha":1086,"x_min":83,"x_max":1003,"o":"m 465 651 q 469 519 465 585 q 476 388 474 454 q 483 361 476 369 q 511 350 490 353 q 544 348 528 349 q 578 347 561 347 q 677 352 628 347 q 776 361 726 357 q 807 366 796 363 q 824 376 818 369 q 831 396 829 383 q 833 429 832 408 q 834 460 833 444 q 835 492 835 476 q 828 674 835 583 q 815 856 822 764 q 805 935 811 896 q 789 1014 799 974 q 755 1099 778 1060 q 701 1172 732 1138 q 658 1203 682 1196 q 608 1211 635 1211 q 586 1210 597 1211 q 564 1208 575 1210 q 521 1184 532 1206 q 500 1140 510 1163 q 456 908 456 1031 q 456 892 456 900 q 457 875 457 883 q 460 773 458 824 q 465 669 463 722 l 465 651 m 103 358 q 92 625 97 493 q 85 890 88 757 q 84 901 85 896 q 83 913 83 907 q 101 1067 85 992 q 150 1214 117 1142 q 311 1332 197 1322 q 413 1340 363 1338 q 515 1342 464 1342 q 649 1338 582 1342 q 733 1313 696 1335 q 801 1256 771 1292 q 879 1138 847 1200 q 922 1004 911 1076 q 952 763 942 882 q 963 522 963 644 q 961 440 963 481 q 957 357 960 399 q 952 283 954 319 q 950 208 950 246 q 953 122 950 164 q 964 35 957 79 q 970 -76 968 -22 q 975 -178 972 -129 q 983 -272 978 -228 q 1000 -353 989 -317 q 1003 -368 1003 -364 q 974 -414 1003 -396 q 939 -425 956 -425 q 900 -414 919 -425 q 876 -387 885 -403 q 865 -353 868 -372 q 856 -296 861 -325 q 850 -237 850 -267 q 844 -100 849 -161 q 834 12 839 -39 q 825 106 829 63 q 821 193 821 150 l 821 206 q 794 233 821 233 l 785 233 q 687 224 736 229 q 589 218 638 218 q 519 222 554 218 l 513 222 q 486 190 486 222 q 488 77 488 133 q 488 -37 488 21 l 483 -325 q 465 -394 483 -374 q 397 -418 446 -415 q 276 -422 336 -422 q 242 -422 260 -422 q 208 -421 225 -421 q 133 -398 156 -419 q 110 -322 111 -376 q 108 -235 108 -278 q 108 -147 108 -192 l 113 117 q 110 238 113 178 q 103 358 107 297 m 325 1385 q 263 1385 293 1385 q 200 1388 232 1386 q 151 1405 167 1389 q 128 1456 135 1421 q 124 1493 125 1475 q 122 1531 122 1511 l 122 1543 q 122 1574 122 1558 q 119 1606 122 1590 l 119 1700 q 137 1765 119 1744 q 200 1789 154 1786 q 279 1793 240 1792 q 358 1794 318 1794 q 398 1794 378 1794 q 438 1793 418 1794 q 496 1772 478 1790 q 517 1713 514 1753 q 519 1640 519 1676 q 519 1568 518 1604 q 521 1530 519 1549 q 528 1492 522 1511 q 532 1464 532 1476 q 513 1417 532 1436 q 461 1393 494 1399 q 392 1386 426 1388 q 325 1385 358 1385 m 928 1393 q 868 1389 910 1390 q 782 1388 826 1388 q 672 1388 731 1386 q 619 1404 636 1389 q 594 1456 601 1419 q 591 1485 592 1471 q 590 1514 590 1499 l 590 1583 q 588 1647 589 1615 q 586 1711 586 1679 q 603 1767 586 1747 q 656 1788 619 1786 q 742 1792 700 1790 q 828 1794 785 1794 q 866 1794 847 1794 q 904 1792 885 1794 q 963 1770 944 1789 q 983 1711 981 1751 q 985 1640 986 1675 q 986 1568 985 1604 q 988 1530 986 1549 q 994 1492 989 1511 q 999 1464 999 1476 q 980 1417 999 1436 q 928 1393 961 1397 z "},"":{"ha":1086,"x_min":83,"x_max":1003,"o":"m 465 651 q 469 519 465 585 q 476 388 474 454 q 483 361 476 369 q 511 350 490 353 q 544 348 528 349 q 578 347 561 347 q 677 352 628 347 q 776 361 726 357 q 807 366 796 363 q 824 376 818 369 q 831 396 829 383 q 833 429 832 408 q 834 460 833 444 q 835 492 835 476 q 828 674 835 583 q 815 856 822 764 q 805 935 811 896 q 789 1014 799 974 q 755 1099 778 1060 q 701 1172 732 1138 q 658 1203 682 1196 q 608 1211 635 1211 q 586 1210 597 1211 q 564 1208 575 1210 q 521 1184 532 1206 q 500 1140 510 1163 q 456 908 456 1031 q 456 892 456 900 q 457 875 457 883 q 460 773 458 824 q 465 669 463 722 l 465 651 m 103 358 q 92 625 97 493 q 85 890 88 757 q 84 901 85 896 q 83 913 83 907 q 101 1067 85 992 q 150 1214 117 1142 q 311 1332 197 1322 q 413 1340 363 1338 q 515 1342 464 1342 q 649 1338 582 1342 q 733 1313 696 1335 q 801 1256 771 1292 q 879 1138 847 1200 q 922 1004 911 1076 q 952 763 942 882 q 963 522 963 644 q 961 440 963 481 q 957 357 960 399 q 952 283 954 319 q 950 208 950 246 q 953 122 950 164 q 964 35 957 79 q 970 -76 968 -22 q 975 -178 972 -129 q 983 -272 978 -228 q 1000 -353 989 -317 q 1003 -368 1003 -364 q 974 -414 1003 -396 q 939 -425 956 -425 q 900 -414 919 -425 q 876 -387 885 -403 q 865 -353 868 -372 q 856 -296 861 -325 q 850 -237 850 -267 q 844 -100 849 -161 q 834 12 839 -39 q 825 106 829 63 q 821 193 821 150 l 821 206 q 794 233 821 233 l 785 233 q 687 224 736 229 q 589 218 638 218 q 519 222 554 218 l 513 222 q 486 190 486 222 q 488 77 488 133 q 488 -37 488 21 l 483 -325 q 465 -394 483 -374 q 397 -418 446 -415 q 276 -422 336 -422 q 242 -422 260 -422 q 208 -421 225 -421 q 133 -398 156 -419 q 110 -322 111 -376 q 108 -235 108 -278 q 108 -147 108 -192 l 113 117 q 110 238 113 178 q 103 358 107 297 m 617 1524 q 632 1538 626 1524 q 640 1576 639 1557 q 643 1614 640 1594 l 644 1631 q 643 1646 643 1638 q 632 1657 643 1654 l 631 1657 q 617 1649 621 1657 q 611 1635 614 1642 q 604 1599 607 1617 q 601 1563 601 1581 l 603 1543 q 605 1530 603 1536 q 615 1524 607 1524 l 617 1524 m 360 1386 q 284 1415 318 1388 q 242 1488 250 1443 q 233 1571 233 1529 q 247 1667 233 1619 q 292 1758 260 1714 q 329 1795 307 1782 q 381 1808 351 1808 l 611 1808 q 674 1797 644 1808 q 724 1764 703 1785 q 759 1715 746 1743 q 774 1653 772 1686 l 774 1638 q 769 1574 774 1606 q 758 1510 765 1542 q 603 1386 731 1390 l 482 1385 l 360 1386 z "},"":{"ha":1488,"x_min":83,"x_max":1404,"o":"m 576 333 q 676 338 626 333 q 775 347 726 343 q 807 352 796 349 q 824 363 818 356 q 831 382 829 369 q 832 415 832 394 l 833 488 q 827 665 833 576 q 814 842 821 753 q 804 921 811 882 q 788 1000 797 960 q 753 1084 776 1046 q 701 1158 731 1122 q 658 1190 682 1182 q 608 1197 635 1197 q 586 1197 597 1197 q 564 1194 575 1196 q 521 1171 532 1192 q 500 1126 510 1150 q 466 1009 476 1068 q 456 888 456 950 l 456 861 q 460 758 458 810 q 465 654 463 707 l 465 619 q 469 497 465 558 q 475 374 472 436 q 483 346 476 354 q 510 336 490 338 q 543 334 526 335 q 576 333 560 333 m 211 -419 q 136 -397 158 -418 q 113 -321 114 -375 q 111 -247 111 -283 q 111 -172 111 -210 l 113 67 q 110 205 113 136 q 101 343 107 274 q 92 610 97 478 q 83 876 86 742 l 83 897 q 99 1052 83 976 q 149 1200 115 1128 q 310 1318 196 1308 q 542 1328 418 1328 q 781 1329 667 1328 l 815 1329 q 961 1330 889 1329 q 1106 1331 1033 1331 q 1215 1330 1161 1331 q 1324 1326 1269 1329 q 1343 1324 1333 1325 q 1361 1319 1353 1322 q 1392 1297 1381 1313 q 1404 1261 1404 1281 l 1404 1256 q 1354 1201 1397 1211 q 1339 1199 1347 1200 q 1324 1199 1331 1199 l 1315 1199 l 1288 1199 q 1251 1199 1272 1199 q 1199 1200 1231 1200 q 1125 1200 1167 1200 q 1031 1199 1083 1200 q 986 1198 1010 1199 q 941 1197 963 1197 q 903 1197 919 1197 q 878 1196 886 1196 q 851 1172 851 1196 q 896 1085 878 1131 q 921 989 914 1040 q 949 765 939 876 q 961 539 960 653 l 963 503 l 961 458 q 961 445 961 451 q 960 432 961 439 l 960 404 q 960 374 960 385 q 967 358 961 364 q 983 350 972 353 q 1014 346 993 347 q 1037 344 1025 344 q 1061 344 1049 344 l 1128 344 q 1151 344 1139 344 q 1174 339 1163 343 q 1221 275 1221 321 q 1219 260 1221 265 q 1199 224 1215 239 q 1161 210 1183 210 l 1149 211 q 1122 215 1135 214 q 1094 215 1108 215 l 1042 215 q 1024 215 1033 215 q 1006 217 1015 215 l 994 217 q 967 208 975 217 q 960 179 960 200 l 960 172 q 964 46 964 115 l 963 -76 q 971 -184 969 -129 q 981 -293 972 -239 l 993 -294 l 1307 -287 q 1343 -293 1328 -287 q 1385 -353 1385 -311 q 1346 -408 1385 -393 q 1317 -417 1332 -415 q 1286 -419 1301 -418 l 922 -424 q 886 -412 906 -424 q 863 -386 871 -401 q 851 -351 854 -371 q 842 -294 847 -324 q 836 -236 836 -265 q 834 -140 836 -193 q 828 -30 832 -86 q 823 81 825 26 q 821 178 821 135 l 821 188 q 814 213 821 207 q 792 219 807 219 l 785 219 q 686 210 736 215 q 588 204 636 204 q 518 208 553 204 l 511 208 q 486 176 486 208 q 486 57 486 119 q 486 -70 486 -6 q 487 -197 486 -135 q 488 -317 488 -260 q 470 -392 488 -369 q 400 -417 453 -414 q 281 -421 339 -421 l 211 -419 z "},"":{"ha":1051,"x_min":83,"x_max":968,"o":"m 325 -415 q 225 -365 264 -406 q 157 -239 174 -314 q 131 -114 143 -176 q 110 13 119 -51 q 85 407 85 193 l 85 450 q 83 485 83 468 q 83 521 83 503 l 85 675 q 85 750 85 713 q 88 824 86 788 q 242 1247 108 1058 q 406 1336 300 1336 l 535 1336 l 604 1335 q 833 1238 739 1331 q 914 1089 900 1178 l 915 1069 q 910 1029 915 1046 q 849 978 892 978 l 840 978 q 788 1036 788 985 l 788 1044 q 753 1139 788 1106 q 668 1193 717 1172 q 625 1204 642 1204 q 574 1164 597 1204 q 446 774 454 986 l 444 546 q 457 144 444 304 q 480 -28 465 57 q 514 -201 494 -114 q 519 -221 517 -212 q 521 -228 519 -226 q 590 -287 543 -287 q 631 -279 607 -287 q 774 -186 718 -249 q 838 -19 829 -126 l 839 28 q 826 186 839 108 q 825 196 826 193 q 823 219 824 207 q 822 243 822 232 q 822 256 822 250 q 824 268 822 261 q 885 326 838 326 l 888 326 q 926 313 911 326 q 947 271 943 297 q 956 208 951 239 q 963 147 960 178 q 967 85 965 115 q 968 22 968 54 q 967 -25 968 -1 q 963 -72 965 -49 q 849 -294 949 -203 q 717 -385 788 -351 q 682 -399 703 -392 q 683 -403 683 -401 q 685 -408 683 -406 q 696 -435 686 -425 q 721 -450 701 -443 q 801 -511 776 -469 q 828 -617 828 -554 l 828 -631 q 699 -790 819 -758 q 655 -799 676 -796 q 611 -804 633 -803 l 571 -806 l 490 -804 q 417 -800 453 -800 q 367 -798 392 -800 q 318 -790 342 -796 q 246 -753 278 -785 q 222 -703 222 -729 q 238 -662 222 -682 q 292 -635 261 -635 q 326 -647 310 -635 q 379 -665 353 -665 l 435 -664 q 463 -637 457 -664 q 465 -614 465 -624 q 457 -585 465 -600 q 443 -578 450 -578 q 429 -579 433 -578 q 426 -581 428 -581 l 399 -583 q 346 -562 360 -583 q 328 -499 331 -544 q 326 -465 326 -482 q 325 -432 325 -449 l 325 -415 l 325 -415 z "},"":{"ha":992,"x_min":83,"x_max":908,"o":"m 181 -435 q 110 -417 131 -435 q 89 -347 90 -400 q 87 -299 88 -324 q 86 -251 86 -275 l 88 -197 l 90 -37 q 87 115 90 39 q 83 267 83 190 q 88 390 83 328 l 88 479 q 95 673 92 576 q 99 864 99 769 q 94 1046 99 954 l 93 1122 q 94 1184 93 1154 q 96 1246 94 1214 q 114 1303 99 1286 q 169 1326 129 1321 q 286 1335 225 1335 l 318 1335 q 457 1335 389 1335 q 596 1336 525 1336 q 828 1332 713 1336 q 847 1329 838 1331 q 867 1325 857 1328 q 897 1303 886 1318 q 908 1269 908 1288 l 908 1261 q 860 1207 903 1218 q 845 1205 853 1206 q 831 1204 838 1204 l 821 1204 q 788 1206 804 1206 q 756 1206 772 1206 q 678 1204 717 1206 q 600 1201 639 1203 l 567 1204 q 533 1203 550 1204 q 500 1201 517 1201 q 472 1175 472 1201 l 471 1108 q 476 958 474 1033 q 478 807 478 883 q 475 623 478 715 q 467 456 472 531 q 465 425 465 440 q 465 394 465 410 l 465 375 q 467 356 465 363 q 474 344 468 349 q 490 339 479 340 q 518 338 500 338 l 550 336 l 613 338 q 646 337 629 338 q 679 331 663 336 q 713 306 701 324 q 725 269 725 289 q 724 253 725 258 q 703 217 719 232 q 667 203 688 203 l 654 204 q 628 208 640 207 q 601 208 615 208 l 538 207 l 496 207 q 472 199 478 207 q 465 174 465 192 l 465 163 q 468 105 468 133 q 468 47 468 76 q 467 -57 468 -12 q 466 -135 467 -101 q 465 -197 465 -169 q 464 -250 464 -224 q 468 -288 464 -279 q 493 -297 472 -297 l 813 -282 q 847 -287 832 -282 q 889 -344 889 -303 l 889 -347 q 851 -403 889 -385 q 822 -411 836 -410 q 792 -412 807 -412 q 619 -421 704 -415 q 447 -426 533 -426 q 425 -427 439 -426 q 396 -428 411 -428 l 361 -428 q 272 -431 317 -428 q 181 -435 226 -435 m 476 1385 q 394 1387 424 1385 q 348 1401 365 1389 q 319 1439 331 1413 q 289 1514 307 1465 q 261 1579 278 1547 q 230 1640 244 1611 q 205 1694 215 1669 q 194 1738 194 1718 q 208 1771 194 1757 q 244 1793 222 1785 q 296 1806 267 1801 q 357 1810 325 1810 q 420 1806 389 1810 q 483 1799 451 1803 q 514 1785 503 1796 q 535 1758 525 1774 q 602 1627 571 1693 q 654 1490 633 1561 q 659 1471 657 1479 q 661 1454 661 1463 q 593 1392 661 1404 q 535 1386 564 1386 q 476 1385 506 1386 z "},"":{"ha":992,"x_min":83,"x_max":908,"o":"m 181 -435 q 110 -417 131 -435 q 89 -347 90 -400 q 87 -299 88 -324 q 86 -251 86 -275 l 88 -197 l 90 -37 q 87 115 90 39 q 83 267 83 190 q 88 390 83 328 l 88 479 q 95 673 92 576 q 99 864 99 769 q 94 1046 99 954 l 93 1122 q 94 1184 93 1154 q 96 1246 94 1214 q 114 1303 99 1286 q 169 1326 129 1321 q 286 1335 225 1335 l 318 1335 q 457 1335 389 1335 q 596 1336 525 1336 q 828 1332 713 1336 q 847 1329 838 1331 q 867 1325 857 1328 q 897 1303 886 1318 q 908 1269 908 1288 l 908 1261 q 860 1207 903 1218 q 845 1205 853 1206 q 831 1204 838 1204 l 821 1204 q 788 1206 804 1206 q 756 1206 772 1206 q 678 1204 717 1206 q 600 1201 639 1203 l 567 1204 q 533 1203 550 1204 q 500 1201 517 1201 q 472 1175 472 1201 l 471 1108 q 476 958 474 1033 q 478 807 478 883 q 475 623 478 715 q 467 456 472 531 q 465 425 465 440 q 465 394 465 410 l 465 375 q 467 356 465 363 q 474 344 468 349 q 490 339 479 340 q 518 338 500 338 l 550 336 l 613 338 q 646 337 629 338 q 679 331 663 336 q 713 306 701 324 q 725 269 725 289 q 724 253 725 258 q 703 217 719 232 q 667 203 688 203 l 654 204 q 628 208 640 207 q 601 208 615 208 l 538 207 l 496 207 q 472 199 478 207 q 465 174 465 192 l 465 163 q 468 105 468 133 q 468 47 468 76 q 467 -57 468 -12 q 466 -135 467 -101 q 465 -197 465 -169 q 464 -250 464 -224 q 468 -288 464 -279 q 493 -297 472 -297 l 813 -282 q 847 -287 832 -282 q 889 -344 889 -303 l 889 -347 q 851 -403 889 -385 q 822 -411 836 -410 q 792 -412 807 -412 q 619 -421 704 -415 q 447 -426 533 -426 q 425 -427 439 -426 q 396 -428 411 -428 l 361 -428 q 272 -431 317 -428 q 181 -435 226 -435 m 574 1385 q 532 1386 553 1386 q 490 1386 511 1386 l 446 1385 q 410 1386 428 1385 q 375 1392 393 1388 q 311 1453 311 1404 q 315 1478 311 1463 q 370 1626 336 1556 q 444 1765 404 1697 q 489 1796 460 1792 q 552 1805 521 1801 q 615 1808 583 1808 q 719 1794 669 1808 q 779 1733 779 1778 q 768 1693 779 1714 q 708 1569 735 1632 q 654 1440 681 1506 q 574 1385 633 1385 z "},"":{"ha":992,"x_min":83,"x_max":908,"o":"m 181 -435 q 110 -417 131 -435 q 89 -347 90 -400 q 87 -299 88 -324 q 86 -251 86 -275 l 88 -197 l 90 -37 q 87 115 90 39 q 83 267 83 190 q 88 390 83 328 l 88 479 q 95 673 92 576 q 99 864 99 769 q 94 1046 99 954 l 93 1122 q 94 1184 93 1154 q 96 1246 94 1214 q 114 1303 99 1286 q 169 1326 129 1321 q 286 1335 225 1335 l 318 1335 q 457 1335 389 1335 q 596 1336 525 1336 q 828 1332 713 1336 q 847 1329 838 1331 q 867 1325 857 1328 q 897 1303 886 1318 q 908 1269 908 1288 l 908 1261 q 860 1207 903 1218 q 845 1205 853 1206 q 831 1204 838 1204 l 821 1204 q 788 1206 804 1206 q 756 1206 772 1206 q 678 1204 717 1206 q 600 1201 639 1203 l 567 1204 q 533 1203 550 1204 q 500 1201 517 1201 q 472 1175 472 1201 l 471 1108 q 476 958 474 1033 q 478 807 478 883 q 475 623 478 715 q 467 456 472 531 q 465 425 465 440 q 465 394 465 410 l 465 375 q 467 356 465 363 q 474 344 468 349 q 490 339 479 340 q 518 338 500 338 l 550 336 l 613 338 q 646 337 629 338 q 679 331 663 336 q 713 306 701 324 q 725 269 725 289 q 724 253 725 258 q 703 217 719 232 q 667 203 688 203 l 654 204 q 628 208 640 207 q 601 208 615 208 l 538 207 l 496 207 q 472 199 478 207 q 465 174 465 192 l 465 163 q 468 105 468 133 q 468 47 468 76 q 467 -57 468 -12 q 466 -135 467 -101 q 465 -197 465 -169 q 464 -250 464 -224 q 468 -288 464 -279 q 493 -297 472 -297 l 813 -282 q 847 -287 832 -282 q 889 -344 889 -303 l 889 -347 q 851 -403 889 -385 q 822 -411 836 -410 q 792 -412 807 -412 q 619 -421 704 -415 q 447 -426 533 -426 q 425 -427 439 -426 q 396 -428 411 -428 l 361 -428 q 272 -431 317 -428 q 181 -435 226 -435 m 267 1369 q 246 1374 256 1369 q 207 1436 207 1390 l 208 1451 l 210 1457 q 265 1608 239 1532 q 335 1753 290 1683 q 401 1800 360 1790 q 449 1809 425 1807 q 497 1811 474 1811 q 562 1808 529 1811 q 626 1799 594 1804 q 656 1785 644 1796 q 676 1758 668 1774 q 744 1628 713 1694 q 797 1490 776 1563 q 803 1456 803 1474 q 729 1392 803 1399 q 615 1388 671 1388 l 535 1389 q 463 1439 482 1390 l 422 1536 q 415 1560 418 1547 q 394 1582 411 1572 l 346 1460 q 338 1435 342 1447 q 328 1413 335 1424 q 267 1369 306 1369 z "},"":{"ha":992,"x_min":64,"x_max":943,"o":"m 181 -435 q 110 -417 131 -435 q 89 -347 90 -400 q 87 -299 88 -324 q 86 -251 86 -275 l 88 -197 l 90 -37 q 87 115 90 39 q 83 267 83 190 q 88 390 83 328 l 88 479 q 95 673 92 576 q 99 864 99 769 q 94 1046 99 954 l 93 1122 q 94 1184 93 1154 q 96 1246 94 1214 q 114 1303 99 1286 q 169 1326 129 1321 q 286 1335 225 1335 l 318 1335 q 457 1335 389 1335 q 596 1336 525 1336 q 828 1332 713 1336 q 847 1329 838 1331 q 867 1325 857 1328 q 897 1303 886 1318 q 908 1269 908 1288 l 908 1261 q 860 1207 903 1218 q 845 1205 853 1206 q 831 1204 838 1204 l 821 1204 q 788 1206 804 1206 q 756 1206 772 1206 q 678 1204 717 1206 q 600 1201 639 1203 l 567 1204 q 533 1203 550 1204 q 500 1201 517 1201 q 472 1175 472 1201 l 471 1108 q 476 958 474 1033 q 478 807 478 883 q 475 623 478 715 q 467 456 472 531 q 465 425 465 440 q 465 394 465 410 l 465 375 q 467 356 465 363 q 474 344 468 349 q 490 339 479 340 q 518 338 500 338 l 550 336 l 613 338 q 646 337 629 338 q 679 331 663 336 q 713 306 701 324 q 725 269 725 289 q 724 253 725 258 q 703 217 719 232 q 667 203 688 203 l 654 204 q 628 208 640 207 q 601 208 615 208 l 538 207 l 496 207 q 472 199 478 207 q 465 174 465 192 l 465 163 q 468 105 468 133 q 468 47 468 76 q 467 -57 468 -12 q 466 -135 467 -101 q 465 -197 465 -169 q 464 -250 464 -224 q 468 -288 464 -279 q 493 -297 472 -297 l 813 -282 q 847 -287 832 -282 q 889 -344 889 -303 l 889 -347 q 851 -403 889 -385 q 822 -411 836 -410 q 792 -412 807 -412 q 619 -421 704 -415 q 447 -426 533 -426 q 425 -427 439 -426 q 396 -428 411 -428 l 361 -428 q 272 -431 317 -428 q 181 -435 226 -435 m 269 1385 q 207 1385 238 1385 q 144 1388 176 1386 q 95 1405 111 1389 q 72 1456 79 1421 q 68 1493 69 1475 q 67 1531 67 1511 l 67 1543 q 67 1574 67 1558 q 64 1606 67 1590 l 64 1700 q 81 1765 64 1744 q 144 1789 99 1786 q 224 1793 185 1792 q 303 1794 263 1794 q 342 1794 322 1794 q 382 1793 363 1794 q 440 1772 422 1790 q 461 1713 458 1753 q 463 1640 464 1676 q 464 1568 463 1604 q 465 1530 464 1549 q 472 1492 467 1511 q 476 1464 476 1476 q 458 1417 476 1436 q 406 1393 439 1399 q 337 1386 371 1388 q 269 1385 303 1385 m 872 1393 q 813 1389 854 1390 q 726 1388 771 1388 q 617 1388 675 1386 q 563 1404 581 1389 q 539 1456 546 1419 q 535 1485 536 1471 q 535 1514 535 1499 l 535 1583 q 532 1647 533 1615 q 531 1711 531 1679 q 547 1767 531 1747 q 600 1788 564 1786 q 687 1792 644 1790 q 772 1794 729 1794 q 810 1794 792 1794 q 849 1792 829 1794 q 907 1770 889 1789 q 928 1711 925 1751 q 930 1640 931 1675 q 931 1568 929 1604 q 932 1530 931 1549 q 939 1492 933 1511 q 943 1464 943 1476 q 924 1417 943 1436 q 872 1393 906 1397 z "},"":{"ha":560,"x_min":0,"x_max":476,"o":"m 228 -421 q 198 -417 213 -421 q 168 -410 183 -414 q 113 -336 115 -394 q 92 72 101 -131 q 83 479 83 274 q 85 633 83 556 q 90 796 86 711 q 95 1010 96 904 q 97 1224 94 1115 q 121 1310 99 1286 q 201 1333 143 1333 l 379 1326 q 441 1304 424 1322 q 458 1242 458 1286 l 458 1204 q 460 1089 458 1146 q 461 975 461 1032 q 460 925 461 960 q 457 844 458 890 q 453 747 456 799 q 449 647 450 696 q 446 558 447 599 q 444 494 444 518 q 446 382 444 438 q 451 271 447 326 q 453 228 453 260 q 453 161 453 196 l 453 75 q 459 -71 453 1 q 472 -218 465 -143 q 476 -293 476 -256 l 475 -335 q 394 -415 469 -410 q 311 -419 353 -418 q 228 -421 269 -421 m 282 1385 q 200 1387 229 1385 q 153 1401 171 1389 q 124 1439 136 1413 q 94 1514 113 1465 q 67 1579 83 1547 q 35 1640 50 1611 q 10 1694 21 1669 q 0 1738 0 1718 q 14 1771 0 1757 q 50 1793 28 1785 q 101 1806 72 1801 q 163 1810 131 1810 q 226 1806 194 1810 q 289 1799 257 1803 q 319 1785 308 1796 q 340 1758 331 1774 q 408 1627 376 1693 q 460 1490 439 1561 q 465 1471 463 1479 q 467 1454 467 1463 q 399 1392 467 1404 q 340 1386 369 1386 q 282 1385 311 1386 z "},"":{"ha":560,"x_min":83,"x_max":581,"o":"m 228 -421 q 198 -417 213 -421 q 168 -410 183 -414 q 113 -336 115 -394 q 92 72 101 -131 q 83 479 83 274 q 85 633 83 556 q 90 796 86 711 q 95 1010 96 904 q 97 1224 94 1115 q 121 1310 99 1286 q 201 1333 143 1333 l 379 1326 q 441 1304 424 1322 q 458 1242 458 1286 l 458 1204 q 460 1089 458 1146 q 461 975 461 1032 q 460 925 461 960 q 457 844 458 890 q 453 747 456 799 q 449 647 450 696 q 446 558 447 599 q 444 494 444 518 q 446 382 444 438 q 451 271 447 326 q 453 228 453 260 q 453 161 453 196 l 453 75 q 459 -71 453 1 q 472 -218 465 -143 q 476 -293 476 -256 l 475 -335 q 394 -415 469 -410 q 311 -419 353 -418 q 228 -421 269 -421 m 375 1385 q 333 1386 354 1386 q 292 1386 313 1386 l 247 1385 q 212 1386 229 1385 q 176 1392 194 1388 q 113 1453 113 1404 q 117 1478 113 1463 q 172 1626 138 1556 q 246 1765 206 1697 q 290 1796 261 1792 q 353 1805 322 1801 q 417 1808 385 1808 q 521 1794 471 1808 q 581 1733 581 1778 q 569 1693 581 1714 q 509 1569 536 1632 q 456 1440 482 1506 q 375 1385 435 1385 z "},"":{"ha":560,"x_min":-15,"x_max":581,"o":"m 228 -421 q 198 -417 213 -421 q 168 -410 183 -414 q 113 -336 115 -394 q 92 72 101 -131 q 83 479 83 274 q 85 633 83 556 q 90 796 86 711 q 95 1010 96 904 q 97 1224 94 1115 q 121 1310 99 1286 q 201 1333 143 1333 l 379 1326 q 441 1304 424 1322 q 458 1242 458 1286 l 458 1204 q 460 1089 458 1146 q 461 975 461 1032 q 460 925 461 960 q 457 844 458 890 q 453 747 456 799 q 449 647 450 696 q 446 558 447 599 q 444 494 444 518 q 446 382 444 438 q 451 271 447 326 q 453 228 453 260 q 453 161 453 196 l 453 75 q 459 -71 453 1 q 472 -218 465 -143 q 476 -293 476 -256 l 475 -335 q 394 -415 469 -410 q 311 -419 353 -418 q 228 -421 269 -421 m 44 1369 q 24 1374 33 1369 q -15 1436 -15 1390 l -14 1451 l -12 1457 q 42 1608 17 1532 q 113 1753 68 1683 q 179 1800 138 1790 q 227 1809 203 1807 q 275 1811 251 1811 q 340 1808 307 1811 q 404 1799 372 1804 q 434 1785 422 1796 q 454 1758 446 1774 q 522 1628 490 1694 q 575 1490 554 1563 q 581 1456 581 1474 q 507 1392 581 1399 q 393 1388 449 1388 l 313 1389 q 240 1439 260 1390 l 200 1536 q 192 1560 196 1547 q 172 1582 189 1572 l 124 1460 q 116 1435 119 1447 q 106 1413 113 1424 q 44 1369 83 1369 z "},"":{"ha":560,"x_min":-144,"x_max":735,"o":"m 228 -421 q 198 -417 213 -421 q 168 -410 183 -414 q 113 -336 115 -394 q 92 72 101 -131 q 83 479 83 274 q 85 633 83 556 q 90 796 86 711 q 95 1010 96 904 q 97 1224 94 1115 q 121 1310 99 1286 q 201 1333 143 1333 l 379 1326 q 441 1304 424 1322 q 458 1242 458 1286 l 458 1204 q 460 1089 458 1146 q 461 975 461 1032 q 460 925 461 960 q 457 844 458 890 q 453 747 456 799 q 449 647 450 696 q 446 558 447 599 q 444 494 444 518 q 446 382 444 438 q 451 271 447 326 q 453 228 453 260 q 453 161 453 196 l 453 75 q 459 -71 453 1 q 472 -218 465 -143 q 476 -293 476 -256 l 475 -335 q 394 -415 469 -410 q 311 -419 353 -418 q 228 -421 269 -421 m 61 1385 q -1 1385 29 1385 q -64 1388 -32 1386 q -113 1405 -97 1389 q -136 1456 -129 1421 q -140 1493 -139 1475 q -142 1531 -142 1511 l -142 1543 q -142 1574 -142 1558 q -144 1606 -142 1590 l -144 1700 q -127 1765 -144 1744 q -64 1789 -110 1786 q 15 1793 -24 1792 q 94 1794 54 1794 q 134 1794 114 1794 q 174 1793 154 1794 q 232 1772 214 1790 q 253 1713 250 1753 q 255 1640 256 1676 q 256 1568 254 1604 q 257 1530 256 1549 q 264 1492 258 1511 q 268 1464 268 1476 q 249 1417 268 1436 q 197 1393 231 1399 q 128 1386 163 1388 q 61 1385 94 1385 m 664 1393 q 604 1389 646 1390 q 518 1388 563 1388 q 408 1388 467 1386 q 355 1404 372 1389 q 331 1456 338 1419 q 327 1485 328 1471 q 326 1514 326 1499 l 326 1583 q 324 1647 325 1615 q 322 1711 322 1679 q 339 1767 322 1747 q 392 1788 356 1786 q 478 1792 436 1790 q 564 1794 521 1794 q 602 1794 583 1794 q 640 1792 621 1794 q 699 1770 681 1789 q 719 1711 717 1751 q 722 1640 722 1675 q 722 1568 721 1604 q 724 1530 722 1549 q 731 1492 725 1511 q 735 1464 735 1476 q 716 1417 735 1436 q 664 1393 697 1397 z "},"":{"ha":988,"x_min":-125,"x_max":904,"o":"m 94 560 q 90 624 92 592 q 89 689 89 657 q 85 749 86 719 q 83 807 83 778 q 86 915 83 861 q 94 1025 89 969 q 97 1069 96 1047 q 100 1115 99 1092 q 113 1247 104 1182 q 204 1333 117 1333 l 207 1333 q 301 1332 254 1333 q 394 1328 347 1331 l 489 1325 q 658 1276 578 1319 q 760 1185 722 1246 q 881 801 861 1006 q 893 624 892 711 q 897 540 894 582 q 903 458 899 499 l 901 310 l 903 221 l 904 182 q 879 -50 904 64 q 747 -283 849 -185 q 600 -389 681 -356 q 424 -422 518 -422 l 393 -421 l 226 -410 q 150 -387 169 -408 q 125 -308 131 -369 q 114 -177 118 -242 q 107 -46 110 -112 l 104 29 q 96 296 97 160 q 96 353 96 325 q 94 410 96 382 l -31 410 q -85 418 -58 410 q -125 474 -125 433 l -125 478 q -79 533 -125 518 q -32 539 -58 539 l 10 538 q 53 535 32 536 q 94 533 74 535 l 94 560 m 474 522 q 538 526 506 524 q 603 532 571 528 l 626 533 l 658 531 q 692 511 678 526 q 707 476 704 496 l 707 472 q 668 415 707 433 q 592 401 633 404 q 474 397 533 397 q 486 -85 475 156 l 489 -131 q 494 -210 490 -169 q 503 -294 497 -250 q 669 -179 604 -251 q 757 -1 733 -108 q 774 196 774 99 l 772 283 q 767 411 769 347 q 763 540 764 475 q 760 642 761 592 q 756 744 758 693 q 660 1100 747 933 q 601 1163 636 1142 q 522 1192 564 1181 q 508 1193 518 1193 q 482 1161 485 1193 l 476 1072 q 474 1044 475 1058 q 472 1017 474 1031 q 464 803 464 910 q 465 739 464 771 q 469 675 467 707 q 474 546 469 610 l 474 522 z "},"":{"ha":1067,"x_min":83,"x_max":983,"o":"m 444 -421 q 313 -419 378 -421 q 183 -417 249 -418 q 114 -364 129 -417 q 106 -314 106 -339 q 99 -228 103 -271 q 94 -143 94 -186 q 93 -62 94 -110 q 91 40 92 -14 q 89 149 90 93 q 86 256 88 206 q 84 347 85 306 q 83 411 83 388 l 83 433 l 85 499 q 88 647 88 574 q 89 794 89 719 q 89 929 89 863 q 86 1058 89 996 l 86 1086 q 88 1155 86 1121 q 89 1224 89 1189 l 89 1256 q 108 1307 89 1288 q 160 1329 126 1326 q 274 1333 215 1333 q 353 1332 314 1333 q 432 1328 392 1331 q 483 1310 467 1325 q 503 1263 499 1294 q 594 834 535 1046 q 713 407 653 622 q 758 247 735 326 q 804 88 781 168 q 811 67 807 76 q 819 46 815 57 q 824 73 822 60 q 825 99 825 86 q 824 140 825 119 q 819 179 822 160 q 799 494 808 338 q 789 811 789 651 l 788 1061 q 788 1144 788 1103 q 792 1221 789 1185 q 793 1249 793 1235 q 796 1276 793 1263 q 818 1317 801 1303 q 858 1331 835 1331 l 861 1331 q 902 1312 886 1328 q 919 1268 918 1296 l 918 1146 q 917 1039 917 1094 q 917 926 917 983 q 921 634 917 779 q 936 342 925 489 q 960 15 949 176 q 981 -303 972 -147 q 983 -319 982 -311 q 983 -336 983 -328 q 919 -417 979 -404 l 899 -419 q 833 -374 856 -419 q 806 -314 818 -344 q 779 -251 793 -283 q 693 1 728 -132 q 618 269 658 135 q 560 472 588 371 q 504 675 532 574 q 499 691 501 683 q 490 704 497 699 q 485 694 485 703 l 485 658 q 483 512 485 583 q 482 376 482 440 q 483 321 482 364 q 484 219 483 278 q 485 91 485 160 q 488 -42 486 22 q 492 -161 490 -107 q 497 -244 494 -215 q 501 -292 500 -268 q 507 -339 501 -315 l 510 -360 q 493 -403 510 -387 q 444 -421 476 -419 m 628 1385 q 596 1388 613 1385 q 563 1397 579 1390 l 507 1422 q 453 1436 475 1436 q 390 1407 419 1436 q 349 1388 371 1388 q 310 1403 328 1388 q 286 1451 286 1422 q 296 1488 286 1472 q 315 1514 301 1500 q 376 1552 336 1536 q 453 1568 417 1568 q 563 1536 507 1565 q 628 1518 599 1518 q 690 1542 661 1518 q 711 1550 699 1547 q 732 1553 718 1553 q 763 1544 749 1553 q 786 1521 778 1536 q 794 1489 794 1506 q 772 1446 794 1464 q 703 1401 739 1418 q 628 1385 668 1385 z "},"":{"ha":1014,"x_min":83,"x_max":931,"o":"m 614 -285 q 668 -243 644 -285 q 684 -208 678 -225 q 697 -171 690 -190 q 772 143 747 -15 q 801 467 796 301 l 801 476 q 770 810 801 650 q 686 1131 739 971 q 681 1143 683 1138 q 675 1156 678 1149 q 613 1193 651 1193 q 581 1185 597 1193 q 554 1163 565 1178 q 518 1096 531 1131 q 496 1025 506 1061 q 456 788 467 907 q 438 547 444 669 q 435 492 435 519 q 435 436 435 464 q 457 129 435 276 q 521 -164 479 -18 q 536 -209 528 -187 q 560 -250 544 -231 q 614 -285 586 -285 m 368 -419 q 312 -405 336 -419 q 265 -369 288 -390 q 209 -293 229 -335 q 175 -206 189 -251 q 106 112 129 -47 q 83 442 83 271 q 88 578 83 508 q 108 822 94 701 q 151 1061 122 942 q 263 1276 183 1185 q 299 1310 279 1297 q 346 1325 318 1322 q 421 1331 383 1328 q 497 1333 458 1333 q 585 1328 542 1333 q 671 1311 628 1324 q 758 1260 725 1296 q 808 1171 792 1224 q 877 926 847 1049 q 919 674 907 803 q 927 591 924 632 q 931 510 931 550 l 931 479 q 898 126 924 297 q 818 -212 872 -46 q 803 -258 811 -236 q 783 -300 794 -279 q 628 -412 738 -397 q 559 -419 593 -418 q 490 -421 525 -421 l 368 -419 m 489 1379 q 407 1381 436 1379 q 360 1395 378 1383 q 331 1433 343 1407 q 301 1508 319 1460 q 274 1574 290 1542 q 242 1635 257 1606 q 217 1688 228 1664 q 207 1732 207 1713 q 221 1765 207 1751 q 257 1788 235 1779 q 308 1800 279 1796 q 369 1804 338 1804 q 433 1801 401 1804 q 496 1793 464 1797 q 526 1779 515 1790 q 547 1753 538 1768 q 615 1622 583 1688 q 667 1485 646 1556 q 672 1465 669 1474 q 674 1449 674 1457 q 606 1386 674 1399 q 547 1381 576 1381 q 489 1379 518 1381 z "},"":{"ha":1014,"x_min":83,"x_max":931,"o":"m 614 -285 q 668 -243 644 -285 q 684 -208 678 -225 q 697 -171 690 -190 q 772 143 747 -15 q 801 467 796 301 l 801 476 q 770 810 801 650 q 686 1131 739 971 q 681 1143 683 1138 q 675 1156 678 1149 q 613 1193 651 1193 q 581 1185 597 1193 q 554 1163 565 1178 q 518 1096 531 1131 q 496 1025 506 1061 q 456 788 467 907 q 438 547 444 669 q 435 492 435 519 q 435 436 435 464 q 457 129 435 276 q 521 -164 479 -18 q 536 -209 528 -187 q 560 -250 544 -231 q 614 -285 586 -285 m 368 -419 q 312 -405 336 -419 q 265 -369 288 -390 q 209 -293 229 -335 q 175 -206 189 -251 q 106 112 129 -47 q 83 442 83 271 q 88 578 83 508 q 108 822 94 701 q 151 1061 122 942 q 263 1276 183 1185 q 299 1310 279 1297 q 346 1325 318 1322 q 421 1331 383 1328 q 497 1333 458 1333 q 585 1328 542 1333 q 671 1311 628 1324 q 758 1260 725 1296 q 808 1171 792 1224 q 877 926 847 1049 q 919 674 907 803 q 927 591 924 632 q 931 510 931 550 l 931 479 q 898 126 924 297 q 818 -212 872 -46 q 803 -258 811 -236 q 783 -300 794 -279 q 628 -412 738 -397 q 559 -419 593 -418 q 490 -421 525 -421 l 368 -419 m 593 1379 q 551 1381 572 1381 q 510 1381 531 1381 l 465 1379 q 430 1381 447 1379 q 394 1386 413 1382 q 331 1447 331 1399 q 335 1472 331 1457 q 390 1621 356 1550 q 464 1760 424 1692 q 508 1790 479 1786 q 572 1799 540 1796 q 635 1803 603 1803 q 739 1789 689 1803 q 799 1728 799 1772 q 788 1688 799 1708 q 727 1563 754 1626 q 674 1435 700 1500 q 593 1379 653 1379 z "},"":{"ha":1014,"x_min":83,"x_max":931,"o":"m 614 -285 q 668 -243 644 -285 q 684 -208 678 -225 q 697 -171 690 -190 q 772 143 747 -15 q 801 467 796 301 l 801 476 q 770 810 801 650 q 686 1131 739 971 q 681 1143 683 1138 q 675 1156 678 1149 q 613 1193 651 1193 q 581 1185 597 1193 q 554 1163 565 1178 q 518 1096 531 1131 q 496 1025 506 1061 q 456 788 467 907 q 438 547 444 669 q 435 492 435 519 q 435 436 435 464 q 457 129 435 276 q 521 -164 479 -18 q 536 -209 528 -187 q 560 -250 544 -231 q 614 -285 586 -285 m 368 -419 q 312 -405 336 -419 q 265 -369 288 -390 q 209 -293 229 -335 q 175 -206 189 -251 q 106 112 129 -47 q 83 442 83 271 q 88 578 83 508 q 108 822 94 701 q 151 1061 122 942 q 263 1276 183 1185 q 299 1310 279 1297 q 346 1325 318 1322 q 421 1331 383 1328 q 497 1333 458 1333 q 585 1328 542 1333 q 671 1311 628 1324 q 758 1260 725 1296 q 808 1171 792 1224 q 877 926 847 1049 q 919 674 907 803 q 927 591 924 632 q 931 510 931 550 l 931 479 q 898 126 924 297 q 818 -212 872 -46 q 803 -258 811 -236 q 783 -300 794 -279 q 628 -412 738 -397 q 559 -419 593 -418 q 490 -421 525 -421 l 368 -419 m 267 1369 q 246 1374 256 1369 q 207 1436 207 1390 l 208 1451 l 210 1457 q 265 1608 239 1532 q 335 1753 290 1683 q 401 1800 360 1790 q 449 1809 425 1807 q 497 1811 474 1811 q 562 1808 529 1811 q 626 1799 594 1804 q 656 1785 644 1796 q 676 1758 668 1774 q 744 1628 713 1694 q 797 1490 776 1563 q 803 1456 803 1474 q 729 1392 803 1399 q 615 1388 671 1388 l 535 1389 q 463 1439 482 1390 l 422 1536 q 415 1560 418 1547 q 394 1582 411 1572 l 346 1460 q 338 1435 342 1447 q 328 1413 335 1424 q 267 1369 306 1369 z "},"":{"ha":1014,"x_min":83,"x_max":931,"o":"m 614 -285 q 668 -243 644 -285 q 684 -208 678 -225 q 697 -171 690 -190 q 772 143 747 -15 q 801 467 796 301 l 801 476 q 770 810 801 650 q 686 1131 739 971 q 681 1143 683 1138 q 675 1156 678 1149 q 613 1193 651 1193 q 581 1185 597 1193 q 554 1163 565 1178 q 518 1096 531 1131 q 496 1025 506 1061 q 456 788 467 907 q 438 547 444 669 q 435 492 435 519 q 435 436 435 464 q 457 129 435 276 q 521 -164 479 -18 q 536 -209 528 -187 q 560 -250 544 -231 q 614 -285 586 -285 m 368 -419 q 312 -405 336 -419 q 265 -369 288 -390 q 209 -293 229 -335 q 175 -206 189 -251 q 106 112 129 -47 q 83 442 83 271 q 88 578 83 508 q 108 822 94 701 q 151 1061 122 942 q 263 1276 183 1185 q 299 1310 279 1297 q 346 1325 318 1322 q 421 1331 383 1328 q 497 1333 458 1333 q 585 1328 542 1333 q 671 1311 628 1324 q 758 1260 725 1296 q 808 1171 792 1224 q 877 926 847 1049 q 919 674 907 803 q 927 591 924 632 q 931 510 931 550 l 931 479 q 898 126 924 297 q 818 -212 872 -46 q 803 -258 811 -236 q 783 -300 794 -279 q 628 -412 738 -397 q 559 -419 593 -418 q 490 -421 525 -421 l 368 -419 m 618 1385 q 586 1388 603 1385 q 553 1397 569 1390 l 497 1422 q 443 1436 465 1436 q 381 1407 410 1436 q 339 1388 361 1388 q 300 1403 318 1388 q 276 1451 276 1422 q 286 1488 276 1472 q 306 1514 292 1500 q 367 1552 326 1536 q 443 1568 407 1568 q 553 1536 497 1565 q 618 1518 589 1518 q 681 1542 651 1518 q 701 1550 689 1547 q 722 1553 708 1553 q 753 1544 739 1553 q 776 1521 768 1536 q 785 1489 785 1506 q 763 1446 785 1464 q 694 1401 729 1418 q 618 1385 658 1385 z "}}}
